SplineFontDB: 3.0
FontName: aghtex_mathbf
FullName: aghtex_mathbf
FamilyName: aghtex_mathbf
Weight: Heavy
Copyright: Copyright (C) 2014 KM, 1997, 2009 American Mathematical Society (<http://www.ams.org>), with Reserved Font Name CMB10.
Version: 3.2.0.1
ItalicAngle: 0
UnderlinePosition: -100
UnderlineWidth: 50
Ascent: 819
Descent: 205
LayerCount: 2
Layer: 0 1 "+gMyXYgAA"  1
Layer: 1 1 "+Uk2XYgAA"  0
NeedsXUIDChange: 1
UniqueID: 5096646
FSType: 8
OS2Version: 1
OS2_WeightWidthSlopeOnly: 0
OS2_UseTypoMetrics: 0
CreationTime: 1344259763
ModificationTime: 1411972364
PfmFamily: 17
TTFWeight: 800
TTFWidth: 5
LineGap: 92
VLineGap: 0
OS2TypoAscent: 0
OS2TypoAOffset: 1
OS2TypoDescent: 0
OS2TypoDOffset: 1
OS2TypoLinegap: 92
OS2WinAscent: 0
OS2WinAOffset: 1
OS2WinDescent: 0
OS2WinDOffset: 1
HheadAscent: 0
HheadAOffset: 1
HheadDescent: 0
HheadDOffset: 1
OS2Vendor: 'PfEd'
MarkAttachClasses: 1
DEI: 91125
TtTable: prep
PUSHW_1
 511
SCANCTRL
PUSHB_1
 1
SCANTYPE
SVTCA[y-axis]
MPPEM
PUSHB_1
 8
LT
IF
PUSHB_2
 1
 1
INSTCTRL
EIF
PUSHB_2
 70
 6
CALL
IF
POP
PUSHB_1
 16
EIF
MPPEM
PUSHB_1
 20
GT
IF
POP
PUSHB_1
 128
EIF
SCVTCI
PUSHB_1
 6
CALL
NOT
IF
SVTCA[y-axis]
PUSHB_1
 3
DUP
RCVT
PUSHB_1
 3
CALL
WCVTP
PUSHB_1
 4
DUP
RCVT
PUSHB_3
 3
 27
 2
CALL
PUSHB_1
 3
CALL
WCVTP
SVTCA[x-axis]
PUSHB_1
 5
DUP
RCVT
PUSHB_1
 3
CALL
WCVTP
PUSHB_1
 6
DUP
RCVT
PUSHB_3
 5
 27
 2
CALL
PUSHB_2
 3
 70
SROUND
CALL
WCVTP
EIF
PUSHB_1
 20
CALL
EndTTInstrs
TtTable: fpgm
PUSHB_1
 0
FDEF
PUSHB_1
 0
SZP0
MPPEM
PUSHB_1
 42
LT
IF
PUSHB_1
 74
SROUND
EIF
PUSHB_1
 0
SWAP
MIAP[rnd]
RTG
PUSHB_1
 6
CALL
IF
RTDG
EIF
MPPEM
PUSHB_1
 42
LT
IF
RDTG
EIF
DUP
MDRP[rp0,rnd,grey]
PUSHB_1
 1
SZP0
MDAP[no-rnd]
RTG
ENDF
PUSHB_1
 1
FDEF
DUP
MDRP[rp0,min,white]
PUSHB_1
 12
CALL
ENDF
PUSHB_1
 2
FDEF
MPPEM
GT
IF
RCVT
SWAP
EIF
POP
ENDF
PUSHB_1
 3
FDEF
ROUND[Black]
RTG
DUP
PUSHB_1
 64
LT
IF
POP
PUSHB_1
 64
EIF
ENDF
PUSHB_1
 4
FDEF
PUSHB_1
 6
CALL
IF
POP
SWAP
POP
ROFF
IF
MDRP[rp0,min,rnd,black]
ELSE
MDRP[min,rnd,black]
EIF
ELSE
MPPEM
GT
IF
IF

StartChar: A
Encoding: 65 65 0
Width: 755
VWidth: 1000
Flags: W
HStem: -5 57<30 115.871 186.325 264 402 483 639 725> 177 57<247 419> 683 20G<369.5 383.5>
LayerCount: 2
Fore
SplineSet
420 674 m 2,0,-1
 639 52 l 1,1,-1
 725 52 l 1,2,-1
 725 -5 l 1,3,-1
 720 -5 l 2,4,5
 684 -2 684 -2 570 -2 c 0,6,7
 443 -2 443 -2 407 -5 c 2,8,-1
 402 -5 l 1,9,-1
 402 52 l 1,10,-1
 483 52 l 1,11,-1
 439 177 l 1,12,-1
 228 177 l 1,13,-1
 190 69 l 1,14,-1
 186 59 l 1,15,16
 196 52 196 52 259 52 c 2,17,-1
 264 52 l 1,18,-1
 264 -5 l 1,19,-1
 259 -5 l 2,20,21
 187 -2 187 -2 141 -2 c 0,22,23
 122 -2 122 -2 35 -5 c 2,24,-1
 30 -5 l 1,25,-1
 30 52 l 1,26,-1
 35 52 l 2,27,28
 73 52 73 52 92.5 54 c 128,-1,29
 112 56 112 56 116 59 c 128,-1,30
 120 62 120 62 123 72 c 2,31,-1
 335 674 l 2,32,33
 342 694 342 694 352 698 c 0,34,35
 361 703 361 703 378 703 c 0,36,37
 389 703 389 703 395 702 c 128,-1,38
 401 701 401 701 409 694 c 0,39,40
 416 687 416 687 420 674 c 2,0,-1
333 478 m 1,41,-1
 247 234 l 1,42,-1
 419 234 l 1,43,-1
 333 478 l 1,41,-1
EndSplineSet
Validated: 19457
EndChar

StartChar: B
Encoding: 66 66 1
Width: 711
VWidth: 1000
Flags: W
HStem: -5 57<29 123 264 463.742> 334 46<264 441.497> 634 57<29 123 264 452.676>
VStem: 123 141<52 334 380 634> 480 152<434.565 597.303> 502 157<95.8502 271.154>
LayerCount: 2
Fore
SplineSet
29 691 m 1,0,-1
 412 691 l 2,1,2
 517 691 517 691 574 640 c 0,3,4
 632 589 632 589 632 514 c 0,5,6
 632 455 632 455 592 412 c 0,7,8
 559 377 559 377 504 360 c 1,9,10
 573 346 573 346 613 303 c 0,11,12
 659 254 659 254 659 186 c 0,13,14
 659 106 659 106 601.5 50.5 c 128,-1,15
 544 -5 544 -5 438 -5 c 2,16,-1
 29 -5 l 1,17,-1
 29 52 l 1,18,-1
 123 52 l 1,19,-1
 123 634 l 1,20,-1
 29 634 l 1,21,-1
 29 691 l 1,0,-1
264 380 m 1,22,-1
 376 380 l 2,23,24
 430 380 430 380 455 417 c 0,25,26
 480 455 480 455 480 514 c 0,27,28
 480 634 480 634 399 634 c 2,29,-1
 264 634 l 1,30,-1
 264 380 l 1,22,-1
264 52 m 1,31,-1
 401 52 l 2,32,33
 455 52 455 52 481 95 c 0,34,35
 502 131 502 131 502 188 c 0,36,37
 502 251 502 251 482 290 c 1,38,39
 460 334 460 334 411 334 c 2,40,-1
 264 334 l 1,41,-1
 264 52 l 1,31,-1
EndSplineSet
Validated: 19457
EndChar

StartChar: C
Encoding: 67 67 2
Width: 722
VWidth: 1000
Flags: W
HStem: -16 57<328.543 514.25> 645 57<328.423 503.882>
VStem: 51 163<202.646 483.962> 613 57<141.756 248.841>
LayerCount: 2
Fore
SplineSet
670 669 m 2,0,-1
 670 454 l 2,1,2
 670 432 670 432 664.5 426.5 c 128,-1,3
 659 421 659 421 638 421 c 0,4,5
 628 421 628 421 623 422 c 0,6,7
 617 423 617 423 612.5 427.5 c 128,-1,8
 608 432 608 432 607 441 c 0,9,10
 592 542 592 542 541 594 c 0,11,12
 490 645 490 645 426 645 c 0,13,14
 318 645 318 645 260 565 c 0,15,16
 239 536 239 536 228 491 c 128,-1,17
 217 446 217 446 215 418 c 0,18,19
 214 389 214 389 214 343 c 0,20,21
 214 267 214 267 222 219 c 128,-1,22
 230 171 230 171 254 131 c 0,23,24
 280 88 280 88 327 64 c 0,25,26
 374 41 374 41 428 41 c 0,27,28
 497 41 497 41 552.5 90.5 c 128,-1,29
 608 140 608 140 613 231 c 0,30,31
 614 246 614 246 622 250 c 0,32,33
 628 253 628 253 641 253 c 0,34,35
 657 253 657 253 663 249 c 0,36,37
 670 244 670 244 670 227 c 0,38,39
 670 137 670 137 597.5 60.5 c 128,-1,40
 525 -16 525 -16 408 -16 c 0,41,42
 251 -16 251 -16 151 80.5 c 128,-1,43
 51 177 51 177 51 343 c 0,44,45
 51 510 51 510 152 606 c 128,-1,46
 253 702 253 702 407 702 c 0,47,48
 498 702 498 702 570 642 c 1,49,-1
 625 692 l 2,50,51
 636 702 636 702 647 702 c 0,52,53
 662 702 662 702 666 694 c 0,54,55
 670 687 670 687 670 669 c 2,0,-1
EndSplineSet
Validated: 19457
EndChar

StartChar: D
Encoding: 68 68 3
Width: 766
VWidth: 1000
Flags: W
HStem: -5 57<29 123 269 465.015> 634 57<29 123 269 461.668>
VStem: 123 146<52 634> 558 157<192.794 486.101>
LayerCount: 2
Fore
SplineSet
29 691 m 1,0,-1
 406 691 l 2,1,2
 538 691 538 691 626.5 598.5 c 128,-1,3
 715 506 715 506 715 337 c 0,4,5
 715 175 715 175 627 85 c 128,-1,6
 539 -5 539 -5 406 -5 c 2,7,-1
 29 -5 l 1,8,-1
 29 52 l 1,9,-1
 123 52 l 1,10,-1
 123 634 l 1,11,-1
 29 634 l 1,12,-1
 29 691 l 1,0,-1
269 52 m 1,13,-1
 365 52 l 2,14,15
 479 52 479 52 527 134 c 1,16,17
 558 192 558 192 558 337 c 0,18,19
 558 491 558 491 527 547 c 0,20,21
 479 634 479 634 364 634 c 2,22,-1
 269 634 l 1,23,-1
 269 52 l 1,13,-1
EndSplineSet
Validated: 19457
EndChar

StartChar: E
Encoding: 69 69 4
Width: 655
VWidth: 1000
Flags: W
HStem: -5 57<29 123 275 482.717> 324 57<275 364.974> 628 57<29 123 275 473.876>
VStem: 123 152<52 324 381 628> 382 57<207 308.154 397.459 498>
LayerCount: 2
Fore
SplineSet
633 279 m 1,0,-1
 585 -5 l 1,1,-1
 29 -5 l 1,2,-1
 29 52 l 1,3,-1
 123 52 l 1,4,-1
 123 628 l 1,5,-1
 29 628 l 1,6,-1
 29 685 l 1,7,-1
 572 685 l 1,8,-1
 605 434 l 1,9,-1
 548 434 l 1,10,-1
 547 438 l 2,11,12
 541 480 541 480 537 502 c 0,13,14
 533 523 533 523 521 553 c 0,15,16
 510 581 510 581 493 594 c 128,-1,17
 476 607 476 607 444.5 617.5 c 128,-1,18
 413 628 413 628 369 628 c 2,19,-1
 275 628 l 1,20,-1
 275 381 l 1,21,-1
 292 381 l 2,22,23
 351 381 351 381 366 405 c 0,24,25
 382 430 382 430 382 493 c 2,26,-1
 382 498 l 1,27,-1
 439 498 l 1,28,-1
 439 207 l 1,29,-1
 382 207 l 1,30,-1
 382 212 l 2,31,32
 382 245 382 245 380 261 c 128,-1,33
 378 277 378 277 370 295 c 0,34,35
 362 311 362 311 343 317 c 0,36,37
 324 324 324 324 292 324 c 2,38,-1
 275 324 l 1,39,-1
 275 52 l 1,40,-1
 373 52 l 2,41,42
 413 52 413 52 443 59 c 0,43,44
 472 66 472 66 493 81 c 0,45,46
 514 97 514 97 527 114 c 0,47,48
 540 130 540 130 549 160 c 0,49,50
 559 190 559 190 564 212.5 c 128,-1,51
 569 235 569 235 575 275 c 2,52,-1
 576 279 l 1,53,-1
 633 279 l 1,0,-1
EndSplineSet
Validated: 19457
EndChar

StartChar: F
Encoding: 70 70 5
Width: 627
VWidth: 1000
Flags: W
HStem: -5 57<29 123 275 393> 312 57<275 360.02> 628 57<29 123 275 465.288>
VStem: 123 152<52 312 369 628> 376 57<195 296.156 384.844 486> 527 64<434 488.52>
LayerCount: 2
Fore
SplineSet
558 685 m 1,0,-1
 591 434 l 1,1,-1
 534 434 l 1,2,-1
 533 438 l 2,3,4
 529 468 529 468 527 484 c 128,-1,5
 525 500 525 500 518 524 c 0,6,7
 512 547 512 547 505.5 559.5 c 128,-1,8
 499 572 499 572 486 588 c 0,9,10
 473 603 473 603 457 610 c 0,11,12
 440 617 440 617 415.5 622.5 c 128,-1,13
 391 628 391 628 360 628 c 2,14,-1
 275 628 l 1,15,-1
 275 369 l 1,16,-1
 287 369 l 2,17,18
 346 369 346 369 361 393 c 0,19,20
 376 418 376 418 376 481 c 2,21,-1
 376 486 l 1,22,-1
 433 486 l 1,23,-1
 433 195 l 1,24,-1
 376 195 l 1,25,-1
 376 200 l 2,26,27
 376 264 376 264 361 288 c 128,-1,28
 346 312 346 312 287 312 c 2,29,-1
 275 312 l 1,30,-1
 275 52 l 1,31,-1
 393 52 l 1,32,-1
 393 -5 l 1,33,-1
 388 -5 l 2,34,35
 347 -2 347 -2 203 -2 c 0,36,37
 69 -2 69 -2 34 -5 c 2,38,-1
 29 -5 l 1,39,-1
 29 52 l 1,40,-1
 123 52 l 1,41,-1
 123 628 l 1,42,-1
 29 628 l 1,43,-1
 29 685 l 1,44,-1
 558 685 l 1,0,-1
EndSplineSet
Validated: 19457
EndChar

StartChar: G
Encoding: 71 71 6
Width: 786
VWidth: 1000
Flags: W
HStem: -16 57<332.415 492.037> -5 21G<648 661.5> 224 57<394 519 671 740> 645 57<328.887 504.462>
VStem: 51 163<202.558 483.472> 519 152<67.7656 224>
LayerCount: 2
Fore
SplineSet
671 224 m 1,0,-1
 671 28 l 2,1,2
 671 -5 671 -5 652 -5 c 0,3,4
 644 -5 644 -5 607 13 c 0,5,6
 575 29 575 29 556 45 c 1,7,8
 539 23 539 23 504 5 c 0,9,10
 466 -16 466 -16 408 -16 c 0,11,12
 253 -16 253 -16 152 80 c 128,-1,13
 51 176 51 176 51 343 c 0,14,15
 51 509 51 509 151.5 605.5 c 128,-1,16
 252 702 252 702 408 702 c 0,17,18
 500 702 500 702 571 642 c 1,19,-1
 626 692 l 2,20,21
 637 702 637 702 648 702 c 0,22,23
 663 702 663 702 667 694 c 0,24,25
 671 687 671 687 671 669 c 2,26,-1
 671 454 l 2,27,28
 671 432 671 432 665.5 426.5 c 128,-1,29
 660 421 660 421 639 421 c 0,30,31
 629 421 629 421 624 422 c 0,32,33
 618 423 618 423 613.5 427.5 c 128,-1,34
 609 432 609 432 608 441 c 0,35,36
 593 543 593 543 541 594 c 128,-1,37
 489 645 489 645 427 645 c 0,38,39
 312 645 312 645 253 554 c 0,40,41
 214 493 214 493 214 343 c 0,42,43
 214 195 214 195 254 131 c 0,44,45
 285 82 285 82 334 62 c 0,46,47
 383 41 383 41 429 41 c 0,48,49
 447 41 447 41 466 46 c 0,50,51
 484 51 484 51 501 73 c 0,52,53
 519 94 519 94 519 128 c 2,54,-1
 519 224 l 1,55,-1
 394 224 l 1,56,-1
 394 281 l 1,57,-1
 399 281 l 2,58,59
 443 278 443 278 586 278 c 0,60,61
 698 278 698 278 735 281 c 2,62,-1
 740 281 l 1,63,-1
 740 224 l 1,64,-1
 671 224 l 1,0,-1
EndSplineSet
Validated: 19457
EndChar

StartChar: H
Encoding: 72 72 7
Width: 783
VWidth: 1000
Flags: W
HStem: -5 57<29 123 275 369 413 507 659 753> 328 57<275 507> 634 57<29 123 275 369 413 507 659 753>
VStem: 123 152<52 328 385 634> 507 152<52 328 385 634>
LayerCount: 2
Fore
SplineSet
659 634 m 1,0,-1
 659 52 l 1,1,-1
 753 52 l 1,2,-1
 753 -5 l 1,3,-1
 748 -5 l 2,4,5
 713 -2 713 -2 583 -2 c 128,-1,6
 453 -2 453 -2 418 -5 c 2,7,-1
 413 -5 l 1,8,-1
 413 52 l 1,9,-1
 507 52 l 1,10,-1
 507 328 l 1,11,-1
 275 328 l 1,12,-1
 275 52 l 1,13,-1
 369 52 l 1,14,-1
 369 -5 l 1,15,-1
 364 -5 l 2,16,17
 329 -2 329 -2 199 -2 c 128,-1,18
 69 -2 69 -2 34 -5 c 2,19,-1
 29 -5 l 1,20,-1
 29 52 l 1,21,-1
 123 52 l 1,22,-1
 123 634 l 1,23,-1
 29 634 l 1,24,-1
 29 691 l 1,25,-1
 34 691 l 2,26,27
 69 688 69 688 199 688 c 128,-1,28
 329 688 329 688 364 691 c 2,29,-1
 369 691 l 1,30,-1
 369 634 l 1,31,-1
 275 634 l 1,32,-1
 275 385 l 1,33,-1
 507 385 l 1,34,-1
 507 634 l 1,35,-1
 413 634 l 1,36,-1
 413 691 l 1,37,-1
 418 691 l 2,38,39
 453 688 453 688 583 688 c 128,-1,40
 713 688 713 688 748 691 c 2,41,-1
 753 691 l 1,42,-1
 753 634 l 1,43,-1
 659 634 l 1,0,-1
EndSplineSet
Validated: 19457
EndChar

StartChar: I
Encoding: 73 73 8
Width: 397
VWidth: 1000
Flags: W
HStem: -5 57<23 122 274 373> 634 57<23 122 274 373>
VStem: 122 152<52 634>
LayerCount: 2
Fore
SplineSet
274 634 m 1,0,-1
 274 52 l 1,1,-1
 373 52 l 1,2,-1
 373 -5 l 1,3,-1
 368 -5 l 2,4,5
 332 -2 332 -2 198 -2 c 128,-1,6
 64 -2 64 -2 28 -5 c 2,7,-1
 23 -5 l 1,8,-1
 23 52 l 1,9,-1
 122 52 l 1,10,-1
 122 634 l 1,11,-1
 23 634 l 1,12,-1
 23 691 l 1,13,-1
 28 691 l 2,14,15
 64 688 64 688 198 688 c 128,-1,16
 332 688 332 688 368 691 c 2,17,-1
 373 691 l 1,18,-1
 373 634 l 1,19,-1
 274 634 l 1,0,-1
EndSplineSet
Validated: 19457
EndChar

StartChar: J
Encoding: 74 74 9
Width: 516
VWidth: 1000
Flags: W
HStem: -16 46<116.206 219.643> 634 57<124 247 393 464>
VStem: -5 163<58.584 172.184> 247 146<68.3613 634>
LayerCount: 2
Fore
SplineSet
393 634 m 1,0,-1
 393 149 l 2,1,2
 393 71 393 71 332 27 c 0,3,4
 272 -16 272 -16 176 -16 c 0,5,6
 97 -16 97 -16 47 20 c 0,7,8
 -5 56 -5 56 -5 114 c 0,9,10
 -5 153 -5 153 20 175 c 0,11,12
 44 196 44 196 77 196 c 0,13,14
 108 196 108 196 133 175 c 128,-1,15
 158 154 158 154 158 114 c 0,16,17
 158 91 158 91 146 72 c 0,18,19
 134 54 134 54 124 46 c 0,20,21
 119 43 119 43 115 41 c 1,22,23
 141 30 141 30 171 30 c 0,24,25
 204 30 204 30 225 58 c 0,26,27
 247 86 247 86 247 147 c 2,28,-1
 247 634 l 1,29,-1
 124 634 l 1,30,-1
 124 691 l 1,31,-1
 129 691 l 2,32,33
 170 688 170 688 312 688 c 0,34,35
 422 688 422 688 459 691 c 2,36,-1
 464 691 l 1,37,-1
 464 634 l 1,38,-1
 393 634 l 1,0,-1
EndSplineSet
Validated: 19457
EndChar

StartChar: K
Encoding: 75 75 10
Width: 783
VWidth: 1000
Flags: W
HStem: -5 57<29 123 275 369 443 506.709 669.096 746> 634 57<29 123 275 369 500 560.279 656.479 732>
VStem: 123 152<52 264 344 634>
LayerCount: 2
Fore
SplineSet
435 422 m 1,0,-1
 661 69 l 2,1,2
 666 62 666 62 669 58 c 0,3,4
 672 55 672 55 683 54 c 0,5,6
 695 52 695 52 718 52 c 2,7,-1
 746 52 l 1,8,-1
 746 -5 l 1,9,-1
 741 -5 l 2,10,11
 698 -2 698 -2 607 -2 c 0,12,13
 483 -2 483 -2 448 -5 c 2,14,-1
 443 -5 l 1,15,-1
 443 52 l 1,16,-1
 448 52 l 2,17,18
 498 52 498 52 507 58 c 1,19,20
 506 61 506 61 502 66 c 0,21,-1
 337 325 l 1,22,-1
 275 264 l 1,23,-1
 275 52 l 1,24,-1
 369 52 l 1,25,-1
 369 -5 l 1,26,-1
 364 -5 l 2,27,28
 329 -2 329 -2 199 -2 c 128,-1,29
 69 -2 69 -2 34 -5 c 2,30,-1
 29 -5 l 1,31,-1
 29 52 l 1,32,-1
 123 52 l 1,33,-1
 123 634 l 1,34,-1
 29 634 l 1,35,-1
 29 691 l 1,36,-1
 34 691 l 2,37,38
 69 688 69 688 199 688 c 128,-1,39
 329 688 329 688 364 691 c 2,40,-1
 369 691 l 1,41,-1
 369 634 l 1,42,-1
 275 634 l 1,43,-1
 275 344 l 1,44,-1
 556 622 l 2,45,46
 557 623 557 623 561 627 c 1,47,48
 538 634 538 634 505 634 c 2,49,-1
 500 634 l 1,50,-1
 500 691 l 1,51,-1
 505 691 l 2,52,53
 542 688 542 688 635 688 c 0,54,55
 682 688 682 688 727 691 c 2,56,-1
 732 691 l 1,57,-1
 732 634 l 1,58,-1
 727 634 l 2,59,60
 671 634 671 634 656 629 c 0,61,62
 642 624 642 624 620 604 c 2,63,-1
 435 422 l 1,0,-1
EndSplineSet
Validated: 19457
EndChar

StartChar: L
Encoding: 76 76 11
Width: 600
VWidth: 1000
Flags: W
HStem: -5 57<29 123 275 420.711> 634 57<29 123 275 393>
VStem: 123 152<52 634> 505 58<217.312 279>
LayerCount: 2
Fore
SplineSet
563 279 m 1,0,-1
 530 -5 l 1,1,-1
 29 -5 l 1,2,-1
 29 52 l 1,3,-1
 123 52 l 1,4,-1
 123 634 l 1,5,-1
 29 634 l 1,6,-1
 29 691 l 1,7,-1
 34 691 l 2,8,9
 69 688 69 688 203 688 c 0,10,11
 347 688 347 688 388 691 c 2,12,-1
 393 691 l 1,13,-1
 393 634 l 1,14,-1
 275 634 l 1,15,-1
 275 52 l 1,16,-1
 336 52 l 2,17,18
 371 52 371 52 399 63 c 0,19,20
 426 74 426 74 443 94 c 0,21,22
 460 115 460 115 472 136 c 0,23,24
 484 156 484 156 491 185 c 0,25,26
 497 215 497 215 500 232.5 c 128,-1,27
 503 250 503 250 505 274 c 2,28,-1
 505 279 l 1,29,-1
 563 279 l 1,0,-1
EndSplineSet
Validated: 19457
EndChar

StartChar: M
Encoding: 77 77 12
Width: 950
VWidth: 1000
Flags: W
HStem: -5 57<29 120.873 188.097 280 597 691 826 920> 634 57<29 123 826 920>
VStem: 123 63<59.1272 588> 691 135<52 604>
LayerCount: 2
Fore
SplineSet
475 172 m 1,0,-1
 661 663 l 2,1,2
 668 682 668 682 678 686 c 0,3,4
 687 691 687 691 707 691 c 2,5,-1
 920 691 l 1,6,-1
 920 634 l 1,7,-1
 826 634 l 1,8,-1
 826 52 l 1,9,-1
 920 52 l 1,10,-1
 920 -5 l 1,11,-1
 915 -5 l 2,12,13
 880 -2 880 -2 758 -2 c 0,14,15
 637 -2 637 -2 602 -5 c 2,16,-1
 597 -5 l 1,17,-1
 597 52 l 1,18,-1
 691 52 l 1,19,-1
 691 604 l 1,20,-1
 470 23 l 2,21,22
 466 14 466 14 464 11 c 0,23,24
 462 6 462 6 454.5 0.5 c 128,-1,25
 447 -5 447 -5 436 -5 c 0,26,27
 424 -5 424 -5 417 -0 c 128,-1,28
 410 5 410 5 407 9 c 0,29,30
 404 14 404 14 401 23 c 2,31,-1
 186 588 l 1,32,-1
 186 76 l 2,33,34
 186 62 186 62 188 59 c 1,35,36
 191 57 191 57 207 55 c 0,37,38
 228 52 228 52 255 52 c 2,39,-1
 280 52 l 1,40,-1
 280 -5 l 1,41,-1
 275 -5 l 2,42,43
 167 -2 167 -2 154 -2 c 0,44,45
 145 -2 145 -2 34 -5 c 2,46,-1
 29 -5 l 1,47,-1
 29 52 l 1,48,-1
 54 52 l 2,49,50
 82 52 82 52 103 55 c 0,51,52
 117 57 117 57 121 59 c 1,53,54
 123 63 123 63 123 76 c 2,55,-1
 123 634 l 1,56,-1
 29 634 l 1,57,-1
 29 691 l 1,58,-1
 243 691 l 2,59,60
 264 691 264 691 272.5 685.5 c 128,-1,61
 281 680 281 680 289 662 c 2,62,-1
 475 172 l 1,0,-1
EndSplineSet
Validated: 19457
EndChar

StartChar: N
Encoding: 78 78 13
Width: 783
VWidth: 1000
Flags: W
HStem: -5 57<29 120.873 188.097 280> 634 57<29 123 502 593.903 661.127 753>
VStem: 123 63<59.1272 574> 596 63<240 626.873>
LayerCount: 2
Fore
SplineSet
281 674 m 2,0,-1
 596 240 l 1,1,-1
 596 610 l 2,2,3
 596 624 596 624 594 627 c 1,4,5
 591 629 591 629 575 631 c 0,6,7
 554 634 554 634 527 634 c 2,8,-1
 502 634 l 1,9,-1
 502 691 l 1,10,-1
 507 691 l 2,11,12
 615 688 615 688 628 688 c 0,13,14
 637 688 637 688 748 691 c 2,15,-1
 753 691 l 1,16,-1
 753 634 l 1,17,-1
 728 634 l 2,18,19
 700 634 700 634 679 631 c 0,20,21
 665 629 665 629 661 627 c 1,22,23
 659 623 659 623 659 610 c 2,24,-1
 659 32 l 2,25,26
 659 10 659 10 654 3 c 0,27,28
 649 -5 649 -5 627 -5 c 0,29,30
 606 -5 606 -5 596 10 c 2,31,-1
 186 574 l 1,32,-1
 186 76 l 2,33,34
 186 62 186 62 188 59 c 1,35,36
 191 57 191 57 207 55 c 0,37,38
 228 52 228 52 255 52 c 2,39,-1
 280 52 l 1,40,-1
 280 -5 l 1,41,-1
 275 -5 l 2,42,43
 167 -2 167 -2 154 -2 c 0,44,45
 145 -2 145 -2 34 -5 c 2,46,-1
 29 -5 l 1,47,-1
 29 52 l 1,48,-1
 54 52 l 2,49,50
 82 52 82 52 103 55 c 0,51,52
 117 57 117 57 121 59 c 1,53,54
 123 63 123 63 123 76 c 2,55,-1
 123 634 l 1,56,-1
 29 634 l 1,57,-1
 29 691 l 1,58,-1
 242 691 l 2,59,60
 259 691 259 691 265 689 c 0,61,62
 272 686 272 686 281 674 c 2,0,-1
EndSplineSet
Validated: 19457
EndChar

StartChar: O
Encoding: 79 79 14
Width: 750
VWidth: 1000
Flags: W
HStem: -16 52<305.899 443.217> 652 50<302.143 445.933>
VStem: 51 163<193.482 487.136> 535 163<193.231 488.998>
LayerCount: 2
Fore
SplineSet
698 339 m 0,0,1
 698 173 698 173 607.5 78.5 c 128,-1,2
 517 -16 517 -16 374 -16 c 0,3,4
 235 -16 235 -16 143 77.5 c 128,-1,5
 51 171 51 171 51 339 c 0,6,7
 51 509 51 509 142 605.5 c 128,-1,8
 233 702 233 702 375 702 c 0,9,10
 514 702 514 702 606 606.5 c 128,-1,11
 698 511 698 511 698 339 c 0,0,1
375 36 m 0,12,13
 415 36 415 36 451 63 c 128,-1,14
 487 90 487 90 505 136 c 0,15,16
 525 184 525 184 530 232 c 128,-1,17
 535 280 535 280 535 353 c 0,18,19
 535 487 535 487 508 551 c 0,20,21
 488 600 488 600 452 626 c 128,-1,22
 416 652 416 652 374 652 c 0,23,24
 336 652 336 652 300 629 c 128,-1,25
 264 606 264 606 242 555 c 0,26,27
 214 491 214 491 214 353 c 0,28,29
 214 203 214 203 246 132 c 0,30,31
 265 88 265 88 299 62 c 128,-1,32
 333 36 333 36 375 36 c 0,12,13
EndSplineSet
Validated: 19457
EndChar

StartChar: P
Encoding: 80 80 15
Width: 683
VWidth: 1000
Flags: W
HStem: -5 57<29 123 275 369> 297 51<275 440.407> 634 57<29 123 269 438.924>
VStem: 123 146<52 297 348 634> 468 163<400.126 582.055>
LayerCount: 2
Fore
SplineSet
275 297 m 1,0,-1
 275 52 l 1,1,-1
 369 52 l 1,2,-1
 369 -5 l 1,3,-1
 364 -5 l 2,4,5
 329 -2 329 -2 199 -2 c 128,-1,6
 69 -2 69 -2 34 -5 c 2,7,-1
 29 -5 l 1,8,-1
 29 52 l 1,9,-1
 123 52 l 1,10,-1
 123 634 l 1,11,-1
 29 634 l 1,12,-1
 29 691 l 1,13,-1
 393 691 l 2,14,15
 503 691 503 691 567 635 c 128,-1,16
 631 579 631 579 631 491 c 0,17,18
 631 402 631 402 565 349 c 0,19,20
 500 297 500 297 402 297 c 2,21,-1
 275 297 l 1,0,-1
269 634 m 1,22,-1
 269 348 l 1,23,-1
 352 348 l 2,24,25
 386 348 386 348 409 355.5 c 128,-1,26
 432 363 432 363 444 373 c 0,27,28
 455 382 455 382 460 404 c 0,29,30
 466 427 466 427 467 442 c 0,31,32
 468 458 468 458 468 491 c 0,33,34
 468 525 468 525 467 541 c 128,-1,35
 466 557 466 557 460 579 c 0,36,37
 454 600 454 600 444 609 c 0,38,39
 433 618 433 618 409.5 626 c 128,-1,40
 386 634 386 634 352 634 c 2,41,-1
 269 634 l 1,22,-1
EndSplineSet
Validated: 19457
EndChar

StartChar: Q
Encoding: 81 81 16
Width: 750
VWidth: 1000
Flags: W
HStem: -199 163<542.498 644.026> -16 50<331.211 439.074> 114 46<337.663 421.519> 652 50<302.487 445.782>
VStem: 51 157<193.218 487.401> 282 46<71.0115 101.109> 541 157<195.377 487.677> 658 46<-28.5527 22.9919>
LayerCount: 2
Fore
SplineSet
521 16 m 1,0,1
 534 -7 534 -7 548 -19 c 0,2,3
 563 -32 563 -32 571 -34 c 128,-1,4
 579 -36 579 -36 592 -36 c 0,5,6
 653 -36 653 -36 658 -2 c 0,7,8
 662 23 662 23 681 23 c 0,9,10
 704 23 704 23 704 -10 c 0,11,12
 704 -30 704 -30 700 -55.5 c 128,-1,13
 696 -81 696 -81 685 -116 c 0,14,15
 674 -152 674 -152 646 -175 c 0,16,17
 618 -199 618 -199 578 -199 c 0,18,19
 549 -199 549 -199 528 -187 c 0,20,21
 507 -176 507 -176 494 -160.5 c 128,-1,22
 481 -145 481 -145 473 -114 c 0,23,24
 464 -84 464 -84 460 -63 c 0,25,26
 456 -44 456 -44 452 -8 c 1,27,28
 425 -16 425 -16 375 -16 c 0,29,30
 233 -16 233 -16 142 78 c 128,-1,31
 51 172 51 172 51 339 c 0,32,33
 51 509 51 509 142 605.5 c 128,-1,34
 233 702 233 702 375 702 c 0,35,36
 514 702 514 702 606 606.5 c 128,-1,37
 698 511 698 511 698 339 c 0,38,39
 698 297 698 297 691 256 c 128,-1,40
 684 215 684 215 666 168 c 128,-1,41
 648 121 648 121 609 80 c 0,42,43
 573 41 573 41 521 16 c 1,0,1
282 71 m 1,44,45
 282 72 282 72 282 73 c 0,46,47
 282 109 282 109 309 134.5 c 128,-1,48
 336 160 336 160 375 160 c 0,49,50
 438 160 438 160 482 86 c 1,51,52
 508 115 508 115 522 164 c 0,53,54
 537 217 537 217 539 252 c 0,55,56
 541 286 541 286 541 340 c 0,57,58
 541 474 541 474 515 540 c 0,59,60
 493 597 493 597 454.5 624.5 c 128,-1,61
 416 652 416 652 374 652 c 0,62,63
 336 652 336 652 295.5 625.5 c 128,-1,64
 255 599 255 599 231 532 c 0,65,66
 208 468 208 468 208 340 c 0,67,68
 208 292 208 292 210.5 260 c 128,-1,69
 213 228 213 228 220 187 c 0,70,71
 227 147 227 147 245 116 c 0,72,73
 260 90 260 90 282 71 c 1,44,45
440 51 m 1,74,75
 424 114 424 114 376 114 c 0,76,77
 354 114 354 114 341 101.5 c 128,-1,78
 328 89 328 89 328 73 c 0,79,80
 328 66 328 66 330 58 c 0,81,82
 332 51 332 51 343.5 42.5 c 128,-1,83
 355 34 355 34 375 34 c 0,84,85
 410 34 410 34 440 51 c 1,74,75
EndSplineSet
Validated: 19457
EndChar

StartChar: R
Encoding: 82 82 17
Width: 759
VWidth: 1000
Flags: W
HStem: -16 46<628.291 689.627> -5 57<29 123 269 363> 320 46<269 408.669> 634 57<29 123 269 443.874>
VStem: 123 146<52 320 366 634> 476 163<424.666 581.613> 704 57<46.5347 114.556>
LayerCount: 2
Fore
SplineSet
496 338 m 1,0,1
 575 299 575 299 590 220 c 0,2,3
 591 216 591 216 600 146 c 0,4,5
 604 115 604 115 607 99.5 c 128,-1,6
 610 84 610 84 616 64 c 0,7,8
 622 45 622 45 632 37.5 c 128,-1,9
 642 30 642 30 657 30 c 0,10,11
 676 30 676 30 688 46 c 0,12,13
 701 63 701 63 704 94 c 0,14,15
 705 109 705 109 711 115 c 0,16,17
 717 122 717 122 732 122 c 0,18,19
 761 122 761 122 761 94 c 0,20,21
 761 85 761 85 757 71 c 128,-1,22
 753 57 753 57 745 36 c 0,23,24
 735 14 735 14 710 -1 c 128,-1,25
 685 -16 685 -16 650 -16 c 0,26,27
 480 -16 480 -16 446 78 c 0,28,29
 439 101 439 101 439 169 c 0,30,31
 439 222 439 222 436 243 c 0,32,33
 433 263 433 263 420 284 c 0,34,35
 397 320 397 320 350 320 c 2,36,-1
 269 320 l 1,37,-1
 269 52 l 1,38,-1
 363 52 l 1,39,-1
 363 -5 l 1,40,-1
 358 -5 l 2,41,42
 323 -2 323 -2 196 -2 c 128,-1,43
 69 -2 69 -2 34 -5 c 2,44,-1
 29 -5 l 1,45,-1
 29 52 l 1,46,-1
 123 52 l 1,47,-1
 123 634 l 1,48,-1
 29 634 l 1,49,-1
 29 691 l 1,50,-1
 367 691 l 2,51,52
 493 691 493 691 565 637 c 0,53,54
 639 582 639 582 639 500 c 0,55,56
 639 444 639 444 597 398 c 0,57,58
 559 357 559 357 496 338 c 1,0,1
344 366 m 2,59,60
 383 366 383 366 409.5 374 c 128,-1,61
 436 382 436 382 448 393 c 0,62,63
 460 403 460 403 467 424 c 128,-1,64
 474 445 474 445 475 458 c 0,65,66
 476 472 476 472 476 500 c 0,67,68
 476 535 476 535 474 552 c 128,-1,69
 472 569 472 569 460 592 c 0,70,71
 449 614 449 614 422 624 c 0,72,73
 393 634 393 634 346 634 c 2,74,-1
 269 634 l 1,75,-1
 269 366 l 1,76,-1
 344 366 l 2,59,60
EndSplineSet
Validated: 19457
EndChar

StartChar: S
Encoding: 83 83 18
Width: 555
VWidth: 1000
Flags: W
HStem: -16 57<198.106 365.571> 649 53<188.49 337.992>
VStem: 51 107<482.189 598.791> 51 57<123.007 225.809> 397 107<94.4098 228.649> 419 58<460.191 558.595>
LayerCount: 2
Fore
SplineSet
477 669 m 2,0,-1
 477 486 l 2,1,2
 477 466 477 466 473 460 c 0,3,4
 468 453 468 453 448 453 c 0,5,6
 435 453 435 453 428 457 c 128,-1,7
 421 461 421 461 419 474 c 0,8,9
 396 649 396 649 252 649 c 0,10,11
 203 649 203 649 181 619 c 0,12,13
 158 589 158 589 158 549 c 0,14,15
 158 515 158 515 175 489 c 128,-1,16
 192 463 192 463 218 454 c 0,17,18
 225 452 225 452 290 435 c 0,19,20
 342 422 342 422 365 415 c 128,-1,21
 388 408 388 408 413 391 c 0,22,23
 439 374 439 374 459 346 c 0,24,25
 504 285 504 285 504 203 c 0,26,27
 504 108 504 108 451 46 c 128,-1,28
 398 -16 398 -16 302 -16 c 0,29,30
 203 -16 203 -16 135 33 c 1,31,-1
 110 8 l 2,32,33
 92 -9 92 -9 88 -12 c 0,34,35
 83 -16 83 -16 74 -16 c 0,36,37
 59 -16 59 -16 55 -8 c 0,38,39
 51 -1 51 -1 51 17 c 2,40,-1
 51 199 l 2,41,42
 51 220 51 220 55 226 c 0,43,44
 60 233 60 233 80 233 c 0,45,46
 89 233 89 233 94 232 c 0,47,48
 100 231 100 231 103 226 c 0,49,50
 106 222 106 222 107 217 c 0,51,52
 108 213 108 213 108 205 c 0,53,54
 110 157 110 157 130.5 123 c 128,-1,55
 151 89 151 89 181 72 c 0,56,57
 212 55 212 55 241.5 48 c 128,-1,58
 271 41 271 41 301 41 c 0,59,60
 353 41 353 41 375 74 c 0,61,62
 397 108 397 108 397 153 c 0,63,64
 397 232 397 232 334 261 c 1,65,66
 315 267 315 267 267 278 c 1,67,68
 191 297 191 297 160 310 c 128,-1,69
 129 323 129 323 100 358 c 0,70,71
 51 418 51 418 51 497 c 0,72,73
 51 586 51 586 104.5 644 c 128,-1,74
 158 702 158 702 251 702 c 0,75,76
 334 702 334 702 394 654 c 1,77,-1
 418 678 l 2,78,79
 436 695 436 695 440 698 c 0,80,81
 445 702 445 702 454 702 c 0,82,83
 469 702 469 702 473 694 c 0,84,85
 477 687 477 687 477 669 c 2,0,-1
EndSplineSet
Validated: 19457
EndChar

StartChar: T
Encoding: 84 84 19
Width: 694
VWidth: 1000
Flags: W
HStem: -5 57<137 271 423 557> 623 57<139.376 271 423 551.328>
VStem: 31 57<429 514.675> 271 152<52 623> 605 57<429 514.675>
LayerCount: 2
Fore
SplineSet
641 680 m 1,0,-1
 662 429 l 1,1,-1
 605 429 l 1,2,-1
 605 434 l 2,3,4
 602 477 602 477 599 497 c 0,5,6
 596 518 596 518 587 548 c 0,7,8
 578 577 578 577 565 590 c 128,-1,9
 552 603 552 603 527 613 c 128,-1,10
 502 623 502 623 466 623 c 2,11,-1
 423 623 l 1,12,-1
 423 52 l 1,13,-1
 557 52 l 1,14,-1
 557 -5 l 1,15,-1
 552 -5 l 2,16,17
 504 -2 504 -2 347 -2 c 128,-1,18
 190 -2 190 -2 142 -5 c 2,19,-1
 137 -5 l 1,20,-1
 137 52 l 1,21,-1
 271 52 l 1,22,-1
 271 623 l 1,23,-1
 227 623 l 2,24,25
 201 623 201 623 180.5 617.5 c 128,-1,26
 160 612 160 612 146 605 c 0,27,28
 133 598 133 598 124 583 c 0,29,30
 114 567 114 567 107 555 c 0,31,32
 101 544 101 544 98 519 c 0,33,34
 94 494 94 494 92.5 479.5 c 128,-1,35
 91 465 91 465 88 434 c 2,36,-1
 88 429 l 1,37,-1
 31 429 l 1,38,-1
 52 680 l 1,39,-1
 641 680 l 1,0,-1
EndSplineSet
Validated: 19457
EndChar

StartChar: U
Encoding: 85 85 20
Width: 769
VWidth: 1000
Flags: W
HStem: -16 57<330.83 498.811> 634 57<29 123 275 369 488 579.903 647.127 739>
VStem: 123 152<126.037 634> 582 63<122.923 626.873>
LayerCount: 2
Fore
SplineSet
645 610 m 2,0,-1
 645 227 l 2,1,2
 645 122 645 122 581 53 c 128,-1,3
 517 -16 517 -16 404 -16 c 0,4,5
 275 -16 275 -16 199 53 c 128,-1,6
 123 122 123 122 123 229 c 2,7,-1
 123 634 l 1,8,-1
 29 634 l 1,9,-1
 29 691 l 1,10,-1
 34 691 l 2,11,12
 69 688 69 688 199 688 c 128,-1,13
 329 688 329 688 364 691 c 2,14,-1
 369 691 l 1,15,-1
 369 634 l 1,16,-1
 275 634 l 1,17,-1
 275 210 l 2,18,19
 275 41 275 41 408 41 c 0,20,21
 479 41 479 41 531 85 c 0,22,23
 582 129 582 129 582 230 c 2,24,-1
 582 610 l 2,25,26
 582 624 582 624 580 627 c 1,27,28
 577 629 577 629 561 631 c 0,29,30
 540 634 540 634 513 634 c 2,31,-1
 488 634 l 1,32,-1
 488 691 l 1,33,-1
 493 691 l 2,34,35
 601 688 601 688 614 688 c 0,36,37
 623 688 623 688 734 691 c 2,38,-1
 739 691 l 1,39,-1
 739 634 l 1,40,-1
 714 634 l 2,41,42
 686 634 686 634 665 631 c 0,43,44
 651 629 651 629 647 627 c 1,45,46
 645 623 645 623 645 610 c 2,0,-1
EndSplineSet
Validated: 19457
EndChar

StartChar: V
Encoding: 86 86 21
Width: 755
VWidth: 1000
Flags: W
HStem: -13 21G<366.5 384.5> 634 57<17 100 256 336 509 584.214 656.097 738>
LayerCount: 2
Fore
SplineSet
649 614 m 2,0,-1
 420 15 l 2,1,2
 416 4 416 4 412 -0 c 0,3,4
 408 -6 408 -6 400 -10 c 0,5,6
 392 -13 392 -13 377 -13 c 0,7,8
 356 -13 356 -13 348 -6 c 0,9,10
 340 0 340 0 335 15 c 2,11,-1
 100 634 l 1,12,-1
 17 634 l 1,13,-1
 17 691 l 1,14,-1
 22 691 l 2,15,16
 58 688 58 688 169 688 c 0,17,18
 295 688 295 688 331 691 c 2,19,-1
 336 691 l 1,20,-1
 336 634 l 1,21,-1
 256 634 l 1,22,-1
 422 198 l 1,23,-1
 585 626 l 1,24,25
 560 634 560 634 514 634 c 2,26,-1
 509 634 l 1,27,-1
 509 691 l 1,28,-1
 514 691 l 2,29,30
 598 688 598 688 631 688 c 128,-1,31
 664 688 664 688 733 691 c 2,32,-1
 738 691 l 1,33,-1
 738 634 l 1,34,-1
 733 634 l 2,35,36
 694 634 694 634 676 632 c 0,37,38
 659 630 659 630 656 626 c 0,39,40
 653 623 653 623 649 614 c 2,0,-1
EndSplineSet
Validated: 19457
EndChar

StartChar: W
Encoding: 87 87 22
Width: 1033
VWidth: 1000
Flags: W
HStem: -13 21G<330 353.5 683.5 701.5> 634 57<16 92 247 329 369 445 600 682 788 875.118 948.385 1016>
LayerCount: 2
Fore
SplineSet
301 16 m 2,0,-1
 92 634 l 1,1,-1
 16 634 l 1,2,-1
 16 691 l 1,3,-1
 21 691 l 2,4,5
 60 688 60 688 163 688 c 0,6,7
 288 688 288 688 324 691 c 2,8,-1
 329 691 l 1,9,-1
 329 634 l 1,10,-1
 247 634 l 1,11,-1
 387 221 l 1,12,-1
 486 515 l 1,13,-1
 445 634 l 1,14,-1
 369 634 l 1,15,-1
 369 691 l 1,16,-1
 374 691 l 2,17,18
 413 688 413 688 516 688 c 0,19,20
 641 688 641 688 677 691 c 2,21,-1
 682 691 l 1,22,-1
 682 634 l 1,23,-1
 600 634 l 1,24,-1
 740 221 l 1,25,-1
 876 625 l 1,26,27
 848 634 848 634 793 634 c 2,28,-1
 788 634 l 1,29,-1
 788 691 l 1,30,-1
 793 691 l 2,31,32
 834 688 834 688 915 688 c 0,33,34
 962 688 962 688 1011 691 c 2,35,-1
 1016 691 l 1,36,-1
 1016 634 l 1,37,-1
 1011 634 l 2,38,39
 960 634 960 634 948 630 c 0,40,41
 937 626 937 626 933 614 c 2,42,-1
 731 15 l 2,43,44
 727 1 727 1 718 -6 c 0,45,46
 710 -13 710 -13 693 -13 c 0,47,48
 674 -13 674 -13 667 -6 c 0,49,50
 660 0 660 0 654 16 c 2,51,-1
 516 425 l 1,52,-1
 378 15 l 2,53,54
 368 -13 368 -13 339 -13 c 0,55,56
 321 -13 321 -13 313 -6 c 128,-1,57
 305 1 305 1 301 16 c 2,0,-1
EndSplineSet
Validated: 19457
EndChar

StartChar: X
Encoding: 88 88 23
Width: 755
VWidth: 1000
Flags: W
HStem: -5 57<24 137.21 213.911 294 410 479 645 732> 634 57<37 124 290 359 419 500.089 581.16 689>
LayerCount: 2
Fore
SplineSet
569 614 m 2,0,-1
 432 401 l 1,1,-1
 645 52 l 1,2,-1
 732 52 l 1,3,-1
 732 -5 l 1,4,-1
 727 -5 l 2,5,6
 690 -2 690 -2 579 -2 c 0,7,8
 451 -2 451 -2 415 -5 c 2,9,-1
 410 -5 l 1,10,-1
 410 52 l 1,11,-1
 479 52 l 1,12,-1
 347 270 l 1,13,-1
 213 61 l 1,14,15
 242 52 242 52 289 52 c 2,16,-1
 294 52 l 1,17,-1
 294 -5 l 1,18,-1
 289 -5 l 2,19,20
 252 -2 252 -2 151 -2 c 0,21,22
 146 -2 146 -2 29 -5 c 2,23,-1
 24 -5 l 1,24,-1
 24 52 l 1,25,-1
 53 52 l 2,26,27
 113 52 113 52 138 61 c 1,28,-1
 310 329 l 1,29,-1
 124 634 l 1,30,-1
 37 634 l 1,31,-1
 37 691 l 1,32,-1
 42 691 l 2,33,34
 78 688 78 688 190 688 c 0,35,36
 318 688 318 688 354 691 c 2,37,-1
 359 691 l 1,38,-1
 359 634 l 1,39,-1
 290 634 l 1,40,-1
 395 460 l 1,41,-1
 497 619 l 1,42,-1
 501 625 l 1,43,44
 472 634 472 634 424 634 c 2,45,-1
 419 634 l 1,46,-1
 419 691 l 1,47,-1
 424 691 l 2,48,49
 460 688 460 688 562 688 c 0,50,51
 567 688 567 688 684 691 c 2,52,-1
 689 691 l 1,53,-1
 689 634 l 1,54,-1
 660 634 l 2,55,56
 630 634 630 634 607 631 c 0,57,58
 586 629 586 629 581 626.5 c 128,-1,59
 576 624 576 624 569 614 c 2,0,-1
EndSplineSet
Validated: 19457
EndChar

StartChar: Y
Encoding: 89 89 24
Width: 755
VWidth: 1000
Flags: W
HStem: -5 57<210 304 450 545> 634 57<11 98 267 338 513 579.277 654.644 744>
VStem: 304 146<52 273>
LayerCount: 2
Fore
SplineSet
646 616 m 2,0,-1
 450 273 l 1,1,-1
 450 52 l 1,2,-1
 545 52 l 1,3,-1
 545 -5 l 1,4,-1
 540 -5 l 2,5,6
 505 -2 505 -2 377 -2 c 0,7,8
 250 -2 250 -2 215 -5 c 2,9,-1
 210 -5 l 1,10,-1
 210 52 l 1,11,-1
 304 52 l 1,12,-1
 304 273 l 1,13,-1
 98 634 l 1,14,-1
 11 634 l 1,15,-1
 11 691 l 1,16,-1
 16 691 l 2,17,18
 52 688 52 688 166 688 c 0,19,20
 297 688 297 688 333 691 c 2,21,-1
 338 691 l 1,22,-1
 338 634 l 1,23,-1
 267 634 l 1,24,-1
 425 356 l 1,25,-1
 580 626 l 1,26,27
 557 634 557 634 518 634 c 2,28,-1
 513 634 l 1,29,-1
 513 691 l 1,30,-1
 518 691 l 2,31,32
 569 688 569 688 637 688 c 0,33,34
 670 688 670 688 739 691 c 2,35,-1
 744 691 l 1,36,-1
 744 634 l 1,37,-1
 739 634 l 2,38,39
 698 634 698 634 678 632 c 0,40,41
 659 630 659 630 654.5 627 c 128,-1,42
 650 624 650 624 646 616 c 2,0,-1
EndSplineSet
Validated: 19457
EndChar

StartChar: Z
Encoding: 90 90 25
Width: 611
VWidth: 1000
Flags: W
HStem: -5 61<223 423.902> 634 57<198.771 388>
VStem: 64 57<440 552.367> 508 57<171.923 289>
LayerCount: 2
Fore
SplineSet
551 635 m 2,0,-1
 223 56 l 1,1,-1
 314 56 l 2,2,3
 344 56 344 56 369 61 c 128,-1,4
 394 66 394 66 412 73 c 128,-1,5
 430 80 430 80 444 93 c 0,6,7
 459 106 459 106 468 118 c 0,8,9
 477 129 477 129 484 148 c 0,10,11
 491 168 491 168 495 180 c 0,12,13
 499 193 499 193 502 216 c 128,-1,14
 505 239 505 239 506 250 c 128,-1,15
 507 261 507 261 508 284 c 2,16,-1
 508 289 l 1,17,-1
 565 289 l 1,18,-1
 547 -5 l 1,19,-1
 88 -5 l 2,20,21
 75 -5 75 -5 69 -4 c 0,22,23
 62 -3 62 -3 56 5 c 0,24,25
 51 12 51 12 51 26 c 0,26,27
 51 41 51 41 59 54 c 2,28,-1
 388 634 l 1,29,-1
 303 634 l 2,30,31
 263 634 263 634 231 625 c 0,32,33
 200 616 200 616 182 599 c 0,34,35
 163 581 163 581 151 565 c 0,36,37
 139 548 139 548 133 523 c 0,38,39
 127 497 127 497 124.5 482 c 128,-1,40
 122 467 122 467 121 445 c 2,41,-1
 121 440 l 1,42,-1
 64 440 l 1,43,-1
 76 691 l 1,44,-1
 522 691 l 2,45,46
 535 691 535 691 541 690 c 0,47,48
 548 689 548 689 554 681 c 0,49,50
 559 674 559 674 559 661 c 128,-1,51
 559 648 559 648 551 635 c 2,0,-1
EndSplineSet
Validated: 19457
EndChar

StartChar: a
Encoding: 97 97 26
Width: 486
VWidth: 1000
Flags: W
HStem: -11 46<166.89 265.254> -5 57<423.033 484.328> 228 42<216.953 298> 293 144<72.6572 164.373> 412 46<168 269.711>
VStem: 23 127<50.8271 173.691> 51 135<311.566 407.312> 298 124<66.363 228 270 381.043>
LayerCount: 2
Fore
SplineSet
422 300 m 2,0,-1
 422 84 l 2,1,2
 422 72 422 72 423 66 c 0,3,4
 424 62 424 62 433 58 c 0,5,6
 443 53 443 53 464 52 c 0,7,-1
 465 52 l 2,8,9
 472 51 472 51 476 50 c 0,10,11
 481 48 481 48 486 41 c 0,12,13
 490 34 490 34 490 24 c 0,14,15
 490 11 490 11 484.5 4 c 128,-1,16
 479 -3 479 -3 471 -4 c 0,17,18
 465 -5 465 -5 453 -5 c 2,19,-1
 411 -5 l 2,20,21
 378 -5 378 -5 357 3 c 0,22,23
 335 12 335 12 327 28 c 0,24,25
 320 43 320 43 317 52 c 0,26,27
 317 54 317 54 316 56 c 1,28,29
 276 -11 276 -11 197 -11 c 0,30,31
 131 -11 131 -11 78 19 c 0,32,33
 23 49 23 49 23 109 c 0,34,35
 23 186 23 186 105 227 c 0,36,37
 183 267 183 267 298 270 c 1,38,-1
 298 301 l 2,39,40
 298 352 298 352 277 383 c 0,41,42
 257 412 257 412 217 412 c 0,43,44
 195 412 195 412 168 408 c 1,45,46
 186 386 186 386 186 361 c 0,47,48
 186 329 186 329 165 311 c 0,49,50
 145 293 145 293 118 293 c 0,51,52
 93 293 93 293 72 311 c 128,-1,53
 51 329 51 329 51 361 c 0,54,55
 51 388 51 388 67 408 c 0,56,57
 82 428 82 428 101 437 c 128,-1,58
 120 446 120 446 148 451 c 0,59,60
 175 456 175 456 189.5 457 c 128,-1,61
 204 458 204 458 220 458 c 0,62,63
 314 458 314 458 368 416 c 0,64,65
 422 373 422 373 422 300 c 2,0,-1
298 138 m 2,66,-1
 298 228 l 1,67,68
 287 227 287 227 277 225 c 0,69,70
 264 223 264 223 238 215 c 0,71,72
 213 207 213 207 195 196 c 128,-1,73
 177 185 177 185 164 161 c 0,74,75
 150 138 150 138 150 109 c 128,-1,76
 150 80 150 80 167 57 c 0,77,78
 183 35 183 35 209 35 c 0,79,80
 238 35 238 35 268 59 c 128,-1,81
 298 83 298 83 298 138 c 2,66,-1
EndSplineSet
Validated: 19457
EndChar

StartChar: b
Encoding: 98 98 27
Width: 555
VWidth: 1000
Flags: W
HStem: -11 46<234.167 350.974> 409 46<236.359 355.575> 634 57<11 71.7095> 679 20G<11 198>
VStem: 80 118<70.5605 373.352 418 628.87> 389 138<111.131 336.662>
LayerCount: 2
Fore
SplineSet
198 699 m 1,0,-1
 198 418 l 1,1,2
 249 455 249 455 314 455 c 0,3,4
 404 455 404 455 465.5 394 c 128,-1,5
 527 333 527 333 527 222 c 0,6,7
 527 113 527 113 463 51 c 128,-1,8
 399 -11 399 -11 302 -11 c 0,9,10
 230 -11 230 -11 181 40 c 1,11,-1
 135 -5 l 1,12,-1
 80 -5 l 1,13,-1
 80 600 l 2,14,15
 80 625 80 625 72 629 c 0,16,17
 63 634 63 634 16 634 c 2,18,-1
 11 634 l 1,19,-1
 11 691 l 1,20,-1
 198 699 l 1,0,-1
204 355 m 1,21,-1
 204 91 l 1,22,23
 242 35 242 35 294 35 c 0,24,25
 319 35 319 35 341.5 50 c 128,-1,26
 364 65 364 65 374 90 c 0,27,28
 389 127 389 127 389 223 c 0,29,30
 389 318 389 318 377 350 c 0,31,-1
 377 351 l 2,32,33
 368 379 368 379 348.5 394 c 128,-1,34
 329 409 329 409 304 409 c 0,35,36
 246 409 246 409 204 355 c 1,21,-1
EndSplineSet
Validated: 19457
EndChar

StartChar: c
Encoding: 99 99 28
Width: 444
VWidth: 1000
Flags: W
HStem: -11 50<210.576 326.401> 408 50<199.806 288.356>
VStem: 28 138<109.239 334.08> 274 135<311.566 404.436> 363 57<77.2852 135.703>
LayerCount: 2
Fore
SplineSet
289 405 m 1,0,1
 269 408 269 408 254 408 c 0,2,3
 233 408 233 408 217 400 c 128,-1,4
 201 392 201 392 193 375 c 0,5,6
 184 358 184 358 178 342 c 0,7,8
 172 327 172 327 169 302 c 0,9,10
 167 277 167 277 166.5 263 c 128,-1,11
 166 249 166 249 166 227 c 0,12,13
 166 137 166 137 185 97 c 0,14,15
 212 39 212 39 265 39 c 0,16,17
 335 39 335 39 363 120 c 0,18,19
 367 131 367 131 373 133 c 0,20,21
 378 136 378 136 391 136 c 0,22,23
 420 136 420 136 420 117 c 0,24,25
 420 111 420 111 416 98.5 c 128,-1,26
 412 86 412 86 399.5 66.5 c 128,-1,27
 387 47 387 47 369 30.5 c 128,-1,28
 351 14 351 14 319 1.5 c 128,-1,29
 287 -11 287 -11 248 -11 c 0,30,31
 154 -11 154 -11 91 51 c 128,-1,32
 28 113 28 113 28 222 c 0,33,34
 28 329 28 329 89 393.5 c 128,-1,35
 150 458 150 458 251 458 c 0,36,37
 317 458 317 458 362 434 c 0,38,39
 409 410 409 410 409 361 c 0,40,41
 409 329 409 329 388 311 c 0,42,43
 368 293 368 293 341 293 c 0,44,45
 316 293 316 293 295 311 c 128,-1,46
 274 329 274 329 274 361 c 0,47,48
 274 387 274 387 289 405 c 1,0,1
EndSplineSet
Validated: 19457
EndChar

StartChar: d
Encoding: 100 100 29
Width: 555
VWidth: 1000
Flags: W
HStem: -11 46<198.316 316.355> -5 57<483.291 544> 409 46<203.516 324.607> 634 57<288 348.709> 679 20G<288 475>
VStem: 28 138<107.296 332.961> 351 124<68.75 383.17 422 628.87>
LayerCount: 2
Fore
SplineSet
288 691 m 1,0,-1
 475 699 l 1,1,-1
 475 86 l 2,2,3
 475 61 475 61 483 57 c 0,4,5
 492 52 492 52 539 52 c 2,6,-1
 544 52 l 1,7,-1
 544 -5 l 1,8,-1
 351 -11 l 1,9,-1
 351 25 l 1,10,11
 302 -11 302 -11 242 -11 c 0,12,13
 151 -11 151 -11 89.5 50 c 128,-1,14
 28 111 28 111 28 222 c 0,15,16
 28 331 28 331 92 393 c 128,-1,17
 156 455 156 455 252 455 c 0,18,19
 310 455 310 455 357 422 c 1,20,-1
 357 600 l 2,21,22
 357 625 357 625 349 629 c 0,23,24
 340 634 340 634 293 634 c 2,25,-1
 288 634 l 1,26,-1
 288 691 l 1,0,-1
351 95 m 1,27,-1
 351 359 l 1,28,29
 315 409 315 409 262 409 c 0,30,31
 233 409 233 409 210.5 392.5 c 128,-1,32
 188 376 188 376 178 347 c 0,33,34
 166 313 166 313 166 221 c 0,35,36
 166 128 166 128 177 95 c 0,37,38
 198 35 198 35 251 35 c 0,39,40
 311 35 311 35 351 95 c 1,27,-1
EndSplineSet
Validated: 19457
EndChar

StartChar: e
Encoding: 101 101 30
Width: 466
VWidth: 1000
Flags: W
HStem: -11 50<203.162 341.306> 213 43<161 338> 412 46<196.708 301.166>
VStem: 23 138<114.831 213 256 334.876> 338 105<256 355.888>
LayerCount: 2
Fore
SplineSet
406 213 m 2,0,-1
 161 213 l 1,1,2
 161 195 161 195 161 184 c 0,3,4
 161 171 161 171 165 146 c 0,5,6
 168 122 168 122 174.5 105.5 c 128,-1,7
 181 89 181 89 193 72 c 0,8,9
 204 56 204 56 223 48 c 0,10,11
 242 39 242 39 268 39 c 0,12,13
 302 39 302 39 336 58 c 128,-1,14
 370 77 370 77 385 118 c 0,15,16
 389 131 389 131 395 135 c 0,17,18
 400 140 400 140 414 140 c 0,19,20
 443 140 443 140 443 117 c 0,21,22
 443 106 443 106 433 86 c 0,23,24
 423 67 423 67 403 45 c 0,25,26
 383 22 383 22 345 5.5 c 128,-1,27
 307 -11 307 -11 259 -11 c 0,28,29
 156 -11 156 -11 89.5 53 c 128,-1,30
 23 117 23 117 23 225 c 0,31,32
 23 331 23 331 85 394.5 c 128,-1,33
 147 458 147 458 247 458 c 0,34,35
 303 458 303 458 344 439 c 0,36,37
 385 419 385 419 405 386 c 128,-1,38
 425 353 425 353 434 319 c 128,-1,39
 443 285 443 285 443 247 c 0,40,41
 443 224 443 224 435 218 c 0,42,43
 428 212 428 212 406 213 c 2,0,-1
161 256 m 1,44,-1
 338 256 l 1,45,46
 338 272 338 272 336 288 c 0,47,48
 334 306 334 306 327 340 c 0,49,50
 320 373 320 373 299 392 c 0,51,52
 279 412 279 412 248 412 c 0,53,54
 165 412 165 412 161 256 c 1,44,-1
EndSplineSet
Validated: 19457
EndChar

StartChar: f
Encoding: 102 102 31
Width: 305
VWidth: 1000
Flags: W
HStem: -5 57<22 91 209 296> 392 57<33 91 209 302> 659 46<233.344 287>
VStem: 91 118<52 392 449 628.97> 270 133<564.566 658.43>
LayerCount: 2
Fore
SplineSet
209 392 m 1,0,-1
 209 52 l 1,1,-1
 296 52 l 1,2,-1
 296 -5 l 1,3,-1
 291 -5 l 2,4,5
 255 -2 255 -2 153 -2 c 0,6,7
 132 -2 132 -2 27 -5 c 2,8,-1
 22 -5 l 1,9,-1
 22 52 l 1,10,-1
 91 52 l 1,11,-1
 91 392 l 1,12,-1
 33 392 l 1,13,-1
 33 449 l 1,14,-1
 91 449 l 1,15,-1
 91 545 l 2,16,17
 91 627 91 627 151 666 c 0,18,19
 210 705 210 705 291 705 c 0,20,21
 344 705 344 705 373.5 677.5 c 128,-1,22
 403 650 403 650 403 613 c 0,23,24
 403 582 403 582 383 564 c 128,-1,25
 363 546 363 546 336 546 c 0,26,27
 311 546 311 546 291 563 c 0,28,29
 270 580 270 580 270 613 c 0,30,31
 270 641 270 641 287 659 c 1,32,33
 281 659 281 659 275 658 c 128,-1,34
 269 657 269 657 254 651 c 0,35,36
 240 645 240 645 229.5 634.5 c 128,-1,37
 219 624 219 624 211 601 c 128,-1,38
 203 578 203 578 203 546 c 2,39,-1
 203 449 l 1,40,-1
 302 449 l 1,41,-1
 302 392 l 1,42,-1
 209 392 l 1,0,-1
EndSplineSet
Validated: 19457
EndChar

StartChar: g
Encoding: 103 103 32
Width: 500
VWidth: 1000
Flags: W
HStem: -206 46<153.284 345.302> -18 106<124.875 365.25> 149 46<171.634 271.802> 349 111<407.924 474.497> 409 46<172.451 272.298>
VStem: 21 96<-126.126 -26.0068> 37 121<222.207 379.864> 51 59<98.1935 172.764> 286 121<224.803 381.888> 382 96<-125.227 -36.2844> 394 96<363.439 406.844>
LayerCount: 2
Fore
SplineSet
157 88 m 1,0,-1
 215 88 l 2,1,2
 254 88 254 88 275 87 c 128,-1,3
 296 86 296 86 332 82 c 0,4,5
 369 78 369 78 391 68 c 0,6,7
 412 58 412 58 434 42 c 0,8,9
 457 25 457 25 468 -5 c 0,10,11
 478 -33 478 -33 478 -71 c 0,12,13
 478 -130 478 -130 419 -168 c 0,14,15
 361 -206 361 -206 249 -206 c 0,16,17
 128 -206 128 -206 75 -165 c 0,18,19
 21 -124 21 -124 21 -75 c 0,20,21
 21 -16 21 -16 88 13 c 1,22,23
 51 48 51 48 51 104 c 0,24,25
 51 151 51 151 83 195 c 1,26,27
 37 234 37 234 37 302 c 0,28,29
 37 367 37 367 86 411 c 0,30,31
 134 455 134 455 222 455 c 0,32,33
 293 455 293 455 340 424 c 1,34,35
 381 460 381 460 429 460 c 0,36,37
 459 460 459 460 475 440 c 0,38,39
 490 420 490 420 490 397 c 0,40,41
 490 377 490 377 476.5 363 c 128,-1,42
 463 349 463 349 442 349 c 128,-1,43
 421 349 421 349 407.5 362.5 c 128,-1,44
 394 376 394 376 394 397 c 0,45,46
 394 402 394 402 395 407 c 1,47,48
 383 403 383 403 373 398 c 1,49,50
 407 357 407 357 407 302 c 0,51,52
 407 238 407 238 359 193.5 c 128,-1,53
 311 149 311 149 222 149 c 0,54,55
 162 149 162 149 115 173 c 1,56,57
 110 164 110 164 110 144 c 0,58,59
 110 120 110 120 124 105 c 128,-1,60
 138 90 138 90 157 88 c 1,0,-1
222 195 m 0,61,62
 241 195 241 195 253 202 c 0,63,64
 266 209 266 209 272 217 c 128,-1,65
 278 225 278 225 282 242 c 0,66,67
 285 260 285 260 286 270 c 0,68,69
 286 281 286 281 286 302 c 0,70,71
 286 328 286 328 284.5 341.5 c 128,-1,72
 283 355 283 355 278 374 c 0,73,74
 273 392 273 392 259 400 c 0,75,76
 245 409 245 409 222 409 c 0,77,78
 203 409 203 409 191 402 c 0,79,80
 178 395 178 395 172 387 c 128,-1,81
 166 379 166 379 162 362 c 0,82,83
 159 344 159 344 158 334 c 0,84,85
 158 323 158 323 158 302 c 0,86,87
 158 276 158 276 159.5 262.5 c 128,-1,88
 161 249 161 249 166 230 c 0,89,90
 171 212 171 212 185 204 c 0,91,92
 199 195 199 195 222 195 c 0,61,62
267 -18 m 2,93,-1
 173 -18 l 2,94,95
 117 -18 117 -18 117 -73 c 0,96,97
 117 -110 117 -110 149 -135 c 0,98,99
 182 -160 182 -160 250 -160 c 0,100,101
 319 -160 319 -160 351 -134 c 0,102,103
 382 -108 382 -108 382 -75 c 0,104,105
 382 -18 382 -18 267 -18 c 2,93,-1
EndSplineSet
Validated: 19457
EndChar

StartChar: h
Encoding: 104 104 33
Width: 555
VWidth: 1000
Flags: W
HStem: -5 57<19 88 212 281 300 365 489 558> 409 46<271.614 352.65> 634 57<19 79.7095> 679 20G<19 206>
VStem: 88 118<52 336.654 376 628.87> 365 124<52 403.478>
LayerCount: 2
Fore
SplineSet
489 309 m 2,0,-1
 489 52 l 1,1,-1
 558 52 l 1,2,-1
 558 -5 l 1,3,-1
 553 -5 l 2,4,5
 493 -2 493 -2 428 -2 c 0,6,7
 413 -2 413 -2 305 -5 c 2,8,-1
 300 -5 l 1,9,-1
 300 52 l 1,10,-1
 365 52 l 1,11,-1
 365 321 l 2,12,13
 365 361 365 361 359 383 c 0,14,15
 353 403 353 403 348 406 c 128,-1,16
 343 409 343 409 334 409 c 0,17,18
 291 409 291 409 251.5 369.5 c 128,-1,19
 212 330 212 330 212 256 c 2,20,-1
 212 52 l 1,21,-1
 281 52 l 1,22,-1
 281 -5 l 1,23,-1
 276 -5 l 2,24,25
 192 -2 192 -2 150 -2 c 128,-1,26
 108 -2 108 -2 24 -5 c 2,27,-1
 19 -5 l 1,28,-1
 19 52 l 1,29,-1
 88 52 l 1,30,-1
 88 600 l 2,31,32
 88 625 88 625 80 629 c 0,33,34
 71 634 71 634 24 634 c 2,35,-1
 19 634 l 1,36,-1
 19 691 l 1,37,-1
 206 699 l 1,38,-1
 206 376 l 1,39,40
 257 455 257 455 349 455 c 0,41,42
 428 455 428 455 459 415 c 0,43,44
 489 376 489 376 489 309 c 2,0,-1
EndSplineSet
Validated: 19457
EndChar

StartChar: i
Encoding: 105 105 34
Width: 277
VWidth: 1000
Flags: W
HStem: -5 57<21 90 208 270> 390 57<24 82.71> 534 166<78.8177 191.959>
VStem: 52 166<561.043 672.957> 90 118<52 384.87>
LayerCount: 2
Fore
SplineSet
218 617 m 128,-1,1
 218 582 218 582 193.5 558 c 128,-1,2
 169 534 169 534 135 534 c 128,-1,3
 101 534 101 534 76.5 558.5 c 128,-1,4
 52 583 52 583 52 617 c 128,-1,5
 52 651 52 651 76.5 675.5 c 128,-1,6
 101 700 101 700 135 700 c 128,-1,7
 169 700 169 700 193.5 676 c 128,-1,0
 218 652 218 652 218 617 c 128,-1,1
24 447 m 1,8,-1
 208 455 l 1,9,-1
 208 52 l 1,10,-1
 270 52 l 1,11,-1
 270 -5 l 1,12,-1
 265 -5 l 2,13,14
 157 -2 157 -2 148 -2 c 0,15,16
 119 -2 119 -2 26 -5 c 2,17,-1
 21 -5 l 1,18,-1
 21 52 l 1,19,-1
 90 52 l 1,20,-1
 90 356 l 2,21,22
 90 381 90 381 83 385 c 0,23,24
 74 390 74 390 29 390 c 2,25,-1
 24 390 l 1,26,-1
 24 447 l 1,8,-1
EndSplineSet
Validated: 19457
EndChar

StartChar: j
Encoding: 106 106 35
Width: 305
VWidth: 1000
Flags: W
HStem: -205 46<48.429 104.311> 390 57<53 128.647> 534 166<107.818 220.182>
VStem: -67 135<-156.404 -61.1117> 81 166<560.818 673.182> 129 118<-125.371 388.469>
LayerCount: 2
Fore
SplineSet
247 617 m 128,-1,1
 247 583 247 583 222.5 558.5 c 128,-1,2
 198 534 198 534 164 534 c 128,-1,3
 130 534 130 534 105.5 558.5 c 128,-1,4
 81 583 81 583 81 617 c 128,-1,5
 81 651 81 651 105.5 675.5 c 128,-1,6
 130 700 130 700 164 700 c 128,-1,7
 198 700 198 700 222.5 675.5 c 128,-1,0
 247 651 247 651 247 617 c 128,-1,1
53 447 m 1,8,-1
 247 455 l 1,9,-1
 247 -42 l 2,10,11
 247 -117 247 -117 194 -161 c 128,-1,12
 141 -205 141 -205 71 -205 c 0,13,14
 14 -205 14 -205 -26 -180 c 0,15,16
 -67 -154 -67 -154 -67 -109 c 0,17,18
 -67 -80 -67 -80 -48 -60.5 c 128,-1,19
 -29 -41 -29 -41 1 -41 c 0,20,21
 30 -41 30 -41 49 -60.5 c 128,-1,22
 68 -80 68 -80 68 -108 c 0,23,24
 68 -138 68 -138 48 -157 c 1,25,26
 58 -159 58 -159 69 -159 c 0,27,28
 87 -159 87 -159 100 -148 c 0,29,30
 113 -136 113 -136 118 -117 c 0,31,32
 124 -97 124 -97 126.5 -80 c 128,-1,33
 129 -63 129 -63 129 -44 c 2,34,-1
 129 355 l 2,35,36
 129 368 129 368 128 373 c 128,-1,37
 127 378 127 378 123 382 c 128,-1,38
 119 386 119 386 111 388 c 0,39,40
 96 390 96 390 58 390 c 2,41,-1
 53 390 l 1,42,-1
 53 447 l 1,8,-1
EndSplineSet
Validated: 19457
EndChar

StartChar: k
Encoding: 107 107 36
Width: 527
VWidth: 1000
Flags: W
HStem: -5 57<11 80 193 262 285 321.838 455.095 516> 392 57<292 334.991 401.172 493> 634 57<11 71.7095> 679 20G<11 198>
VStem: 80 118<52 177 259 628.87>
LayerCount: 2
Fore
SplineSet
303 278 m 1,0,-1
 445 69 l 2,1,2
 452 59 452 59 455 56 c 0,3,4
 458 54 458 54 467 53 c 0,5,6
 478 52 478 52 511 52 c 2,7,-1
 516 52 l 1,8,-1
 516 -5 l 1,9,-1
 511 -5 l 2,10,11
 445 -2 445 -2 410 -2 c 0,12,13
 383 -2 383 -2 290 -5 c 2,14,-1
 285 -5 l 1,15,-1
 285 52 l 1,16,-1
 290 52 l 2,17,18
 317 52 317 52 322 57 c 1,19,20
 317 67 317 67 279 123 c 0,21,22
 240 181 240 181 223 205 c 1,23,-1
 193 177 l 1,24,-1
 193 52 l 1,25,-1
 262 52 l 1,26,-1
 262 -5 l 1,27,-1
 257 -5 l 2,28,29
 149 -2 149 -2 136 -2 c 0,30,31
 127 -2 127 -2 16 -5 c 2,32,-1
 11 -5 l 1,33,-1
 11 52 l 1,34,-1
 80 52 l 1,35,-1
 80 600 l 2,36,37
 80 625 80 625 72 629 c 0,38,39
 63 634 63 634 16 634 c 2,40,-1
 11 634 l 1,41,-1
 11 691 l 1,42,-1
 198 699 l 1,43,-1
 198 259 l 1,44,-1
 329 380 l 1,45,-1
 330 380 l 2,46,47
 335 383 335 383 335 386 c 0,48,49
 335 392 335 392 297 392 c 2,50,-1
 292 392 l 1,51,-1
 292 449 l 1,52,-1
 297 449 l 2,53,54
 336 446 336 446 411 446 c 0,55,56
 465 446 465 446 487 449 c 2,57,-1
 493 450 l 1,58,-1
 493 392 l 1,59,-1
 488 392 l 2,60,61
 457 392 457 392 441 390 c 128,-1,62
 425 388 425 388 420 384 c 0,63,64
 414 381 414 381 406 374 c 2,65,-1
 303 278 l 1,0,-1
EndSplineSet
Validated: 19457
EndChar

StartChar: l
Encoding: 108 108 37
Width: 277
VWidth: 1000
Flags: W
HStem: -5 57<21 90 208 277> 634 57<21 81.7095> 679 20G<21 208>
VStem: 90 118<52 628.87>
LayerCount: 2
Fore
SplineSet
208 699 m 1,0,-1
 208 52 l 1,1,-1
 277 52 l 1,2,-1
 277 -5 l 1,3,-1
 272 -5 l 2,4,5
 170 -2 170 -2 149 -2 c 0,6,7
 122 -2 122 -2 26 -5 c 2,8,-1
 21 -5 l 1,9,-1
 21 52 l 1,10,-1
 90 52 l 1,11,-1
 90 600 l 2,12,13
 90 625 90 625 82 629 c 0,14,15
 73 634 73 634 26 634 c 2,16,-1
 21 634 l 1,17,-1
 21 691 l 1,18,-1
 208 699 l 1,0,-1
EndSplineSet
Validated: 19457
EndChar

StartChar: m
Encoding: 109 109 38
Width: 833
VWidth: 1000
Flags: W
HStem: -5 57<19 88 212 281 300 365 489 558 577 642 766 835> 390 57<19 79.7095> 409 46<272.199 351.726 548.91 629.072>
VStem: 88 124<52 347.594> 365 124<52 347.594> 642 124<52 403.478>
CounterMasks: 1 1c
LayerCount: 2
Fore
SplineSet
766 309 m 2,0,-1
 766 52 l 1,1,-1
 835 52 l 1,2,-1
 835 -5 l 1,3,-1
 830 -5 l 2,4,5
 770 -2 770 -2 705 -2 c 0,6,7
 690 -2 690 -2 582 -5 c 2,8,-1
 577 -5 l 1,9,-1
 577 52 l 1,10,-1
 642 52 l 1,11,-1
 642 321 l 2,12,13
 642 361 642 361 636 383 c 0,14,15
 630 403 630 403 625 406 c 128,-1,16
 620 409 620 409 611 409 c 0,17,18
 568 409 568 409 528.5 369.5 c 128,-1,19
 489 330 489 330 489 256 c 2,20,-1
 489 52 l 1,21,-1
 558 52 l 1,22,-1
 558 -5 l 1,23,-1
 553 -5 l 2,24,25
 493 -2 493 -2 428 -2 c 0,26,27
 413 -2 413 -2 305 -5 c 2,28,-1
 300 -5 l 1,29,-1
 300 52 l 1,30,-1
 365 52 l 1,31,-1
 365 321 l 2,32,33
 365 361 365 361 359 383 c 0,34,35
 353 403 353 403 348 406 c 128,-1,36
 343 409 343 409 334 409 c 0,37,38
 291 409 291 409 251.5 369.5 c 128,-1,39
 212 330 212 330 212 256 c 2,40,-1
 212 52 l 1,41,-1
 281 52 l 1,42,-1
 281 -5 l 1,43,-1
 276 -5 l 2,44,45
 192 -2 192 -2 150 -2 c 128,-1,46
 108 -2 108 -2 24 -5 c 2,47,-1
 19 -5 l 1,48,-1
 19 52 l 1,49,-1
 88 52 l 1,50,-1
 88 356 l 2,51,52
 88 381 88 381 80 385 c 0,53,54
 71 390 71 390 24 390 c 2,55,-1
 19 390 l 1,56,-1
 19 447 l 1,57,-1
 201 455 l 1,58,-1
 201 367 l 1,59,60
 252 455 252 455 349 455 c 0,61,62
 456 455 456 455 482 372 c 1,63,64
 531 455 531 455 626 455 c 0,65,66
 705 455 705 455 736 415 c 0,67,68
 766 376 766 376 766 309 c 2,0,-1
EndSplineSet
Validated: 19457
EndChar

StartChar: n
Encoding: 110 110 39
Width: 555
VWidth: 1000
Flags: W
HStem: -5 57<19 88 212 281 300 365 489 558> 390 57<19 79.7095> 409 46<272.199 352.65>
VStem: 88 124<52 347.594> 365 124<52 403.478>
LayerCount: 2
Fore
SplineSet
489 309 m 2,0,-1
 489 52 l 1,1,-1
 558 52 l 1,2,-1
 558 -5 l 1,3,-1
 553 -5 l 2,4,5
 493 -2 493 -2 428 -2 c 0,6,7
 413 -2 413 -2 305 -5 c 2,8,-1
 300 -5 l 1,9,-1
 300 52 l 1,10,-1
 365 52 l 1,11,-1
 365 321 l 2,12,13
 365 361 365 361 359 383 c 0,14,15
 353 403 353 403 348 406 c 128,-1,16
 343 409 343 409 334 409 c 0,17,18
 291 409 291 409 251.5 369.5 c 128,-1,19
 212 330 212 330 212 256 c 2,20,-1
 212 52 l 1,21,-1
 281 52 l 1,22,-1
 281 -5 l 1,23,-1
 276 -5 l 2,24,25
 192 -2 192 -2 150 -2 c 128,-1,26
 108 -2 108 -2 24 -5 c 2,27,-1
 19 -5 l 1,28,-1
 19 52 l 1,29,-1
 88 52 l 1,30,-1
 88 356 l 2,31,32
 88 381 88 381 80 385 c 0,33,34
 71 390 71 390 24 390 c 2,35,-1
 19 390 l 1,36,-1
 19 447 l 1,37,-1
 201 455 l 1,38,-1
 201 367 l 1,39,40
 252 455 252 455 349 455 c 0,41,42
 428 455 428 455 459 415 c 0,43,44
 489 376 489 376 489 309 c 2,0,-1
EndSplineSet
Validated: 19457
EndChar

StartChar: o
Encoding: 111 111 40
Width: 500
VWidth: 1000
Flags: W
HStem: -11 50<192.854 306.402> 412 46<192.082 306.295>
VStem: 23 138<107.855 332.713> 338 138<108.112 332.751>
LayerCount: 2
Fore
SplineSet
476 219 m 0,0,1
 476 113 476 113 413.5 51 c 128,-1,2
 351 -11 351 -11 249 -11 c 0,3,4
 149 -11 149 -11 86 50.5 c 128,-1,5
 23 112 23 112 23 219 c 0,6,7
 23 328 23 328 86 393 c 128,-1,8
 149 458 149 458 249 458 c 0,9,10
 351 458 351 458 413.5 392.5 c 128,-1,11
 476 327 476 327 476 219 c 0,0,1
250 39 m 0,12,13
 276 39 276 39 299 55 c 0,14,15
 321 71 321 71 328 97 c 1,16,17
 338 130 338 130 338 229 c 0,18,19
 338 322 338 322 329 355 c 0,20,21
 322 378 322 378 300 395 c 128,-1,22
 278 412 278 412 249 412 c 0,23,24
 222 412 222 412 199 396 c 0,25,26
 177 381 177 381 170 355 c 0,27,28
 161 324 161 324 161 229 c 128,-1,29
 161 134 161 134 169 101 c 0,30,31
 177 72 177 72 199.5 55.5 c 128,-1,32
 222 39 222 39 250 39 c 0,12,13
EndSplineSet
Validated: 19457
EndChar

StartChar: p
Encoding: 112 112 41
Width: 555
VWidth: 1000
Flags: W
HStem: -199 57<11 80 204 273> -11 46<233.451 340.563> 390 57<11 80> 405 50<236.279 347.391>
VStem: 80 124<-142 20 63.4131 375.188> 389 138<111.545 337.697>
LayerCount: 2
Fore
SplineSet
273 -142 m 1,0,-1
 273 -199 l 1,1,-1
 268 -199 l 2,2,3
 184 -196 184 -196 142 -196 c 128,-1,4
 100 -196 100 -196 16 -199 c 2,5,-1
 11 -199 l 1,6,-1
 11 -142 l 1,7,-1
 80 -142 l 1,8,-1
 80 362 l 2,9,10
 80 374 80 374 80 379 c 0,11,12
 80 382 80 382 76 384 c 0,13,14
 73 387 73 387 65 388 c 0,15,16
 54 390 54 390 16 390 c 2,17,-1
 11 390 l 1,18,-1
 11 447 l 1,19,-1
 198 455 l 1,20,-1
 198 417 l 1,21,22
 251 455 251 455 317 455 c 0,23,24
 407 455 407 455 467 393 c 128,-1,25
 527 331 527 331 527 223 c 0,26,27
 527 113 527 113 462.5 51 c 128,-1,28
 398 -11 398 -11 302 -11 c 0,29,30
 247 -11 247 -11 204 20 c 1,31,-1
 204 -142 l 1,32,-1
 273 -142 l 1,0,-1
204 352 m 1,33,-1
 204 90 l 1,34,35
 240 35 240 35 293 35 c 0,36,37
 332 35 332 35 360 81 c 0,38,39
 389 128 389 128 389 223 c 0,40,41
 389 311 389 311 364 359 c 0,42,43
 340 405 340 405 303 405 c 0,44,45
 247 405 247 405 204 352 c 1,33,-1
EndSplineSet
Validated: 19457
EndChar

StartChar: q
Encoding: 113 113 42
Width: 527
VWidth: 1000
Flags: W
HStem: -199 57<282 351 475 544> -11 46<208.692 314.047> 405 50<213.203 315.902>
VStem: 28 138<107.083 333.272> 351 124<-142 27 71.2383 368.178>
LayerCount: 2
Fore
SplineSet
475 455 m 1,0,-1
 475 -142 l 1,1,-1
 544 -142 l 1,2,-1
 544 -199 l 1,3,-1
 539 -199 l 2,4,5
 455 -196 455 -196 413 -196 c 128,-1,6
 371 -196 371 -196 287 -199 c 2,7,-1
 282 -199 l 1,8,-1
 282 -142 l 1,9,-1
 351 -142 l 1,10,-1
 351 27 l 1,11,12
 302 -11 302 -11 242 -11 c 0,13,14
 152 -11 152 -11 90 50 c 128,-1,15
 28 111 28 111 28 222 c 0,16,17
 28 332 28 332 92.5 393.5 c 128,-1,18
 157 455 157 455 250 455 c 0,19,20
 329 455 329 455 377 389 c 1,21,-1
 426 455 l 1,22,-1
 475 455 l 1,0,-1
357 132 m 2,23,-1
 357 290 l 2,24,25
 357 328 357 328 330 367 c 0,26,27
 303 405 303 405 262 405 c 0,28,29
 224 405 224 405 195 361 c 0,30,31
 166 316 166 316 166 221 c 0,32,33
 166 132 166 132 191 83 c 0,34,35
 215 35 215 35 252 35 c 0,36,37
 293 35 293 35 325 67 c 1,38,39
 357 101 357 101 357 132 c 2,23,-1
EndSplineSet
Validated: 19457
EndChar

StartChar: r
Encoding: 114 114 43
Width: 427
VWidth: 1000
Flags: W
HStem: -5 57<11 80 198 285> 302 153<293.626 369.993> 390 57<11 71.7095>
VStem: 80 118<52 356.453> 273 132<320.565 407.263>
LayerCount: 2
Fore
SplineSet
198 226 m 2,0,-1
 198 52 l 1,1,-1
 285 52 l 1,2,-1
 285 -5 l 1,3,-1
 280 -5 l 2,4,5
 244 -2 244 -2 142 -2 c 0,6,7
 121 -2 121 -2 16 -5 c 2,8,-1
 11 -5 l 1,9,-1
 11 52 l 1,10,-1
 80 52 l 1,11,-1
 80 356 l 2,12,13
 80 381 80 381 72 385 c 0,14,15
 63 390 63 390 16 390 c 2,16,-1
 11 390 l 1,17,-1
 11 447 l 1,18,-1
 187 455 l 1,19,-1
 187 383 l 1,20,21
 220 455 220 455 293 455 c 0,22,23
 335 455 335 455 370 433 c 0,24,25
 405 410 405 410 405 368 c 0,26,27
 405 338 405 338 385 320 c 128,-1,28
 365 302 365 302 339 302 c 128,-1,29
 313 302 313 302 293 319 c 128,-1,30
 273 336 273 336 273 368 c 0,31,32
 273 390 273 390 286 408 c 1,33,34
 263 405 263 405 247 392 c 0,35,36
 227 375 227 375 216 346 c 0,37,38
 206 316 206 316 202 287.5 c 128,-1,39
 198 259 198 259 198 226 c 2,0,-1
EndSplineSet
Validated: 19457
EndChar

StartChar: s
Encoding: 115 115 44
Width: 394
VWidth: 1000
Flags: W
HStem: -11 46<131.51 267.176> 416 42<122.604 259.152>
VStem: 28 81<320.553 401.512> 28 58<86.6562 157.809> 283 57<318.191 394.197> 284 81<53.7506 152.767>
LayerCount: 2
Fore
SplineSet
340 425 m 2,0,-1
 340 345 l 2,1,2
 340 324 340 324 335 318 c 128,-1,3
 330 312 330 312 311 312 c 0,4,5
 295 312 295 312 289.5 317 c 128,-1,6
 284 322 284 322 283 336 c 128,-1,7
 282 350 282 350 279.5 358.5 c 128,-1,8
 277 367 277 367 269 383 c 0,9,10
 261 398 261 398 242 407 c 0,11,12
 222 416 222 416 193 416 c 0,13,14
 109 416 109 416 109 359 c 0,15,16
 109 343 109 343 116 332 c 128,-1,17
 123 321 123 321 140 314 c 0,18,19
 158 307 158 307 169 303.5 c 128,-1,20
 180 300 180 300 206 295 c 0,21,22
 233 290 233 290 247 286 c 0,23,24
 262 282 262 282 282.5 271.5 c 128,-1,25
 303 261 303 261 318 246 c 0,26,27
 365 203 365 203 365 139 c 0,28,29
 365 74 365 74 326 31.5 c 128,-1,30
 287 -11 287 -11 199 -11 c 0,31,32
 143 -11 143 -11 102 16 c 1,33,34
 88 7 88 7 81 2 c 0,35,36
 62 -11 62 -11 51 -11 c 0,37,38
 36 -11 36 -11 32 -2 c 0,39,40
 28 5 28 5 28 22 c 2,41,-1
 28 131 l 2,42,43
 28 152 28 152 32 158 c 0,44,45
 37 165 37 165 57 165 c 0,46,47
 73 165 73 165 78 161 c 128,-1,48
 83 157 83 157 86 144 c 0,49,50
 100 90 100 90 126 62 c 0,51,52
 152 35 152 35 199 35 c 0,53,54
 284 35 284 35 284 104 c 0,55,56
 284 131 284 131 267 148 c 0,57,58
 249 166 249 166 233 170 c 0,59,60
 216 175 216 175 187 181 c 128,-1,61
 158 187 158 187 142 191 c 128,-1,62
 126 195 126 195 105 206 c 0,63,64
 84 216 84 216 68 231 c 0,65,66
 28 271 28 271 28 322 c 0,67,68
 28 361 28 361 43 389.5 c 128,-1,69
 58 418 58 418 84 432 c 0,70,71
 109 446 109 446 135.5 452 c 128,-1,72
 162 458 162 458 193 458 c 0,73,74
 244 458 244 458 276 441 c 1,75,76
 308 458 308 458 317 458 c 0,77,78
 332 458 332 458 336 450 c 0,79,80
 340 443 340 443 340 425 c 2,0,-1
EndSplineSet
Validated: 19457
EndChar

StartChar: t
Encoding: 116 116 45
Width: 390
VWidth: 1000
Flags: W
HStem: -11 50<209.752 269.872> 392 57<201 322> 392 46<14 76.46>
VStem: 77 124<43.9937 392> 144 57<517.877 640> 281 57<60.7229 182>
LayerCount: 2
Fore
SplineSet
201 392 m 1,0,-1
 201 118 l 2,1,2
 201 39 201 39 241 39 c 0,3,4
 259 39 259 39 270 60 c 0,5,6
 281 83 281 83 281 123 c 2,7,-1
 281 182 l 1,8,-1
 338 182 l 1,9,-1
 338 122 l 2,10,11
 338 69 338 69 311 30 c 0,12,13
 284 -11 284 -11 228 -11 c 0,14,15
 77 -11 77 -11 77 123 c 2,16,-1
 77 392 l 1,17,-1
 14 392 l 1,18,-1
 14 438 l 1,19,-1
 19 438 l 2,20,21
 84 441 84 441 113 499 c 0,22,23
 143 558 143 558 144 635 c 2,24,-1
 144 640 l 1,25,-1
 201 640 l 1,26,-1
 201 449 l 1,27,-1
 322 449 l 1,28,-1
 322 392 l 1,29,-1
 201 392 l 1,0,-1
EndSplineSet
Validated: 19457
EndChar

StartChar: u
Encoding: 117 117 46
Width: 555
VWidth: 1000
Flags: W
HStem: -11 46<220.082 326.615> -5 57<497.291 558> 390 57<19 79.7095 296 356.709>
VStem: 88 124<48.4446 384.87> 365 124<76.8911 384.87>
LayerCount: 2
Fore
SplineSet
296 447 m 1,0,-1
 489 455 l 1,1,-1
 489 86 l 2,2,3
 489 61 489 61 497 57 c 0,4,5
 506 52 506 52 553 52 c 2,6,-1
 558 52 l 1,7,-1
 558 -5 l 1,8,-1
 371 -11 l 1,9,-1
 371 46 l 1,10,11
 331 -11 331 -11 257 -11 c 0,12,13
 176 -11 176 -11 133 18 c 0,14,15
 88 48 88 48 88 122 c 2,16,-1
 88 356 l 2,17,18
 88 381 88 381 80 385 c 0,19,20
 71 390 71 390 24 390 c 2,21,-1
 19 390 l 1,22,-1
 19 447 l 1,23,-1
 212 455 l 1,24,-1
 212 105 l 2,25,26
 212 62 212 62 221 48 c 0,27,28
 230 35 230 35 271 35 c 0,29,30
 314 35 314 35 339 71 c 0,31,32
 365 108 365 108 365 163 c 2,33,-1
 365 356 l 2,34,35
 365 381 365 381 357 385 c 0,36,37
 348 390 348 390 301 390 c 2,38,-1
 296 390 l 1,39,-1
 296 447 l 1,0,-1
EndSplineSet
Validated: 19457
EndChar

StartChar: v
Encoding: 118 118 47
Width: 527
VWidth: 1000
Flags: W
HStem: -9 21G<256.5 270.5> 392 57<17 81 207 262 331 381.896 453.32 510>
LayerCount: 2
Fore
SplineSet
440 373 m 2,0,-1
 304 21 l 2,1,2
 300 11 300 11 297 6 c 0,3,4
 294 0 294 0 285.5 -4.5 c 128,-1,5
 277 -9 277 -9 264 -9 c 0,6,7
 249 -9 249 -9 239.5 -3 c 128,-1,8
 230 3 230 3 222 22 c 2,9,-1
 81 392 l 1,10,-1
 17 392 l 1,11,-1
 17 449 l 1,12,-1
 22 449 l 2,13,14
 124 446 124 446 134 446 c 0,15,16
 170 446 170 446 257 449 c 2,17,-1
 262 449 l 1,18,-1
 262 392 l 1,19,-1
 207 392 l 1,20,-1
 296 161 l 1,21,-1
 378 375 l 2,22,23
 381 383 381 383 382 385 c 1,24,25
 379 392 379 392 336 392 c 2,26,-1
 331 392 l 1,27,-1
 331 449 l 1,28,-1
 336 449 l 2,29,30
 378 446 378 446 426 446 c 0,31,32
 468 446 468 446 505 449 c 2,33,-1
 510 449 l 1,34,-1
 510 392 l 1,35,-1
 505 392 l 2,36,37
 463 392 463 392 453 388 c 0,38,39
 444 384 444 384 440 373 c 2,0,-1
EndSplineSet
Validated: 19457
EndChar

StartChar: w
Encoding: 119 119 48
Width: 722
VWidth: 1000
Flags: W
HStem: -9 21G<235 250.5 469.5 491.5> 392 57<16 75 201 241 260 314.747 415 472 522 581.341 651.32 705>
LayerCount: 2
Fore
SplineSet
579 373 m 1,0,-1
 582 384 l 1,1,2
 561 392 561 392 527 392 c 2,3,-1
 522 392 l 1,4,-1
 522 449 l 1,5,-1
 527 449 l 2,6,7
 599 446 599 446 623 446 c 0,8,9
 664 446 664 446 700 449 c 2,10,-1
 705 449 l 1,11,-1
 705 392 l 1,12,-1
 700 392 l 2,13,14
 661 392 661 392 651 388 c 0,15,16
 643 384 643 384 639 372 c 2,17,-1
 516 20 l 2,18,19
 506 -9 506 -9 477 -9 c 0,20,21
 462 -9 462 -9 453 -4 c 128,-1,22
 444 1 444 1 437 20 c 2,23,-1
 360 241 l 1,24,-1
 283 19 l 2,25,26
 280 10 280 10 277 5 c 0,27,28
 274 -1 274 -1 265 -5 c 0,29,30
 257 -9 257 -9 244 -9 c 0,31,32
 226 -9 226 -9 218 -2 c 0,33,34
 211 5 211 5 205 21 c 2,35,-1
 75 392 l 1,36,-1
 16 392 l 1,37,-1
 16 449 l 1,38,-1
 21 449 l 2,39,40
 108 446 108 446 127 446 c 0,41,42
 152 446 152 446 236 449 c 2,43,-1
 241 449 l 1,44,-1
 241 392 l 1,45,-1
 201 392 l 1,46,-1
 277 175 l 1,47,-1
 326 317 l 1,48,-1
 327 317 l 2,49,50
 330 323 330 323 330 327 c 1,51,52
 328 334 328 334 307 392 c 1,53,-1
 260 392 l 1,54,-1
 260 449 l 1,55,-1
 265 449 l 2,56,57
 310 446 310 446 355 446 c 0,58,59
 377 446 377 446 467 449 c 2,60,-1
 472 449 l 1,61,-1
 472 392 l 1,62,-1
 415 392 l 1,63,-1
 500 150 l 1,64,-1
 579 373 l 1,0,-1
EndSplineSet
Validated: 19457
EndChar

StartChar: x
Encoding: 120 120 49
Width: 527
VWidth: 1000
Flags: W
HStem: -5 57<13 111.25 172.471 216 280 321 446 516> 392 57<17 87 211 252 294 338.498 412.16 498>
LayerCount: 2
Fore
SplineSet
310 249 m 1,0,-1
 446 52 l 1,1,-1
 516 52 l 1,2,-1
 516 -5 l 1,3,-1
 511 -5 l 2,4,5
 409 -2 409 -2 404 -2 c 0,6,7
 375 -2 375 -2 285 -5 c 2,8,-1
 280 -5 l 1,9,-1
 280 52 l 1,10,-1
 321 52 l 1,11,-1
 246 161 l 1,12,-1
 172 60 l 1,13,14
 187 53 187 53 211 52 c 2,15,-1
 216 52 l 1,16,-1
 216 -5 l 1,17,-1
 211 -5 l 2,18,19
 148 -2 148 -2 109 -2 c 0,20,21
 63 -2 63 -2 18 -5 c 2,22,-1
 13 -5 l 1,23,-1
 13 52 l 1,24,-1
 18 52 l 2,25,26
 48 52 48 52 61 52 c 128,-1,27
 74 52 74 52 89 57 c 0,28,29
 102 61 102 61 108 69 c 2,30,-1
 212 211 l 1,31,-1
 87 392 l 1,32,-1
 17 392 l 1,33,-1
 17 449 l 1,34,-1
 22 449 l 2,35,36
 76 446 76 446 129 446 c 0,37,38
 160 446 160 446 247 449 c 2,39,-1
 252 449 l 1,40,-1
 252 392 l 1,41,-1
 211 392 l 1,42,-1
 276 298 l 1,43,-1
 339 384 l 1,44,45
 323 392 323 392 299 392 c 2,46,-1
 294 392 l 1,47,-1
 294 449 l 1,48,-1
 299 449 l 2,49,50
 383 446 383 446 402 446 c 0,51,52
 445 446 445 446 493 449 c 2,53,-1
 498 449 l 1,54,-1
 498 392 l 1,55,-1
 493 392 l 2,56,57
 455 392 455 392 436 390 c 128,-1,58
 417 388 417 388 412 384.5 c 128,-1,59
 407 381 407 381 402 374 c 2,60,-1
 310 249 l 1,0,-1
EndSplineSet
Validated: 19457
EndChar

StartChar: y
Encoding: 121 121 50
Width: 527
VWidth: 1000
Flags: W
HStem: -205 46<113 165.321> 392 57<17 81 208 262 330 381.773 445.096 510>
VStem: 14 125<-155.892 -63.0492>
LayerCount: 2
Fore
SplineSet
438 371 m 2,0,-1
 261 -86 l 2,1,2
 244 -131 244 -131 204 -168 c 0,3,4
 165 -205 165 -205 112 -205 c 0,5,6
 70 -205 70 -205 42 -176 c 128,-1,7
 14 -147 14 -147 14 -108 c 0,8,9
 14 -78 14 -78 33 -61 c 0,10,11
 51 -45 51 -45 76 -45 c 0,12,13
 103 -45 103 -45 121 -62.5 c 128,-1,14
 139 -80 139 -80 139 -107 c 0,15,16
 139 -141 139 -141 113 -159 c 5,17,18
 158 -159 158 -159 190 -106 c 4,19,20
 203 -84 203 -84 233 -0 c 1,21,-1
 81 392 l 1,22,-1
 17 392 l 1,23,-1
 17 449 l 1,24,-1
 22 449 l 2,25,26
 124 446 124 446 134 446 c 0,27,28
 170 446 170 446 257 449 c 2,29,-1
 262 449 l 1,30,-1
 262 392 l 1,31,-1
 208 392 l 1,32,33
 233 321 233 321 297 164 c 1,34,-1
 377 374 l 1,35,-1
 379 380 l 2,36,37
 380 384 380 384 382 386 c 1,38,39
 375 392 375 392 335 392 c 2,40,-1
 330 392 l 1,41,-1
 330 449 l 1,42,-1
 335 449 l 2,43,44
 374 446 374 446 426 446 c 0,45,46
 468 446 468 446 505 449 c 2,47,-1
 510 449 l 1,48,-1
 510 392 l 1,49,-1
 505 392 l 2,50,51
 475 392 475 392 461 389 c 0,52,53
 448 386 448 386 445 383 c 128,-1,54
 442 380 442 380 438 371 c 2,0,-1
EndSplineSet
Validated: 19457
EndChar

StartChar: z
Encoding: 122 122 51
Width: 444
VWidth: 1000
Flags: W
HStem: -5 50<168 304.762> 403 46<127.297 260>
VStem: 37 57<264 366.899>
LayerCount: 2
Fore
SplineSet
32 47 m 2,0,-1
 260 403 l 1,1,-1
 216 403 l 2,2,3
 143 403 143 403 121 374 c 0,4,5
 98 344 98 344 94 269 c 2,6,-1
 94 264 l 1,7,-1
 37 264 l 1,8,-1
 49 449 l 1,9,-1
 367 449 l 2,10,11
 379 449 379 449 384 448 c 0,12,13
 391 447 391 447 398 442 c 0,14,15
 404 436 404 436 404 423 c 0,16,17
 404 412 404 412 395 399 c 2,18,-1
 168 45 l 1,19,-1
 214 45 l 2,20,21
 249 45 249 45 273.5 53 c 128,-1,22
 298 61 298 61 311 72 c 128,-1,23
 324 83 324 83 332 106 c 0,24,25
 340 130 340 130 343 148 c 0,26,27
 346 167 346 167 349 202 c 2,28,-1
 349 207 l 1,29,-1
 406 207 l 1,30,-1
 388 -5 l 1,31,-1
 60 -5 l 2,32,33
 48 -5 48 -5 42 -4 c 0,34,35
 35 -3 35 -3 29 3.5 c 128,-1,36
 23 10 23 10 23 22 c 0,37,38
 23 35 23 35 32 47 c 2,0,-1
EndSplineSet
Validated: 19457
EndChar

StartChar: exclamation
Encoding: 33 33 52
Width: 305
VWidth: 1000
Flags: W
HStem: -5 166<96.8177 209.182>
VStem: 70 166<21.8177 134.182 469.062 686.555>
LayerCount: 2
Fore
SplineSet
71 615 m 2,0,1
 69 625 69 625 69 634 c 0,2,3
 69 665 69 665 94 688 c 0,4,5
 119 710 119 710 153 710 c 128,-1,6
 187 710 187 710 212 688 c 128,-1,7
 237 666 237 666 237 634 c 0,8,9
 237 633 237 633 236 627 c 2,10,-1
 235 621 l 1,11,-1
 183 247 l 2,12,13
 181 230 181 230 175 226 c 0,14,15
 169 221 169 221 153 221 c 0,16,17
 135 221 135 221 130 227 c 0,18,19
 125 232 125 232 123 251 c 2,20,-1
 71 615 l 2,0,1
236 78 m 128,-1,22
 236 44 236 44 211.5 19.5 c 128,-1,23
 187 -5 187 -5 153 -5 c 128,-1,24
 119 -5 119 -5 94.5 19.5 c 128,-1,25
 70 44 70 44 70 78 c 128,-1,26
 70 112 70 112 94.5 136.5 c 128,-1,27
 119 161 119 161 153 161 c 128,-1,28
 187 161 187 161 211.5 136.5 c 128,-1,21
 236 112 236 112 236 78 c 128,-1,22
EndSplineSet
Validated: 19457
EndChar

StartChar: dquote
Encoding: 34 34 53
Width: 544
VWidth: 1000
Flags: W
HStem: 533 166<52.6434 160.269 291.643 399.269>
VStem: 28 180<559.193 655.109> 267 180<559.193 655.109>
LayerCount: 2
Fore
SplineSet
161 547 m 1,0,1
 140 533 140 533 111 533 c 0,2,3
 73 533 73 533 50.5 557.5 c 128,-1,4
 28 582 28 582 28 616 c 0,5,6
 28 651 28 651 51 675 c 128,-1,7
 74 699 74 699 110 699 c 0,8,9
 155 699 155 699 182 661 c 0,10,11
 208 624 208 624 208 569 c 0,12,13
 208 506 208 506 180 449 c 0,14,15
 153 393 153 393 126 366 c 0,16,17
 98 339 98 339 86 339 c 0,18,19
 78 339 78 339 70 347 c 128,-1,20
 62 355 62 355 62 364 c 0,21,22
 62 372 62 372 78 387 c 0,23,24
 151 448 151 448 161 547 c 1,0,1
400 547 m 1,25,26
 379 533 379 533 350 533 c 0,27,28
 312 533 312 533 289.5 557.5 c 128,-1,29
 267 582 267 582 267 616 c 0,30,31
 267 651 267 651 290 675 c 128,-1,32
 313 699 313 699 349 699 c 0,33,34
 394 699 394 699 421 661 c 0,35,36
 447 624 447 624 447 569 c 0,37,38
 447 506 447 506 419 449 c 0,39,40
 392 393 392 393 365 366 c 0,41,42
 337 339 337 339 325 339 c 0,43,44
 317 339 317 339 309 347 c 128,-1,45
 301 355 301 355 301 364 c 0,46,47
 301 372 301 372 317 387 c 0,48,49
 390 448 390 448 400 547 c 1,25,26
EndSplineSet
Validated: 19457
EndChar

StartChar: number
Encoding: 35 35 54
Width: 833
VWidth: 1000
Flags: W
HStem: 103 71<53.5269 231 323 450 542 778.473> 327 71<53.5269 290 382 509 601 778.473> 679 20G<401 423 620 642>
VStem: 381 72<-188.171 -145.214 638.419 688.171>
LayerCount: 2
Fore
SplineSet
523 103 m 1,0,-1
 453 -165 l 2,1,2
 445 -199 445 -199 417 -199 c 0,3,4
 401 -199 401 -199 391 -188.5 c 128,-1,5
 381 -178 381 -178 381 -164 c 0,6,7
 381 -158 381 -158 385 -143 c 2,8,-1
 450 103 l 1,9,-1
 304 103 l 1,10,-1
 234 -165 l 2,11,12
 226 -199 226 -199 198 -199 c 0,13,14
 182 -199 182 -199 172 -188.5 c 128,-1,15
 162 -178 162 -178 162 -164 c 0,16,17
 162 -158 162 -158 166 -143 c 2,18,-1
 231 103 l 1,19,-1
 102 103 l 2,20,21
 51 103 51 103 51 139 c 0,22,23
 51 174 51 174 97 174 c 2,24,-1
 250 174 l 1,25,-1
 290 327 l 1,26,-1
 97 327 l 2,27,28
 51 327 51 327 51 362 c 0,29,30
 51 398 51 398 102 398 c 2,31,-1
 309 398 l 1,32,-1
 379 665 l 2,33,34
 387 699 387 699 415 699 c 0,35,36
 431 699 431 699 441 688.5 c 128,-1,37
 451 678 451 678 451 664 c 0,38,39
 451 658 451 658 447 643 c 2,40,-1
 382 398 l 1,41,-1
 528 398 l 1,42,-1
 598 665 l 2,43,44
 606 699 606 699 634 699 c 0,45,46
 650 699 650 699 660 688.5 c 128,-1,47
 670 678 670 678 670 664 c 0,48,49
 670 658 670 658 666 643 c 2,50,-1
 601 398 l 1,51,-1
 730 398 l 2,52,53
 781 398 781 398 781 362 c 0,54,55
 781 327 781 327 735 327 c 2,56,-1
 582 327 l 1,57,-1
 542 174 l 1,58,-1
 735 174 l 2,59,60
 781 174 781 174 781 139 c 0,61,62
 781 103 781 103 730 103 c 2,63,-1
 523 103 l 1,0,-1
323 174 m 1,64,-1
 469 174 l 1,65,-1
 509 327 l 1,66,-1
 363 327 l 1,67,-1
 323 174 l 1,64,-1
EndSplineSet
Validated: 19457
EndChar

StartChar: dollar
Encoding: 36 36 55
Width: 500
VWidth: 1000
Flags: W
HStem: -9 57<162.172 221 278 320.583> 646 58<278 339.318>
VStem: 51 135<139.079 239.234> 51 90<482.969 601.075> 221 57<-61 -5.58203 49 275 446 645 701.094 755> 313 135<468.566 564.343> 358 90<100.622 232.954>
LayerCount: 2
Fore
SplineSet
278 646 m 1,0,-1
 278 432 l 1,1,2
 329 421 329 421 364 394 c 0,3,4
 401 366 401 366 418 331 c 128,-1,5
 435 296 435 296 441.5 267 c 128,-1,6
 448 238 448 238 448 210 c 0,7,8
 448 126 448 126 406 65 c 128,-1,9
 364 4 364 4 278 -9 c 1,10,-1
 278 -61 l 1,11,-1
 221 -61 l 1,12,-1
 221 -9 l 1,13,14
 176 -3 176 -3 143 15 c 0,15,16
 107 35 107 35 87 64 c 0,17,18
 68 93 68 93 59.5 123 c 128,-1,19
 51 153 51 153 51 185 c 0,20,21
 51 216 51 216 68 234 c 128,-1,22
 85 252 85 252 97 254 c 0,23,24
 109 257 109 257 119 257 c 0,25,26
 143 257 143 257 164 240 c 0,27,28
 186 223 186 223 186 189 c 0,29,30
 186 175 186 175 181 162 c 0,31,32
 176 148 176 148 159 135 c 0,33,34
 144 124 144 124 121 122 c 1,35,36
 147 59 147 59 221 48 c 1,37,-1
 221 290 l 1,38,39
 132 309 132 309 92 370 c 0,40,41
 51 432 51 432 51 498 c 0,42,43
 51 580 51 580 96 637 c 0,44,45
 140 693 140 693 221 703 c 1,46,-1
 221 755 l 1,47,-1
 278 755 l 1,48,-1
 278 704 l 1,49,50
 362 695 362 695 404 644 c 0,51,52
 448 592 448 592 448 522 c 0,53,54
 448 482 448 482 425 466 c 0,55,56
 403 451 403 451 380 451 c 0,57,58
 355 451 355 451 334 468 c 0,59,60
 313 486 313 486 313 519 c 0,61,62
 313 544 313 544 330 565 c 0,63,64
 345 584 345 584 375 586 c 1,65,66
 348 636 348 636 278 646 c 1,0,-1
221 446 m 1,67,-1
 221 645 l 1,68,69
 176 635 176 635 159 607 c 0,70,71
 141 576 141 576 141 546 c 0,72,73
 141 514 141 514 162 484 c 0,74,75
 181 457 181 457 221 446 c 1,67,-1
278 275 m 1,76,-1
 278 49 l 1,77,78
 358 69 358 69 358 161 c 0,79,80
 358 200 358 200 336 233 c 0,81,82
 316 263 316 263 278 275 c 1,76,-1
EndSplineSet
Validated: 19457
EndChar

StartChar: percent
Encoding: 37 37 56
Width: 833
VWidth: 1000
Flags: W
HStem: -61 46<622.718 689.457> 306 46<623.237 689.291> 342 46<179.718 246.662> 606 45<359.823 554.142> 709 46<180.237 246.031>
VStem: 51 113<430.949 666.949> 281 57<427.426 636.597> 494 113<27.9495 263.949> 724 57<25.047 265.026>
LayerCount: 2
Fore
SplineSet
688 693 m 2,0,-1
 202 -40 l 2,1,2
 187 -61 187 -61 170 -61 c 0,3,4
 155 -61 155 -61 144.5 -50.5 c 128,-1,5
 134 -40 134 -40 134 -25 c 0,6,7
 134 -16 134 -16 146 3 c 2,8,-1
 555 621 l 1,9,10
 513 606 513 606 463 606 c 0,11,12
 395 606 395 606 329 638 c 1,13,14
 338 599 338 599 338 549 c 0,15,16
 338 443 338 443 299 393 c 0,17,18
 260 342 260 342 207 342 c 0,19,20
 148 342 148 342 99.5 392 c 128,-1,21
 51 442 51 442 51 549 c 0,22,23
 51 653 51 653 98.5 704 c 128,-1,24
 146 755 146 755 207 755 c 0,25,26
 247 755 247 755 282 725 c 1,27,28
 364 651 364 651 462 651 c 0,29,30
 568 651 568 651 631 736 c 0,31,32
 644 755 644 755 663 755 c 0,33,34
 676 755 676 755 687 745 c 128,-1,35
 698 735 698 735 698 719 c 0,36,37
 698 707 698 707 688 693 c 2,0,-1
209 388 m 0,38,39
 235 388 235 388 258 426 c 0,40,41
 281 465 281 465 281 549 c 0,42,43
 281 631 281 631 258 670 c 128,-1,44
 235 709 235 709 209 709 c 0,45,46
 199 709 199 709 191 703.5 c 128,-1,47
 183 698 183 698 179 685 c 0,48,49
 174 671 174 671 170 658 c 0,50,51
 167 646 167 646 166 623 c 128,-1,52
 165 600 165 600 164.5 586.5 c 128,-1,53
 164 573 164 573 164 548 c 128,-1,54
 164 523 164 523 164.5 510 c 128,-1,55
 165 497 165 497 166 474 c 0,56,57
 167 452 167 452 170 439 c 128,-1,58
 173 426 173 426 179 412 c 0,59,60
 183 399 183 399 191 393.5 c 128,-1,61
 199 388 199 388 209 388 c 0,38,39
781 145 m 0,62,63
 781 42 781 42 743 -9 c 0,64,65
 705 -61 705 -61 650 -61 c 0,66,67
 591 -61 591 -61 542.5 -11 c 128,-1,68
 494 39 494 39 494 146 c 0,69,70
 494 250 494 250 541.5 301 c 128,-1,71
 589 352 589 352 650 352 c 0,72,73
 703 352 703 352 742 301 c 0,74,75
 781 251 781 251 781 145 c 0,62,63
652 -15 m 0,76,77
 678 -15 678 -15 701 23 c 0,78,79
 724 62 724 62 724 146 c 0,80,81
 724 228 724 228 701 267 c 128,-1,82
 678 306 678 306 652 306 c 0,83,84
 642 306 642 306 634 300.5 c 128,-1,85
 626 295 626 295 622 282 c 0,86,87
 617 268 617 268 613 255 c 0,88,89
 610 243 610 243 609 220 c 128,-1,90
 608 197 608 197 607.5 183.5 c 128,-1,91
 607 170 607 170 607 145 c 128,-1,92
 607 120 607 120 607.5 107 c 128,-1,93
 608 94 608 94 609 71 c 0,94,95
 610 49 610 49 613 36 c 128,-1,96
 616 23 616 23 622 9 c 0,97,98
 626 -4 626 -4 634 -9.5 c 128,-1,99
 642 -15 642 -15 652 -15 c 0,76,77
EndSplineSet
Validated: 19457
EndChar

StartChar: ampersand
Encoding: 38 38 57
Width: 777
VWidth: 1000
Flags: W
HStem: -16 57<192.713 321.742 528.989 641.064> 392 57<501 577.675 645.127 732> 664 46<271.514 338.467>
VStem: 37 138<63.2578 209.688> 138 114<432.437 621.119> 356 57<508.892 653.206> 669 57<65.7708 123>
LayerCount: 2
Fore
SplineSet
669 123 m 1,0,-1
 726 123 l 1,1,-1
 726 118 l 2,2,3
 725 59 725 59 683 21 c 0,4,5
 641 -16 641 -16 579 -16 c 0,6,7
 483 -16 483 -16 398 47 c 1,8,9
 316 -16 316 -16 223 -16 c 0,10,11
 146 -16 146 -16 92 28 c 0,12,13
 37 72 37 72 37 137 c 0,14,15
 37 179 37 179 63 216 c 0,16,17
 68 224 68 224 118 275 c 0,18,19
 167 324 167 324 178 333 c 1,20,21
 138 433 138 433 138 528 c 0,22,23
 138 611 138 611 191 660.5 c 128,-1,24
 244 710 244 710 309 710 c 0,25,26
 362 710 362 710 388 666 c 0,27,28
 413 623 413 623 413 574 c 0,29,30
 413 504 413 504 292 382 c 1,31,32
 332 287 332 287 436 161 c 1,33,34
 477 209 477 209 512 271 c 2,35,-1
 512 272 l 2,36,37
 514 275 514 275 532 305.5 c 128,-1,38
 550 336 550 336 564 361 c 0,39,40
 575 379 575 379 578 385 c 1,41,42
 568 392 568 392 506 392 c 2,43,-1
 501 392 l 1,44,-1
 501 449 l 1,45,-1
 506 449 l 2,46,47
 546 446 546 446 628 446 c 0,48,49
 679 446 679 446 727 449 c 2,50,-1
 732 449 l 1,51,-1
 732 392 l 1,52,-1
 727 392 l 2,53,54
 684 392 684 392 663 389 c 0,55,56
 649 387 649 387 645 384 c 0,57,58
 641 380 641 380 630 363 c 0,59,60
 614 338 614 338 608 324 c 2,61,-1
 607 324 l 1,62,-1
 607 323 l 2,63,64
 523 180 523 180 472 118 c 1,65,66
 537 41 537 41 585 41 c 0,67,68
 611 41 611 41 639 59 c 0,69,70
 666 77 666 77 669 118 c 2,71,-1
 669 123 l 1,0,-1
274 431 m 1,72,73
 356 520 356 520 356 575 c 0,74,75
 356 583 356 583 354.5 593.5 c 128,-1,76
 353 604 353 604 349 623 c 0,77,78
 345 641 345 641 335 653 c 0,79,80
 325 664 325 664 311 664 c 0,81,82
 289 664 289 664 271 641 c 0,83,84
 252 618 252 618 252 565 c 0,85,86
 252 499 252 499 274 431 c 1,72,73
199 287 m 1,87,88
 175 249 175 249 175 174 c 0,89,90
 175 129 175 129 180 101 c 128,-1,91
 185 73 185 73 194.5 61 c 128,-1,92
 204 49 204 49 212.5 45 c 128,-1,93
 221 41 221 41 233 41 c 0,94,95
 294 41 294 41 354 82 c 1,96,97
 257 171 257 171 199 287 c 1,87,88
EndSplineSet
Validated: 19457
EndChar

StartChar: quote
Encoding: 39 39 58
Width: 277
VWidth: 1000
Flags: W
HStem: 533 166<80.6434 188.269>
VStem: 56 180<559.193 655.109>
LayerCount: 2
Fore
SplineSet
189 547 m 1,0,1
 168 533 168 533 139 533 c 0,2,3
 101 533 101 533 78.5 557.5 c 128,-1,4
 56 582 56 582 56 616 c 0,5,6
 56 651 56 651 79 675 c 128,-1,7
 102 699 102 699 138 699 c 0,8,9
 183 699 183 699 210 661 c 0,10,11
 236 624 236 624 236 569 c 0,12,13
 236 506 236 506 208 449 c 0,14,15
 181 393 181 393 154 366 c 0,16,17
 126 339 126 339 114 339 c 0,18,19
 106 339 106 339 98 347 c 128,-1,20
 90 355 90 355 90 364 c 0,21,22
 90 372 90 372 106 387 c 0,23,24
 179 448 179 448 189 547 c 1,0,1
EndSplineSet
Validated: 19457
EndChar

StartChar: lparen
Encoding: 40 40 59
Width: 388
VWidth: 1000
Flags: W
VStem: 87 107<62.2823 445.047>
LayerCount: 2
Fore
SplineSet
337 -235 m 0,0,1
 337 -254 337 -254 314 -254 c 0,2,3
 293 -254 293 -254 243 -199 c 0,4,5
 194 -145 194 -145 164 -87 c 0,6,7
 87 63 87 63 87 250 c 0,8,9
 87 530 87 530 244 702 c 0,10,11
 244 703 l 0,12,13
 296 755 296 755 314 755 c 0,14,15
 337 755 337 755 337 736 c 0,16,17
 337 728 337 728 328 719 c 0,18,19
 194 560 194 560 194 250 c 0,20,21
 194 -61 194 -61 326 -215 c 0,22,23
 337 -227 337 -227 337 -235 c 0,0,1
EndSplineSet
Validated: 19457
EndChar

StartChar: rparen
Encoding: 41 41 60
Width: 388
VWidth: 1000
Flags: W
VStem: 194 107<57.75 439.043>
LayerCount: 2
Fore
SplineSet
301 250 m 0,0,1
 301 -29 301 -29 144 -201 c 0,2,-1
 144 -202 l 1,3,4
 92 -254 92 -254 74 -254 c 0,5,6
 51 -254 51 -254 51 -235 c 0,7,8
 51 -227 51 -227 65 -211 c 0,9,10
 194 -52 194 -52 194 251 c 0,11,12
 194 561 194 561 62 716 c 0,13,14
 51 728 51 728 51 736 c 0,15,16
 51 755 51 755 74 755 c 0,17,18
 95 755 95 755 147 698 c 0,19,20
 198 642 198 642 233 570 c 0,21,22
 301 431 301 431 301 250 c 0,0,1
EndSplineSet
Validated: 19457
EndChar

StartChar: asterisk
Encoding: 42 42 61
Width: 500
VWidth: 1000
Flags: W
HStem: 389 96<67.1602 89 410 431.84> 571 96<67.1602 89 410 431.84>
VStem: 200 99<313.408 477.109 578.891 742.592>
LayerCount: 2
Fore
SplineSet
410 485 m 1,0,1
 442 474 442 474 442 443 c 0,2,3
 442 420 442 420 426 404.5 c 128,-1,4
 410 389 410 389 392 389 c 0,5,6
 377 389 377 389 361 404 c 2,7,-1
 277 479 l 1,8,-1
 296 366 l 2,9,10
 299 347 299 347 299 345 c 0,11,12
 299 326 299 326 284 313 c 0,13,14
 269 301 269 301 249 301 c 0,15,16
 230 301 230 301 215 313 c 128,-1,17
 200 325 200 325 200 345 c 0,18,19
 200 347 200 347 201 349 c 0,20,21
 201 350 201 350 201.5 352.5 c 128,-1,22
 202 355 202 355 202 358 c 0,23,-1
 222 479 l 1,24,-1
 138 403 l 2,25,26
 122 389 122 389 107 389 c 0,27,28
 89 389 89 389 73 404.5 c 128,-1,29
 57 420 57 420 57 443 c 0,30,31
 57 474 57 474 89 485 c 1,32,-1
 198 528 l 1,33,-1
 89 571 l 1,34,35
 57 582 57 582 57 613 c 0,36,37
 57 636 57 636 73 651.5 c 128,-1,38
 89 667 89 667 107 667 c 0,39,40
 122 667 122 667 138 652 c 2,41,-1
 222 577 l 1,42,-1
 203 690 l 2,43,44
 200 709 200 709 200 711 c 0,45,46
 200 730 200 730 215 743 c 0,47,48
 230 755 230 755 250 755 c 0,49,50
 269 755 269 755 284 743 c 128,-1,51
 299 731 299 731 299 711 c 0,52,53
 299 709 299 709 298 707 c 0,54,55
 298 706 298 706 297.5 703.5 c 128,-1,56
 297 701 297 701 297 698 c 0,57,-1
 277 577 l 1,58,-1
 361 653 l 2,59,60
 377 667 377 667 392 667 c 0,61,62
 410 667 410 667 426 651.5 c 128,-1,63
 442 636 442 636 442 613 c 0,64,65
 442 582 442 582 410 571 c 1,66,-1
 301 528 l 1,67,-1
 410 485 l 1,0,1
EndSplineSet
Validated: 19457
EndChar

StartChar: plus
Encoding: 43 43 62
Width: 777
VWidth: 1000
Flags: W
HStem: 215 71<53.2969 353 424 723.703>
VStem: 353 71<-84.751 215 286 585.751>
LayerCount: 2
Fore
SplineSet
424 215 m 1,0,-1
 424 -40 l 2,1,2
 424 -87 424 -87 388 -87 c 0,3,4
 353 -87 353 -87 353 -40 c 2,5,-1
 353 215 l 1,6,-1
 99 215 l 2,7,8
 51 215 51 215 51 251 c 0,9,10
 51 286 51 286 99 286 c 2,11,-1
 353 286 l 1,12,-1
 353 541 l 2,13,14
 353 588 353 588 389 588 c 0,15,16
 424 588 424 588 424 541 c 2,17,-1
 424 286 l 1,18,-1
 678 286 l 2,19,20
 726 286 726 286 726 250 c 0,21,22
 726 215 726 215 678 215 c 2,23,-1
 424 215 l 1,0,-1
EndSplineSet
Validated: 19457
EndChar

StartChar: comma
Encoding: 44 44 63
Width: 277
VWidth: 1000
Flags: W
HStem: -5 166<80.6434 184.387>
VStem: 56 177<21.343 118.305>
LayerCount: 2
Fore
SplineSet
185 7 m 1,0,1
 167 -5 167 -5 139 -5 c 0,2,3
 101 -5 101 -5 78.5 19.5 c 128,-1,4
 56 44 56 44 56 78 c 0,5,6
 56 113 56 113 79 137 c 128,-1,7
 102 161 102 161 138 161 c 0,8,9
 183 161 183 161 208 123 c 0,10,11
 233 86 233 86 233 31 c 0,12,13
 233 -31 233 -31 207 -88 c 0,14,15
 181 -144 181 -144 154 -171 c 0,16,17
 127 -199 127 -199 114 -199 c 0,18,19
 106 -199 106 -199 98 -191 c 128,-1,20
 90 -183 90 -183 90 -174 c 0,21,22
 90 -166 90 -166 104 -153 c 0,23,24
 176 -89 176 -89 185 7 c 1,0,1
EndSplineSet
Validated: 19457
EndChar

StartChar: hyphen
Encoding: 45 45 64
Width: 333
VWidth: 1000
Flags: W
HStem: 169 107<6 281>
VStem: 6 275<169 276>
LayerCount: 2
Fore
SplineSet
281 169 m 1,0,-1
 6 169 l 1,1,-1
 6 276 l 1,2,-1
 281 276 l 1,3,-1
 281 169 l 1,0,-1
EndSplineSet
Validated: 19457
EndChar

StartChar: period
Encoding: 46 46 65
Width: 277
VWidth: 1000
Flags: W
HStem: -5 166<82.8177 195.182>
VStem: 56 166<21.8177 134.182>
LayerCount: 2
Fore
SplineSet
222 78 m 128,-1,1
 222 44 222 44 197.5 19.5 c 128,-1,2
 173 -5 173 -5 139 -5 c 128,-1,3
 105 -5 105 -5 80.5 19.5 c 128,-1,4
 56 44 56 44 56 78 c 128,-1,5
 56 112 56 112 80.5 136.5 c 128,-1,6
 105 161 105 161 139 161 c 128,-1,7
 173 161 173 161 197.5 136.5 c 128,-1,0
 222 112 222 112 222 78 c 128,-1,1
EndSplineSet
Validated: 19457
EndChar

StartChar: slash
Encoding: 47 47 66
Width: 500
VWidth: 1000
Flags: W
VStem: 51 73<-244.686 -222>
LayerCount: 2
Fore
SplineSet
443 698 m 2,0,-1
 124 -222 l 1,1,2
 114 -255 114 -255 86 -255 c 0,3,4
 73 -255 73 -255 62 -245 c 128,-1,5
 51 -235 51 -235 51 -219 c 0,6,7
 51 -212 51 -212 56 -198 c 2,8,-1
 376 724 l 2,9,10
 387 755 387 755 413 755 c 0,11,12
 426 755 426 755 437 745 c 128,-1,13
 448 735 448 735 448 719 c 0,14,15
 448 712 448 712 443 698 c 2,0,-1
EndSplineSet
Validated: 19457
EndChar

StartChar: digit0
Encoding: 48 48 67
Width: 500
VWidth: 1000
Flags: W
HStem: -16 46<201.912 295.385> 614 46<200.223 296.915>
VStem: 34 138<128.41 512.472> 323 142<129.59 511.472>
LayerCount: 2
Fore
SplineSet
465 319 m 2,0,-1
 465 282 l 2,1,2
 465 268 465 268 463 238.5 c 128,-1,3
 461 209 461 209 457.5 189 c 128,-1,4
 454 169 454 169 446 141 c 0,5,6
 438 112 438 112 428 92 c 128,-1,7
 418 72 418 72 401 50 c 128,-1,8
 384 28 384 28 363 14.5 c 128,-1,9
 342 1 342 1 313 -7.5 c 128,-1,10
 284 -16 284 -16 249 -16 c 0,11,12
 205 -16 205 -16 169.5 -1.5 c 128,-1,13
 134 13 134 13 112 33.5 c 128,-1,14
 90 54 90 54 74 87 c 128,-1,15
 58 120 58 120 50.5 146.5 c 128,-1,16
 43 173 43 173 39 212 c 128,-1,17
 35 251 35 251 34.5 270 c 128,-1,18
 34 289 34 289 34 319 c 0,19,20
 34 350 34 350 34.5 369 c 128,-1,21
 35 388 35 388 39 428 c 0,22,23
 43 467 43 467 50.5 494 c 128,-1,24
 58 521 58 521 74 555 c 128,-1,25
 90 589 90 589 112 609.5 c 128,-1,26
 134 630 134 630 170 645 c 128,-1,27
 206 660 206 660 250 660 c 128,-1,28
 294 660 294 660 329.5 645 c 128,-1,29
 365 630 365 630 387 609 c 128,-1,30
 409 588 409 588 425 554 c 128,-1,31
 441 520 441 520 448.5 493 c 128,-1,32
 456 466 456 466 460 427 c 128,-1,33
 464 388 464 388 464.5 368.5 c 128,-1,34
 465 349 465 349 465 319 c 2,0,-1
250 30 m 0,35,36
 263 30 263 30 276 36 c 0,37,38
 289 41 289 41 304.5 64.5 c 128,-1,39
 320 88 320 88 323 126 c 0,40,41
 327 174 327 174 327 331 c 0,42,43
 327 476 327 476 323 521 c 0,44,45
 319 573 319 573 296.5 593.5 c 128,-1,46
 274 614 274 614 249 614 c 0,47,48
 243 614 243 614 234.5 611.5 c 128,-1,49
 226 609 226 609 212 602 c 0,50,51
 199 595 199 595 188 573 c 128,-1,52
 177 551 177 551 175 520 c 0,53,54
 172 477 172 477 172 330 c 0,55,56
 172 182 172 182 176 131 c 0,57,58
 178 99 178 99 187 77 c 128,-1,59
 196 55 196 55 209 46 c 0,60,61
 222 36 222 36 231.5 33 c 128,-1,62
 241 30 241 30 250 30 c 0,35,36
EndSplineSet
Validated: 19457
EndChar

StartChar: digit1
Encoding: 49 49 68
Width: 500
VWidth: 1000
Flags: W
HStem: -5 57<78 190 319 435> 539 57<64 188.371>
VStem: 190 129<52 554>
LayerCount: 2
Fore
SplineSet
319 623 m 2,0,-1
 319 52 l 1,1,-1
 435 52 l 1,2,-1
 435 -5 l 1,3,-1
 430 -5 l 2,4,5
 392 -2 392 -2 255 -2 c 0,6,7
 121 -2 121 -2 83 -5 c 2,8,-1
 78 -5 l 1,9,-1
 78 52 l 1,10,-1
 190 52 l 1,11,-1
 190 554 l 1,12,13
 138 539 138 539 69 539 c 2,14,-1
 64 539 l 1,15,-1
 64 596 l 1,16,-1
 69 596 l 2,17,18
 207 596 207 596 272 659 c 2,19,-1
 273 660 l 1,20,-1
 275 660 l 2,21,22
 304 660 304 660 311 654 c 0,23,24
 319 648 319 648 319 623 c 2,0,-1
EndSplineSet
Validated: 19457
EndChar

StartChar: digit2
Encoding: 50 50 69
Width: 500
VWidth: 1000
Flags: W
HStem: -5 135<182 375.671> 603 57<149.185 271.311>
VStem: 45 154<445.765 556.238> 306 148<379.322 556.044> 397 58<176.607 227>
LayerCount: 2
Fore
SplineSet
455 227 m 1,0,-1
 422 -5 l 1,1,-1
 45 -5 l 1,2,-1
 45 18 l 2,3,4
 45 41 45 41 56 54 c 2,5,-1
 214 252 l 2,6,7
 306 367 306 367 306 466 c 0,8,9
 306 486 306 486 302.5 506 c 128,-1,10
 299 526 299 526 290 550 c 0,11,12
 282 574 282 574 262.5 588.5 c 128,-1,13
 243 603 243 603 215 603 c 0,14,15
 171 603 171 603 143 576 c 1,16,17
 166 569 166 569 181 553 c 0,18,19
 199 533 199 533 199 501 c 0,20,21
 199 464 199 464 175 444 c 128,-1,22
 151 424 151 424 122 424 c 0,23,24
 95 424 95 424 71 442 c 0,25,26
 45 461 45 461 45 503 c 0,27,28
 45 568 45 568 101 614 c 0,29,30
 156 660 156 660 237 660 c 0,31,32
 331 660 331 660 392 605 c 0,33,34
 454 550 454 550 454 466 c 0,35,36
 454 387 454 387 383 314 c 0,37,38
 373 304 373 304 336 273 c 0,39,40
 300 242 300 242 290 232 c 0,41,42
 277 220 277 220 231 177 c 0,43,44
 197 145 197 145 182 130 c 1,45,-1
 289 130 l 2,46,47
 366 130 366 130 376 136 c 1,48,49
 388 152 388 152 397 223 c 2,50,-1
 398 227 l 1,51,-1
 455 227 l 1,0,-1
EndSplineSet
Validated: 19457
EndChar

StartChar: digit3
Encoding: 51 51 70
Width: 500
VWidth: 1000
Flags: W
HStem: -16 53<149.279 275.87> 326 41<167.188 194.658> 611 49<163.804 274.63>
VStem: 37 163<84.6958 198.608> 64 149<458.174 556.312> 288 147<432.779 588.18> 299 163<90.1211 263.838>
LayerCount: 2
Fore
SplineSet
273 419 m 1,0,1
 288 459 288 459 288 520 c 0,2,3
 288 538 288 538 286.5 549.5 c 128,-1,4
 285 561 285 561 280 578 c 0,5,6
 275 594 275 594 263 602 c 0,7,8
 250 611 250 611 230 611 c 0,9,10
 187 611 187 611 155 582 c 1,11,12
 185 576 185 576 198 557 c 0,13,14
 213 535 213 535 213 510 c 0,15,16
 213 479 213 479 192.5 457.5 c 128,-1,17
 172 436 172 436 138 436 c 0,18,19
 107 436 107 436 85.5 456 c 128,-1,20
 64 476 64 476 64 512 c 0,21,22
 64 570 64 570 111.5 615 c 128,-1,23
 159 660 159 660 236 660 c 0,24,25
 327 660 327 660 380 621 c 0,26,27
 435 581 435 581 435 516 c 0,28,29
 435 453 435 453 395 409 c 0,30,31
 361 372 361 372 319 352 c 1,32,33
 393 332 393 332 426 286 c 0,34,35
 462 236 462 236 462 180 c 0,36,37
 462 96 462 96 401 40 c 128,-1,38
 340 -16 340 -16 234 -16 c 0,39,40
 149 -16 149 -16 93 29 c 0,41,42
 37 75 37 75 37 139 c 0,43,44
 37 178 37 178 60.5 200 c 128,-1,45
 84 222 84 222 119 222 c 128,-1,46
 154 222 154 222 177 199.5 c 128,-1,47
 200 177 200 177 200 141 c 0,48,49
 200 107 200 107 180 86 c 0,50,51
 165 70 165 70 143 63 c 1,52,53
 180 37 180 37 229 37 c 0,54,55
 248 37 248 37 263 47 c 0,56,57
 277 57 277 57 284 70 c 128,-1,58
 291 83 291 83 294 107 c 0,59,60
 298 131 298 131 299 144 c 0,61,62
 299 158 299 158 299 181 c 0,63,64
 299 208 299 208 298 225 c 128,-1,65
 297 242 297 242 293 264 c 0,66,67
 289 285 289 285 281 296.5 c 128,-1,68
 273 308 273 308 258 316.5 c 128,-1,69
 243 325 243 325 221 325 c 2,70,-1
 195 325 l 2,71,72
 184 325 184 325 179 326 c 0,73,74
 173 327 173 327 167 331 c 0,75,76
 162 336 162 336 162 348 c 0,77,78
 162 363 162 363 171 367 c 0,79,80
 178 370 178 370 199 373 c 0,81,82
 216 374 216 374 224 375 c 128,-1,83
 232 376 232 376 243 381 c 0,84,85
 254 385 254 385 260 394 c 0,86,87
 266 404 266 404 273 419 c 1,0,1
EndSplineSet
Validated: 19457
EndChar

StartChar: digit4
Encoding: 52 52 71
Width: 500
VWidth: 1000
Flags: W
HStem: -5 57<168 265 400 476> 151 57<87 265 400 476>
VStem: 265 135<52 151> 276 124<208 477>
LayerCount: 2
Fore
SplineSet
400 151 m 1,0,-1
 400 52 l 1,1,-1
 476 52 l 1,2,-1
 476 -5 l 1,3,-1
 471 -5 l 2,4,5
 432 -2 432 -2 329 -2 c 0,6,7
 208 -2 208 -2 173 -5 c 2,8,-1
 168 -5 l 1,9,-1
 168 52 l 1,10,-1
 265 52 l 1,11,-1
 265 151 l 1,12,-1
 23 151 l 1,13,-1
 23 205 l 1,14,-1
 331 644 l 2,15,16
 339 656 339 656 346 659 c 0,17,18
 352 661 352 661 366 661 c 0,19,20
 388 661 388 661 394 653 c 0,21,22
 400 646 400 646 400 624 c 2,23,-1
 400 208 l 1,24,-1
 476 208 l 1,25,-1
 476 151 l 1,26,-1
 400 151 l 1,0,-1
276 477 m 1,27,-1
 87 208 l 1,28,-1
 276 208 l 1,29,-1
 276 477 l 1,27,-1
EndSplineSet
Validated: 19457
EndChar

StartChar: digit5
Encoding: 53 53 72
Width: 500
VWidth: 1000
Flags: W
HStem: -16 53<152.383 272.751> 368 46<170.539 284.519> 494 134<148.88 295.763>
VStem: 45 144<111.627 213.676> 85 63<387 498> 302 152<100.078 306.492>
LayerCount: 2
Fore
SplineSet
148 498 m 1,0,-1
 148 387 l 1,1,2
 192 414 192 414 248 414 c 0,3,4
 340 414 340 414 397 355.5 c 128,-1,5
 454 297 454 297 454 202 c 0,6,7
 454 102 454 102 388 43 c 128,-1,8
 322 -16 322 -16 220 -16 c 0,9,10
 141 -16 141 -16 93 38 c 128,-1,11
 45 92 45 92 45 159 c 0,12,13
 45 189 45 189 61 207 c 0,14,15
 76 225 76 225 91 230 c 0,16,17
 105 234 105 234 117 234 c 0,18,19
 143 234 143 234 166 216 c 128,-1,20
 189 198 189 198 189 161 c 0,21,22
 189 131 189 131 170 111 c 0,23,24
 154 93 154 93 124 90 c 1,25,26
 140 66 140 66 162 52 c 0,27,28
 189 37 189 37 216 37 c 0,29,30
 241 37 241 37 262 50 c 128,-1,31
 283 63 283 63 291 89 c 0,32,33
 302 118 302 118 302 208 c 0,34,35
 302 238 302 238 301.5 253 c 128,-1,36
 301 268 301 268 300 291 c 0,37,38
 299 313 299 313 294 324 c 0,39,40
 290 335 290 335 284 348 c 0,41,42
 278 359 278 359 269 363 c 0,43,44
 258 368 258 368 244 368 c 0,45,46
 176 368 176 368 137 312 c 0,47,48
 128 300 128 300 113 300 c 0,49,50
 94 300 94 300 89 310 c 0,51,52
 85 319 85 319 85 338 c 2,53,-1
 85 626 l 2,54,55
 85 636 85 636 86 641 c 0,56,57
 87 647 87 647 91 654 c 0,58,59
 96 660 96 660 105 660 c 2,60,-1
 106 660 l 1,61,-1
 119 656 l 1,62,63
 183 628 183 628 250 628 c 128,-1,64
 317 628 317 628 381 654 c 1,65,66
 390 660 390 660 396 660 c 0,67,68
 415 660 415 660 415 637 c 0,69,70
 415 624 415 624 399 602 c 0,71,72
 384 580 384 580 357 555 c 128,-1,73
 330 530 330 530 286.5 512 c 128,-1,74
 243 494 243 494 195 494 c 0,75,76
 167 494 167 494 148 498 c 1,0,-1
EndSplineSet
Validated: 19457
EndChar

StartChar: digit6
Encoding: 54 54 73
Width: 500
VWidth: 1000
Flags: W
HStem: -16 53<208.438 295.366> 377 46<211.075 297.531> 611 49<240.858 354.275>
VStem: 37 147<139.838 348.777 386 469.832> 302 135<481.111 578.25> 316 146<93.8868 316.193>
LayerCount: 2
Fore
SplineSet
183 386 m 1,0,1
 212 423 212 423 263 423 c 0,2,3
 346 423 346 423 404 367 c 128,-1,4
 462 311 462 311 462 205 c 128,-1,5
 462 99 462 99 402 41.5 c 128,-1,6
 342 -16 342 -16 253 -16 c 0,7,8
 209 -16 209 -16 173 0 c 128,-1,9
 137 16 137 16 115 38.5 c 128,-1,10
 93 61 93 61 77 96 c 0,11,12
 61 130 61 130 53.5 157.5 c 128,-1,13
 46 185 46 185 42 222 c 128,-1,14
 38 259 38 259 37.5 276 c 128,-1,15
 37 293 37 293 37 316 c 0,16,17
 37 397 37 397 56 460 c 0,18,19
 75 524 75 524 104 560.5 c 128,-1,20
 133 597 133 597 170.5 620.5 c 128,-1,21
 208 644 208 644 240 652 c 128,-1,22
 272 660 272 660 303 660 c 0,23,24
 371 660 371 660 404 620 c 0,25,26
 437 581 437 581 437 531 c 0,27,28
 437 498 437 498 418 479.5 c 128,-1,29
 399 461 399 461 369 461 c 128,-1,30
 339 461 339 461 320.5 480.5 c 128,-1,31
 302 500 302 500 302 528 c 0,32,33
 302 558 302 558 321 576 c 0,34,35
 336 590 336 590 355 594 c 1,36,37
 336 611 336 611 305 611 c 0,38,39
 293 611 293 611 279.5 607 c 128,-1,40
 266 603 266 603 246 592 c 0,41,42
 227 581 227 581 211 553 c 128,-1,43
 195 525 195 525 190 482 c 0,44,45
 184 441 184 441 183 386 c 1,0,1
251 37 m 0,46,47
 277 37 277 37 293 51.5 c 128,-1,48
 309 66 309 66 313 93 c 1,49,50
 316 123 316 123 316 209 c 0,51,52
 316 298 316 298 313 323 c 0,53,54
 310 346 310 346 295 362 c 0,55,56
 280 377 280 377 256 377 c 0,57,58
 231 377 231 377 216 361 c 0,59,60
 200 345 200 345 193 313 c 0,61,62
 187 280 187 280 185.5 258.5 c 128,-1,63
 184 237 184 237 184 204 c 0,64,65
 184 110 184 110 192 90 c 0,66,67
 211 37 211 37 251 37 c 0,46,47
EndSplineSet
Validated: 19457
EndChar

StartChar: digit7
Encoding: 55 55 74
Width: 500
VWidth: 1000
Flags: W
HStem: -16 21G<218.5 228> 514 135<147.064 347>
VStem: 50 58<417 468.145> 155 135<0.694946 209.354>
LayerCount: 2
Fore
SplineSet
480 595 m 2,0,-1
 344 410 l 2,1,2
 290 337 290 337 290 113 c 2,3,-1
 290 60 l 2,4,5
 290 28 290 28 275.5 9.5 c 128,-1,6
 261 -9 261 -9 247 -13 c 0,7,8
 234 -16 234 -16 222 -16 c 0,9,10
 215 -16 215 -16 207.5 -14.5 c 128,-1,11
 200 -13 200 -13 187 -7 c 0,12,13
 172 -1 172 -1 164 17 c 0,14,15
 155 34 155 34 155 60 c 0,16,17
 155 116 155 116 168.5 174.5 c 128,-1,18
 182 233 182 233 198.5 274 c 128,-1,19
 215 315 215 315 237.5 355 c 128,-1,20
 260 395 260 395 269 408.5 c 128,-1,21
 278 422 278 422 284 430 c 2,22,-1
 347 514 l 1,23,-1
 223 514 l 2,24,25
 140 514 140 514 130 508 c 1,26,27
 119 494 119 494 108 421 c 2,28,-1
 107 417 l 1,29,-1
 50 417 l 1,30,-1
 87 681 l 1,31,-1
 142 681 l 1,32,-1
 143 677 l 2,33,34
 145 669 145 669 147 666 c 128,-1,35
 149 663 149 663 157 659 c 0,36,37
 167 655 167 655 188 653 c 0,38,39
 223 649 223 649 267 649 c 2,40,-1
 490 649 l 1,41,-1
 490 617 l 2,42,43
 490 607 490 607 480 595 c 2,0,-1
EndSplineSet
Validated: 19457
EndChar

StartChar: digit8
Encoding: 56 56 75
Width: 500
VWidth: 1000
Flags: W
HStem: -16 53<178.161 330.102> 611 49<176.038 316.173>
VStem: 37 96<83.3213 248.139> 64 85<430 570.54> 350 85<431.348 575.956> 366 96<90.2876 191.581>
LayerCount: 2
Fore
SplineSet
353 371 m 1,0,1
 369 360 369 360 381 351 c 0,2,3
 395 340 395 340 416 318 c 0,4,5
 438 295 438 295 450 262 c 128,-1,6
 462 229 462 229 462 189 c 0,7,8
 462 101 462 101 405.5 42.5 c 128,-1,9
 349 -16 349 -16 248 -16 c 0,10,11
 156 -16 156 -16 97 31 c 0,12,13
 37 78 37 78 37 162 c 0,14,15
 37 225 37 225 68 263 c 0,16,17
 96 298 96 298 142 327 c 1,18,19
 64 382 64 382 64 478 c 0,20,21
 64 555 64 555 113 607.5 c 128,-1,22
 162 660 162 660 251 660 c 0,23,24
 332 660 332 660 383 619 c 0,25,26
 435 578 435 578 435 507 c 0,27,28
 435 429 435 429 353 371 c 1,0,1
188 478 m 2,29,-1
 303 404 l 1,30,31
 350 443 350 443 350 507 c 0,32,33
 350 551 350 551 324 581 c 128,-1,34
 298 611 298 611 248 611 c 0,35,36
 206 611 206 611 177 592 c 0,37,38
 149 573 149 573 149 538 c 128,-1,39
 149 503 149 503 188 478 c 2,29,-1
193 293 m 1,40,41
 133 241 133 241 133 163 c 0,42,43
 133 107 133 107 164 72 c 128,-1,44
 195 37 195 37 251 37 c 0,45,46
 301 37 301 37 334 62 c 0,47,48
 366 87 366 87 366 133 c 0,49,50
 366 156 366 156 355 175 c 128,-1,51
 344 194 344 194 333 202 c 0,52,53
 321 211 321 211 296 228 c 1,54,-1
 193 293 l 1,40,41
EndSplineSet
Validated: 19457
EndChar

StartChar: digit9
Encoding: 57 57 76
Width: 500
VWidth: 1000
Flags: W
HStem: -16 53<151.396 265.446> 222 46<201.26 288.221> 611 49<203.442 292.344>
VStem: 37 146<327.973 547.041> 62 135<64.5625 162.889> 316 146<171.323 258 299.546 509.039>
LayerCount: 2
Fore
SplineSet
315 258 m 1,0,1
 287 222 287 222 236 222 c 0,2,3
 152 222 152 222 94.5 278.5 c 128,-1,4
 37 335 37 335 37 440 c 0,5,6
 37 540 37 540 97 600 c 128,-1,7
 157 660 157 660 251 660 c 0,8,9
 294 660 294 660 329 644.5 c 128,-1,10
 364 629 364 629 385.5 606.5 c 128,-1,11
 407 584 407 584 423 549 c 0,12,13
 439 515 439 515 446 487.5 c 128,-1,14
 453 460 453 460 457 423 c 128,-1,15
 461 386 461 386 461.5 369.5 c 128,-1,16
 462 353 462 353 462 330 c 0,17,18
 462 248 462 248 444 185 c 0,19,20
 426 121 426 121 398.5 84 c 128,-1,21
 371 47 371 47 335.5 23.5 c 128,-1,22
 300 0 300 0 269.5 -8 c 128,-1,23
 239 -16 239 -16 208 -16 c 0,24,25
 138 -16 138 -16 100 21.5 c 128,-1,26
 62 59 62 59 62 113 c 0,27,28
 62 146 62 146 81 164.5 c 128,-1,29
 100 183 100 183 130 183 c 128,-1,30
 160 183 160 183 178.5 163.5 c 128,-1,31
 197 144 197 144 197 116 c 0,32,33
 197 89 197 89 181 71 c 0,34,35
 169 57 169 57 151 52 c 1,36,37
 172 37 172 37 206 37 c 0,38,39
 258 37 258 37 289 88 c 1,40,41
 308 123 308 123 313 198 c 1,42,-1
 315 258 l 1,0,1
243 268 m 0,43,44
 285 268 285 268 300 314 c 0,45,46
 316 363 316 363 316 446 c 0,47,48
 316 535 316 535 309 555 c 0,49,50
 291 611 291 611 253 611 c 0,51,52
 224 611 224 611 209 595 c 0,53,54
 193 579 193 579 189 561 c 0,55,56
 183 534 183 534 183 435 c 0,57,58
 183 346 183 346 186 321 c 0,59,60
 189 299 189 299 204 283 c 0,61,62
 218 268 218 268 243 268 c 0,43,44
EndSplineSet
Validated: 19457
EndChar

StartChar: colon
Encoding: 58 58 77
Width: 277
VWidth: 1000
Flags: W
HStem: -5 166<82.8177 195.182> 283 166<82.8177 195.182>
VStem: 56 166<21.8177 134.182 309.818 422.182>
LayerCount: 2
Fore
SplineSet
222 366 m 128,-1,1
 222 332 222 332 197.5 307.5 c 128,-1,2
 173 283 173 283 139 283 c 128,-1,3
 105 283 105 283 80.5 307.5 c 128,-1,4
 56 332 56 332 56 366 c 128,-1,5
 56 400 56 400 80.5 424.5 c 128,-1,6
 105 449 105 449 139 449 c 128,-1,7
 173 449 173 449 197.5 424.5 c 128,-1,0
 222 400 222 400 222 366 c 128,-1,1
222 78 m 128,-1,9
 222 44 222 44 197.5 19.5 c 128,-1,10
 173 -5 173 -5 139 -5 c 128,-1,11
 105 -5 105 -5 80.5 19.5 c 128,-1,12
 56 44 56 44 56 78 c 128,-1,13
 56 112 56 112 80.5 136.5 c 128,-1,14
 105 161 105 161 139 161 c 128,-1,15
 173 161 173 161 197.5 136.5 c 128,-1,8
 222 112 222 112 222 78 c 128,-1,9
EndSplineSet
Validated: 19457
EndChar

StartChar: semicolon
Encoding: 59 59 78
Width: 277
VWidth: 1000
Flags: W
HStem: -5 166<80.6434 176.261> 283 166<82.8177 195.182>
VStem: 56 169<20.3323 123.993 312.973 419.027>
LayerCount: 2
Fore
SplineSet
222 366 m 128,-1,1
 222 332 222 332 197.5 307.5 c 128,-1,2
 173 283 173 283 139 283 c 128,-1,3
 105 283 105 283 80.5 307.5 c 128,-1,4
 56 332 56 332 56 366 c 128,-1,5
 56 400 56 400 80.5 424.5 c 128,-1,6
 105 449 105 449 139 449 c 128,-1,7
 173 449 173 449 197.5 424.5 c 128,-1,0
 222 400 222 400 222 366 c 128,-1,1
106 -149 m 1,8,9
 165 -87 165 -87 177 3 c 1,10,11
 159 -5 159 -5 139 -5 c 0,12,13
 101 -5 101 -5 78.5 19.5 c 128,-1,14
 56 44 56 44 56 78 c 0,15,16
 56 113 56 113 79 137 c 128,-1,17
 102 161 102 161 138 161 c 0,18,19
 180 161 180 161 203 124 c 0,20,21
 225 88 225 88 225 31 c 0,22,23
 225 -7 225 -7 215.5 -44 c 128,-1,24
 206 -81 206 -81 191.5 -108 c 128,-1,25
 177 -135 177 -135 162 -155.5 c 128,-1,26
 147 -176 147 -176 134 -187 c 0,27,28
 121 -199 121 -199 114 -199 c 0,29,30
 106 -199 106 -199 98 -191 c 128,-1,31
 90 -183 90 -183 90 -173.5 c 128,-1,32
 90 -164 90 -164 106 -149 c 1,8,9
EndSplineSet
Validated: 19457
EndChar

StartChar: equal
Encoding: 61 61 79
Width: 777
VWidth: 1000
Flags: W
HStem: 103 71<53.5269 723.473> 327 71<53.5269 723.473>
LayerCount: 2
Fore
SplineSet
680 327 m 2,0,-1
 97 327 l 2,1,2
 51 327 51 327 51 362 c 0,3,4
 51 398 51 398 102 398 c 2,5,-1
 675 398 l 2,6,7
 726 398 726 398 726 362 c 0,8,9
 726 327 726 327 680 327 c 2,0,-1
675 103 m 2,10,-1
 102 103 l 2,11,12
 51 103 51 103 51 139 c 0,13,14
 51 174 51 174 97 174 c 2,15,-1
 680 174 l 2,16,17
 726 174 726 174 726 139 c 0,18,19
 726 103 726 103 675 103 c 2,10,-1
EndSplineSet
Validated: 19457
EndChar

StartChar: question
Encoding: 63 63 80
Width: 472
VWidth: 1000
Flags: W
HStem: -5 166<165.818 278.182> 659 46<145.515 266.151>
VStem: 51 135<523.081 621.294> 139 166<21.8177 134.182> 194 57<228.191 371.297> 282 138<499.631 645.99>
LayerCount: 2
Fore
SplineSet
251 285 m 2,0,-1
 251 256 l 2,1,2
 251 234 251 234 247 228 c 0,3,4
 242 221 242 221 222 221 c 0,5,6
 204 221 204 221 199 227 c 128,-1,7
 194 233 194 233 194 253 c 2,8,-1
 194 294 l 2,9,10
 194 398 194 398 261 497 c 0,11,12
 274 514 274 514 278 528.5 c 128,-1,13
 282 543 282 543 282 579 c 0,14,15
 282 605 282 605 281 616 c 128,-1,16
 280 627 280 627 274 639 c 0,17,18
 269 650 269 650 258 655 c 0,19,20
 245 659 245 659 222 659 c 0,21,22
 175 659 175 659 143 635 c 1,23,24
 160 628 160 628 171 615 c 0,25,26
 186 598 186 598 186 572 c 0,27,28
 186 541 186 541 166 522.5 c 128,-1,29
 146 504 146 504 118 504 c 0,30,31
 93 504 93 504 72 521 c 128,-1,32
 51 538 51 538 51 573 c 0,33,34
 51 626 51 626 98 666 c 0,35,36
 145 705 145 705 228 705 c 0,37,38
 242 705 242 705 254 704 c 128,-1,39
 266 703 266 703 291 700 c 0,40,41
 317 697 317 697 336 688 c 128,-1,42
 355 679 355 679 376 666 c 0,43,44
 397 652 397 652 409 628 c 0,45,46
 420 603 420 603 420 571 c 0,47,48
 420 506 420 506 366 470 c 0,49,50
 251 391 251 391 251 285 c 2,0,-1
305 78 m 128,-1,52
 305 44 305 44 280.5 19.5 c 128,-1,53
 256 -5 256 -5 222 -5 c 128,-1,54
 188 -5 188 -5 163.5 19.5 c 128,-1,55
 139 44 139 44 139 78 c 128,-1,56
 139 112 139 112 163.5 136.5 c 128,-1,57
 188 161 188 161 222 161 c 128,-1,58
 256 161 256 161 280.5 136.5 c 128,-1,51
 305 112 305 112 305 78 c 128,-1,52
EndSplineSet
Validated: 19457
EndChar

StartChar: atmark
Encoding: 64 64 81
Width: 777
VWidth: 1000
Flags: W
HStem: -11 46<273.479 545.672> 65 33<688.138 721> 123 46<347.858 447.385 595.565 646.395> 525 46<347.858 448.046> 659 46<273.45 505.546>
VStem: 51 57<210.668 484.664> 184 124<234.012 459.988> 469 124<190.753 476.748> 669 57<192.86 479.007>
LayerCount: 2
Fore
SplineSet
636 90 m 1,0,1
 650 98 650 98 669 98 c 2,2,-1
 693 98 l 2,3,4
 725 98 725 98 726 80 c 0,5,6
 727 75 727 75 724 70 c 2,7,-1
 724 69 l 1,8,-1
 721 65 l 1,9,-1
 720 65 l 2,10,11
 651 28 651 28 547 6 c 0,12,13
 467 -11 467 -11 392 -11 c 0,14,15
 235 -11 235 -11 143 88 c 128,-1,16
 51 187 51 187 51 347 c 0,17,18
 51 513 51 513 145.5 609 c 128,-1,19
 240 705 240 705 388 705 c 0,20,21
 533 705 533 705 629.5 611 c 128,-1,22
 726 517 726 517 726 343 c 0,23,24
 726 236 726 236 698 180 c 0,25,26
 670 123 670 123 605 123 c 0,27,28
 529 123 529 123 491 161 c 1,29,30
 446 123 446 123 387 123 c 0,31,32
 302 123 302 123 243 181.5 c 128,-1,33
 184 240 184 240 184 347 c 128,-1,34
 184 454 184 454 243 512.5 c 128,-1,35
 302 571 302 571 387 571 c 0,36,37
 481 571 481 571 527 487 c 1,38,-1
 558 487 l 2,39,40
 582 487 582 487 587.5 481.5 c 128,-1,41
 593 476 593 476 593 453 c 2,42,-1
 593 221 l 2,43,44
 593 169 593 169 614 169 c 0,45,46
 632 169 632 169 643 181 c 0,47,48
 655 194 655 194 661 220 c 0,49,50
 666 247 666 247 668 271 c 0,51,52
 669 295 669 295 669 332 c 0,53,54
 669 485 669 485 596 570 c 0,55,56
 519 659 519 659 388 659 c 0,57,58
 267 659 267 659 187.5 577.5 c 128,-1,59
 108 496 108 496 108 347 c 0,60,61
 108 203 108 203 185 119 c 128,-1,62
 262 35 262 35 391 35 c 0,63,64
 514 35 514 35 636 90 c 1,0,1
469 213 m 1,65,-1
 469 453 l 2,66,67
 469 469 469 469 471 477 c 1,68,69
 438 525 438 525 390 525 c 0,70,71
 356 525 356 525 332 481 c 0,72,73
 308 435 308 435 308 347 c 128,-1,74
 308 259 308 259 332 213 c 0,75,76
 356 169 356 169 390 169 c 0,77,78
 434 169 434 169 469 213 c 1,65,-1
EndSplineSet
Validated: 19457
EndChar

StartChar: iexclamation
Encoding: 161 161 82
Width: 305
VWidth: 1000
Flags: W
HStem: 339 166<96.8177 209.182>
VStem: 69 168<-185.094 23 367.386 476.614>
LayerCount: 2
Fore
SplineSet
236 422 m 128,-1,1
 236 388 236 388 211.5 363.5 c 128,-1,2
 187 339 187 339 153 339 c 128,-1,3
 119 339 119 339 94.5 363.5 c 128,-1,4
 70 388 70 388 70 422 c 128,-1,5
 70 456 70 456 94.5 480.5 c 128,-1,6
 119 505 119 505 153 505 c 128,-1,7
 187 505 187 505 211.5 480.5 c 128,-1,0
 236 456 236 456 236 422 c 128,-1,1
235 -115 m 2,8,9
 237 -125 237 -125 237 -134 c 0,10,11
 237 -165 237 -165 212 -188 c 0,12,13
 187 -210 187 -210 153 -210 c 128,-1,14
 119 -210 119 -210 94 -188 c 128,-1,15
 69 -166 69 -166 69 -134 c 0,16,17
 69 -133 69 -133 70 -127 c 2,18,-1
 71 -121 l 1,19,-1
 123 250 l 2,20,21
 125 269 125 269 130 274 c 128,-1,22
 135 279 135 279 153 279 c 0,23,24
 169 279 169 279 175 274 c 128,-1,25
 181 269 181 269 183 253 c 2,26,-1
 235 -115 l 2,8,9
EndSplineSet
Validated: 19457
EndChar

StartChar: iquestion
Encoding: 191 191 83
Width: 472
VWidth: 1000
Flags: W
HStem: -205 46<193.681 318.844> -24 20G<339 365.5> 339 166<165.818 278.182>
VStem: 51 138<-146.16 3.95166> 139 166<365.818 478.182> 194 57<123.489 278.719> 285 135<-123.148 -23.0812>
LayerCount: 2
Fore
SplineSet
305 422 m 128,-1,1
 305 388 305 388 280.5 363.5 c 128,-1,2
 256 339 256 339 222 339 c 128,-1,3
 188 339 188 339 163.5 363.5 c 128,-1,4
 139 388 139 388 139 422 c 128,-1,5
 139 456 139 456 163.5 480.5 c 128,-1,6
 188 505 188 505 222 505 c 128,-1,7
 256 505 256 505 280.5 480.5 c 128,-1,0
 305 456 305 456 305 422 c 128,-1,1
194 235 m 2,8,-1
 194 247 l 2,9,10
 194 261 194 261 195 266 c 0,11,12
 196 273 196 273 203 276 c 0,13,14
 209 279 209 279 222 279 c 0,15,16
 242 279 242 279 247 271 c 0,17,18
 251 264 251 264 251 237 c 0,19,20
 251 111 251 111 203 6 c 0,21,22
 189 -24 189 -24 189 -85 c 0,23,24
 189 -136 189 -136 195 -148 c 0,25,26
 200 -159 200 -159 226 -159 c 0,27,28
 283 -159 283 -159 324 -134 c 1,29,30
 323 -133 323 -133 322 -133 c 0,31,32
 319 -131 319 -131 315.5 -129 c 128,-1,33
 312 -127 312 -127 308 -124 c 128,-1,34
 304 -121 304 -121 301 -117 c 128,-1,35
 298 -113 298 -113 295 -108 c 128,-1,36
 292 -103 292 -103 290 -98 c 0,37,38
 287 -92 287 -92 286 -86 c 128,-1,39
 285 -80 285 -80 285 -72 c 0,40,41
 285 -41 285 -41 305 -22.5 c 128,-1,42
 325 -4 325 -4 353 -4 c 0,43,44
 378 -4 378 -4 399 -21 c 128,-1,45
 420 -38 420 -38 420 -73 c 0,46,47
 420 -134 420 -134 363 -170 c 0,48,49
 307 -205 307 -205 221 -205 c 0,50,51
 204 -205 204 -205 190.5 -204 c 128,-1,52
 177 -203 177 -203 149 -196 c 128,-1,53
 121 -189 121 -189 102 -177 c 0,54,55
 83 -164 83 -164 67 -136 c 128,-1,56
 51 -108 51 -108 51 -71 c 0,57,58
 51 -8 51 -8 98 30 c 0,59,60
 141 64 141 64 164 107.5 c 128,-1,61
 187 151 187 151 191 175 c 0,62,63
 194 200 194 200 194 235 c 2,8,-1
EndSplineSet
Validated: 19457
EndChar

StartChar: lbracket
Encoding: 91 91 84
Width: 280
VWidth: 1000
Flags: W
HStem: -255 71<173 262> 684 71<173 262>
VStem: 102 160<-255 -184 684 755> 102 71<-184 684>
LayerCount: 2
Fore
SplineSet
262 -255 m 1,0,-1
 102 -255 l 1,1,-1
 102 755 l 1,2,-1
 262 755 l 1,3,-1
 262 684 l 1,4,-1
 173 684 l 1,5,-1
 173 -184 l 1,6,-1
 262 -184 l 1,7,-1
 262 -255 l 1,0,-1
EndSplineSet
Validated: 19457
EndChar

StartChar: rbracket
Encoding: 93 93 85
Width: 280
VWidth: 1000
Flags: W
HStem: -255 71<17 106> 684 71<17 106>
VStem: 17 160<-255 -184 684 755> 106 71<-184 684>
LayerCount: 2
Fore
SplineSet
177 755 m 1,0,-1
 177 -255 l 1,1,-1
 17 -255 l 1,2,-1
 17 -184 l 1,3,-1
 106 -184 l 1,4,-1
 106 684 l 1,5,-1
 17 684 l 1,6,-1
 17 755 l 1,7,-1
 177 755 l 1,0,-1
EndSplineSet
Validated: 19457
EndChar

StartChar: oslash
Encoding: 248 248 86
Width: 500
VWidth: 1000
Flags: W
HStem: -11 46<189.835 314.508> 412 46<186.82 310.096>
VStem: 23 124<108.098 332.534> 352 124<108.789 329.952>
LayerCount: 2
Fore
SplineSet
437 536 m 1,0,-1
 379 422 l 1,1,2
 425 392 425 392 449 340 c 0,3,4
 476 285 476 285 476 219 c 0,5,6
 476 113 476 113 413.5 51 c 128,-1,7
 351 -11 351 -11 249 -11 c 0,8,9
 204 -11 204 -11 162 3 c 1,10,-1
 103 -112 l 1,11,-1
 62 -91 l 1,12,-1
 120 23 l 1,13,14
 23 85 23 85 23 219 c 0,15,16
 23 327 23 327 85 392.5 c 128,-1,17
 147 458 147 458 250 458 c 0,18,19
 296 458 296 458 338 443 c 1,20,-1
 396 557 l 1,21,-1
 437 536 l 1,0,-1
159 97 m 1,22,-1
 311 392 l 1,23,24
 285 412 285 412 250 412 c 0,25,26
 220 412 220 412 195 396 c 128,-1,27
 170 380 170 380 159 348 c 0,28,29
 147 313 147 313 147 219 c 0,30,31
 147 134 147 134 159 97 c 1,22,-1
340 347 m 1,32,-1
 189 54 l 1,33,34
 214 35 214 35 250 35 c 0,35,36
 311 35 311 35 336 85 c 0,37,38
 352 118 352 118 352 219 c 0,39,40
 352 307 352 307 340 347 c 1,32,-1
EndSplineSet
Validated: 19457
EndChar

StartChar: bquotet
Encoding: 96 96 87
Width: 277
VWidth: 1000
Flags: W
HStem: 339 166<89.731 197.357> 679 20G<158 168>
VStem: 42 180<382.891 478.807>
LayerCount: 2
Fore
SplineSet
89 491 m 1,0,1
 110 505 110 505 139 505 c 0,2,3
 177 505 177 505 199.5 480.5 c 128,-1,4
 222 456 222 456 222 422 c 0,5,6
 222 387 222 387 199 363 c 128,-1,7
 176 339 176 339 140 339 c 0,8,9
 95 339 95 339 68 377 c 0,10,11
 42 414 42 414 42 469 c 0,12,13
 42 532 42 532 70 589 c 0,14,15
 97 645 97 645 124 672 c 0,16,17
 152 699 152 699 164 699 c 0,18,19
 172 699 172 699 180 691 c 128,-1,20
 188 683 188 683 188 674 c 0,21,22
 188 666 188 666 172 651 c 0,23,24
 99 590 99 590 89 491 c 1,0,1
EndSplineSet
Validated: 19457
EndChar

StartChar: lquote
Encoding: 8216 8216 88
Width: 277
VWidth: 1000
Flags: W
HStem: 339 166<89.731 197.357> 679 20G<158 168>
VStem: 42 180<382.891 478.807>
LayerCount: 2
Fore
SplineSet
89 491 m 1,0,1
 110 505 110 505 139 505 c 0,2,3
 177 505 177 505 199.5 480.5 c 128,-1,4
 222 456 222 456 222 422 c 0,5,6
 222 387 222 387 199 363 c 128,-1,7
 176 339 176 339 140 339 c 0,8,9
 95 339 95 339 68 377 c 0,10,11
 42 414 42 414 42 469 c 0,12,13
 42 532 42 532 70 589 c 0,14,15
 97 645 97 645 124 672 c 0,16,17
 152 699 152 699 164 699 c 0,18,19
 172 699 172 699 180 691 c 128,-1,20
 188 683 188 683 188 674 c 0,21,22
 188 666 188 666 172 651 c 0,23,24
 99 590 99 590 89 491 c 1,0,1
EndSplineSet
Validated: 19457
EndChar

StartChar: rquote
Encoding: 8217 8217 89
Width: 277
VWidth: 1000
Flags: W
HStem: 533 166<80.6434 188.269>
VStem: 56 180<559.193 655.109>
LayerCount: 2
Fore
SplineSet
189 547 m 1,0,1
 168 533 168 533 139 533 c 0,2,3
 101 533 101 533 78.5 557.5 c 128,-1,4
 56 582 56 582 56 616 c 0,5,6
 56 651 56 651 79 675 c 128,-1,7
 102 699 102 699 138 699 c 0,8,9
 183 699 183 699 210 661 c 0,10,11
 236 624 236 624 236 569 c 0,12,13
 236 506 236 506 208 449 c 0,14,15
 181 393 181 393 154 366 c 0,16,17
 126 339 126 339 114 339 c 0,18,19
 106 339 106 339 98 347 c 128,-1,20
 90 355 90 355 90 364 c 0,21,22
 90 372 90 372 106 387 c 0,23,24
 179 448 179 448 189 547 c 1,0,1
EndSplineSet
Validated: 19457
EndChar

StartChar: ldquote
Encoding: 8220 8220 90
Width: 544
VWidth: 1000
Flags: W
HStem: 339 166<143.731 251.357 382.731 490.357> 679 20G<212 222 451 461>
VStem: 96 180<382.891 478.807> 335 180<382.891 478.807>
LayerCount: 2
Fore
SplineSet
143 491 m 1,0,1
 164 505 164 505 193 505 c 0,2,3
 231 505 231 505 253.5 480.5 c 128,-1,4
 276 456 276 456 276 422 c 0,5,6
 276 387 276 387 253 363 c 128,-1,7
 230 339 230 339 194 339 c 0,8,9
 149 339 149 339 122 377 c 0,10,11
 96 414 96 414 96 469 c 0,12,13
 96 532 96 532 124 589 c 0,14,15
 151 645 151 645 178 672 c 0,16,17
 206 699 206 699 218 699 c 0,18,19
 226 699 226 699 234 691 c 128,-1,20
 242 683 242 683 242 674 c 0,21,22
 242 666 242 666 226 651 c 0,23,24
 153 590 153 590 143 491 c 1,0,1
382 491 m 1,25,26
 403 505 403 505 432 505 c 0,27,28
 470 505 470 505 492.5 480.5 c 128,-1,29
 515 456 515 456 515 422 c 0,30,31
 515 387 515 387 492 363 c 128,-1,32
 469 339 469 339 433 339 c 0,33,34
 388 339 388 339 361 377 c 0,35,36
 335 414 335 414 335 469 c 0,37,38
 335 532 335 532 363 589 c 0,39,40
 390 645 390 645 417 672 c 0,41,42
 445 699 445 699 457 699 c 0,43,44
 465 699 465 699 473 691 c 128,-1,45
 481 683 481 683 481 674 c 0,46,47
 481 666 481 666 465 651 c 0,48,49
 392 590 392 590 382 491 c 1,25,26
EndSplineSet
Validated: 19457
EndChar

StartChar: rdquote
Encoding: 8221 8221 91
Width: 544
VWidth: 1000
Flags: W
HStem: 533 166<52.6434 160.269 291.643 399.269>
VStem: 28 180<559.193 655.109> 267 180<559.193 655.109>
LayerCount: 2
Fore
SplineSet
161 547 m 1,0,1
 140 533 140 533 111 533 c 0,2,3
 73 533 73 533 50.5 557.5 c 128,-1,4
 28 582 28 582 28 616 c 0,5,6
 28 651 28 651 51 675 c 128,-1,7
 74 699 74 699 110 699 c 0,8,9
 155 699 155 699 182 661 c 0,10,11
 208 624 208 624 208 569 c 0,12,13
 208 506 208 506 180 449 c 0,14,15
 153 393 153 393 126 366 c 0,16,17
 98 339 98 339 86 339 c 0,18,19
 78 339 78 339 70 347 c 128,-1,20
 62 355 62 355 62 364 c 0,21,22
 62 372 62 372 78 387 c 0,23,24
 151 448 151 448 161 547 c 1,0,1
400 547 m 1,25,26
 379 533 379 533 350 533 c 0,27,28
 312 533 312 533 289.5 557.5 c 128,-1,29
 267 582 267 582 267 616 c 0,30,31
 267 651 267 651 290 675 c 128,-1,32
 313 699 313 699 349 699 c 0,33,34
 394 699 394 699 421 661 c 0,35,36
 447 624 447 624 447 569 c 0,37,38
 447 506 447 506 419 449 c 0,39,40
 392 393 392 393 365 366 c 0,41,42
 337 339 337 339 325 339 c 0,43,44
 317 339 317 339 309 347 c 128,-1,45
 301 355 301 355 301 364 c 0,46,47
 301 372 301 372 317 387 c 0,48,49
 390 448 390 448 400 547 c 1,25,26
EndSplineSet
Validated: 19457
EndChar

StartChar: Alpha
Encoding: 913 913 92
Width: 755
VWidth: 1000
Flags: W
HStem: -5 57<30 115.871 186.325 264 402 483 639 725> 177 57<247 419> 683 20G<369.5 383.5>
LayerCount: 2
Fore
SplineSet
420 674 m 2,0,-1
 639 52 l 1,1,-1
 725 52 l 1,2,-1
 725 -5 l 1,3,-1
 720 -5 l 2,4,5
 684 -2 684 -2 570 -2 c 0,6,7
 443 -2 443 -2 407 -5 c 2,8,-1
 402 -5 l 1,9,-1
 402 52 l 1,10,-1
 483 52 l 1,11,-1
 439 177 l 1,12,-1
 228 177 l 1,13,-1
 190 69 l 1,14,-1
 186 59 l 1,15,16
 196 52 196 52 259 52 c 2,17,-1
 264 52 l 1,18,-1
 264 -5 l 1,19,-1
 259 -5 l 2,20,21
 187 -2 187 -2 141 -2 c 0,22,23
 122 -2 122 -2 35 -5 c 2,24,-1
 30 -5 l 1,25,-1
 30 52 l 1,26,-1
 35 52 l 2,27,28
 73 52 73 52 92.5 54 c 128,-1,29
 112 56 112 56 116 59 c 128,-1,30
 120 62 120 62 123 72 c 2,31,-1
 335 674 l 2,32,33
 342 694 342 694 352 698 c 0,34,35
 361 703 361 703 378 703 c 0,36,37
 389 703 389 703 395 702 c 128,-1,38
 401 701 401 701 409 694 c 0,39,40
 416 687 416 687 420 674 c 2,0,-1
333 478 m 1,41,-1
 247 234 l 1,42,-1
 419 234 l 1,43,-1
 333 478 l 1,41,-1
EndSplineSet
Validated: 19457
EndChar

StartChar: Beta
Encoding: 914 914 93
Width: 711
VWidth: 1000
Flags: W
HStem: -5 57<29 123 264 463.742> 334 46<264 441.497> 634 57<29 123 264 452.676>
VStem: 123 141<52 334 380 634> 480 152<434.565 597.303> 502 157<95.8502 271.154>
LayerCount: 2
Fore
SplineSet
29 691 m 1,0,-1
 412 691 l 2,1,2
 517 691 517 691 574 640 c 0,3,4
 632 589 632 589 632 514 c 0,5,6
 632 455 632 455 592 412 c 0,7,8
 559 377 559 377 504 360 c 1,9,10
 573 346 573 346 613 303 c 0,11,12
 659 254 659 254 659 186 c 0,13,14
 659 106 659 106 601.5 50.5 c 128,-1,15
 544 -5 544 -5 438 -5 c 2,16,-1
 29 -5 l 1,17,-1
 29 52 l 1,18,-1
 123 52 l 1,19,-1
 123 634 l 1,20,-1
 29 634 l 1,21,-1
 29 691 l 1,0,-1
264 380 m 1,22,-1
 376 380 l 2,23,24
 430 380 430 380 455 417 c 0,25,26
 480 455 480 455 480 514 c 0,27,28
 480 634 480 634 399 634 c 2,29,-1
 264 634 l 1,30,-1
 264 380 l 1,22,-1
264 52 m 1,31,-1
 401 52 l 2,32,33
 455 52 455 52 481 95 c 0,34,35
 502 131 502 131 502 188 c 0,36,37
 502 251 502 251 482 290 c 1,38,39
 460 334 460 334 411 334 c 2,40,-1
 264 334 l 1,41,-1
 264 52 l 1,31,-1
EndSplineSet
Validated: 19457
EndChar

StartChar: Gamma
Encoding: 915 915 94
Width: 600
VWidth: 1000
Flags: W
HStem: -5 57<29 123 275 393> 628 57<29 123 275 437.473>
VStem: 123 152<52 628>
LayerCount: 2
Fore
SplineSet
530 685 m 1,0,-1
 563 434 l 1,1,-1
 506 434 l 1,2,-1
 505 438 l 2,3,4
 501 466 501 466 499 478.5 c 128,-1,5
 497 491 497 491 493 515 c 0,6,7
 489 538 489 538 483 547 c 0,8,9
 478 557 478 557 470 575 c 0,10,11
 462 591 462 591 451 597 c 0,12,13
 440 604 440 604 424 614 c 0,14,15
 409 623 409 623 389 625 c 0,16,17
 368 628 368 628 342 628 c 2,18,-1
 275 628 l 1,19,-1
 275 52 l 1,20,-1
 393 52 l 1,21,-1
 393 -5 l 1,22,-1
 388 -5 l 2,23,24
 347 -2 347 -2 203 -2 c 0,25,26
 69 -2 69 -2 34 -5 c 2,27,-1
 29 -5 l 1,28,-1
 29 52 l 1,29,-1
 123 52 l 1,30,-1
 123 628 l 1,31,-1
 29 628 l 1,32,-1
 29 685 l 1,33,-1
 530 685 l 1,0,-1
EndSplineSet
Validated: 19457
EndChar

StartChar: Delta
Encoding: 916 916 95
Width: 833
VWidth: 1000
Flags: W
HStem: -5 131<169 564> 683 20G<406.5 425>
LayerCount: 2
Fore
SplineSet
463 675 m 2,0,-1
 781 28 l 2,1,2
 787 17 787 17 787 13 c 0,3,4
 787 0 787 0 778 -3 c 0,5,6
 771 -5 771 -5 756 -5 c 2,7,-1
 76 -5 l 2,8,9
 66 -5 66 -5 61 -4 c 0,10,11
 55 -3 55 -3 50 0 c 0,12,13
 45 4 45 4 45 13 c 0,14,15
 45 17 45 17 51 28 c 2,16,-1
 370 676 l 2,17,18
 378 692 378 692 388 698 c 0,19,20
 397 703 397 703 416 703 c 0,21,22
 434 703 434 703 444 699 c 0,23,24
 454 694 454 694 463 675 c 2,0,-1
366 527 m 1,25,-1
 169 126 l 1,26,-1
 564 126 l 1,27,-1
 366 527 l 1,25,-1
EndSplineSet
Validated: 19457
EndChar

StartChar: Epsilon
Encoding: 917 917 96
Width: 655
VWidth: 1000
Flags: W
HStem: -5 57<29 123 275 482.717> 324 57<275 364.974> 628 57<29 123 275 473.876>
VStem: 123 152<52 324 381 628> 382 57<207 308.154 397.459 498>
LayerCount: 2
Fore
SplineSet
633 279 m 1,0,-1
 585 -5 l 1,1,-1
 29 -5 l 1,2,-1
 29 52 l 1,3,-1
 123 52 l 1,4,-1
 123 628 l 1,5,-1
 29 628 l 1,6,-1
 29 685 l 1,7,-1
 572 685 l 1,8,-1
 605 434 l 1,9,-1
 548 434 l 1,10,-1
 547 438 l 2,11,12
 541 480 541 480 537 502 c 0,13,14
 533 523 533 523 521 553 c 0,15,16
 510 581 510 581 493 594 c 128,-1,17
 476 607 476 607 444.5 617.5 c 128,-1,18
 413 628 413 628 369 628 c 2,19,-1
 275 628 l 1,20,-1
 275 381 l 1,21,-1
 292 381 l 2,22,23
 351 381 351 381 366 405 c 0,24,25
 382 430 382 430 382 493 c 2,26,-1
 382 498 l 1,27,-1
 439 498 l 1,28,-1
 439 207 l 1,29,-1
 382 207 l 1,30,-1
 382 212 l 2,31,32
 382 245 382 245 380 261 c 128,-1,33
 378 277 378 277 370 295 c 0,34,35
 362 311 362 311 343 317 c 0,36,37
 324 324 324 324 292 324 c 2,38,-1
 275 324 l 1,39,-1
 275 52 l 1,40,-1
 373 52 l 2,41,42
 413 52 413 52 443 59 c 0,43,44
 472 66 472 66 493 81 c 0,45,46
 514 97 514 97 527 114 c 0,47,48
 540 130 540 130 549 160 c 0,49,50
 559 190 559 190 564 212.5 c 128,-1,51
 569 235 569 235 575 275 c 2,52,-1
 576 279 l 1,53,-1
 633 279 l 1,0,-1
EndSplineSet
Validated: 19457
EndChar

StartChar: Zeta
Encoding: 918 918 97
Width: 611
VWidth: 1000
Flags: W
HStem: -5 61<223 423.902> 634 57<198.771 388>
VStem: 64 57<440 552.367> 508 57<171.923 289>
LayerCount: 2
Fore
SplineSet
551 635 m 2,0,-1
 223 56 l 1,1,-1
 314 56 l 2,2,3
 344 56 344 56 369 61 c 128,-1,4
 394 66 394 66 412 73 c 128,-1,5
 430 80 430 80 444 93 c 0,6,7
 459 106 459 106 468 118 c 0,8,9
 477 129 477 129 484 148 c 0,10,11
 491 168 491 168 495 180 c 0,12,13
 499 193 499 193 502 216 c 128,-1,14
 505 239 505 239 506 250 c 128,-1,15
 507 261 507 261 508 284 c 2,16,-1
 508 289 l 1,17,-1
 565 289 l 1,18,-1
 547 -5 l 1,19,-1
 88 -5 l 2,20,21
 75 -5 75 -5 69 -4 c 0,22,23
 62 -3 62 -3 56 5 c 0,24,25
 51 12 51 12 51 26 c 0,26,27
 51 41 51 41 59 54 c 2,28,-1
 388 634 l 1,29,-1
 303 634 l 2,30,31
 263 634 263 634 231 625 c 0,32,33
 200 616 200 616 182 599 c 0,34,35
 163 581 163 581 151 565 c 0,36,37
 139 548 139 548 133 523 c 0,38,39
 127 497 127 497 124.5 482 c 128,-1,40
 122 467 122 467 121 445 c 2,41,-1
 121 440 l 1,42,-1
 64 440 l 1,43,-1
 76 691 l 1,44,-1
 522 691 l 2,45,46
 535 691 535 691 541 690 c 0,47,48
 548 689 548 689 554 681 c 0,49,50
 559 674 559 674 559 661 c 128,-1,51
 559 648 559 648 551 635 c 2,0,-1
EndSplineSet
Validated: 19457
EndChar

StartChar: Eta
Encoding: 919 919 98
Width: 783
VWidth: 1000
Flags: W
HStem: -5 57<29 123 275 369 413 507 659 753> 328 57<275 507> 634 57<29 123 275 369 413 507 659 753>
VStem: 123 152<52 328 385 634> 507 152<52 328 385 634>
LayerCount: 2
Fore
SplineSet
659 634 m 1,0,-1
 659 52 l 1,1,-1
 753 52 l 1,2,-1
 753 -5 l 1,3,-1
 748 -5 l 2,4,5
 713 -2 713 -2 583 -2 c 128,-1,6
 453 -2 453 -2 418 -5 c 2,7,-1
 413 -5 l 1,8,-1
 413 52 l 1,9,-1
 507 52 l 1,10,-1
 507 328 l 1,11,-1
 275 328 l 1,12,-1
 275 52 l 1,13,-1
 369 52 l 1,14,-1
 369 -5 l 1,15,-1
 364 -5 l 2,16,17
 329 -2 329 -2 199 -2 c 128,-1,18
 69 -2 69 -2 34 -5 c 2,19,-1
 29 -5 l 1,20,-1
 29 52 l 1,21,-1
 123 52 l 1,22,-1
 123 634 l 1,23,-1
 29 634 l 1,24,-1
 29 691 l 1,25,-1
 34 691 l 2,26,27
 69 688 69 688 199 688 c 128,-1,28
 329 688 329 688 364 691 c 2,29,-1
 369 691 l 1,30,-1
 369 634 l 1,31,-1
 275 634 l 1,32,-1
 275 385 l 1,33,-1
 507 385 l 1,34,-1
 507 634 l 1,35,-1
 413 634 l 1,36,-1
 413 691 l 1,37,-1
 418 691 l 2,38,39
 453 688 453 688 583 688 c 128,-1,40
 713 688 713 688 748 691 c 2,41,-1
 753 691 l 1,42,-1
 753 634 l 1,43,-1
 659 634 l 1,0,-1
EndSplineSet
Validated: 19457
EndChar

StartChar: Theta
Encoding: 920 920 99
Width: 777
VWidth: 1000
Flags: W
HStem: -16 48<307.884 468.033> 245 199<250 307 470 527> 656 46<308.257 468.744>
VStem: 51 152<195.331 484.925> 250 57<245 279 410 444> 470 57<245 279 410 444> 574 152<195.517 485.15>
LayerCount: 2
Fore
SplineSet
726 340 m 128,-1,1
 726 172 726 172 631 78 c 128,-1,2
 536 -16 536 -16 389 -16 c 0,3,4
 240 -16 240 -16 145.5 78.5 c 128,-1,5
 51 173 51 173 51 340 c 0,6,7
 51 505 51 505 144.5 603.5 c 128,-1,8
 238 702 238 702 389 702 c 0,9,10
 537 702 537 702 631.5 605 c 128,-1,0
 726 508 726 508 726 340 c 128,-1,1
389 32 m 0,11,12
 430 32 430 32 468.5 54 c 128,-1,13
 507 76 507 76 533 118 c 1,14,15
 574 191 574 191 574 340 c 0,16,17
 574 484 574 484 541 552 c 0,18,19
 489 656 489 656 388 656 c 0,20,21
 342 656 342 656 303 630.5 c 128,-1,22
 264 605 264 605 242 563 c 0,23,24
 218 517 218 517 211 467 c 0,25,26
 203 417 203 417 203 340 c 0,27,28
 203 193 203 193 242 122 c 0,29,30
 268 75 268 75 307.5 53.5 c 128,-1,31
 347 32 347 32 389 32 c 0,11,12
527 444 m 1,32,-1
 527 245 l 1,33,-1
 470 245 l 1,34,-1
 470 279 l 1,35,-1
 307 279 l 1,36,-1
 307 245 l 1,37,-1
 250 245 l 1,38,-1
 250 444 l 1,39,-1
 307 444 l 1,40,-1
 307 410 l 1,41,-1
 470 410 l 1,42,-1
 470 444 l 1,43,-1
 527 444 l 1,32,-1
EndSplineSet
Validated: 19457
EndChar

StartChar: Iota
Encoding: 921 921 100
Width: 397
VWidth: 1000
Flags: W
HStem: -5 57<23 122 274 373> 634 57<23 122 274 373>
VStem: 122 152<52 634>
LayerCount: 2
Fore
SplineSet
274 634 m 1,0,-1
 274 52 l 1,1,-1
 373 52 l 1,2,-1
 373 -5 l 1,3,-1
 368 -5 l 2,4,5
 332 -2 332 -2 198 -2 c 128,-1,6
 64 -2 64 -2 28 -5 c 2,7,-1
 23 -5 l 1,8,-1
 23 52 l 1,9,-1
 122 52 l 1,10,-1
 122 634 l 1,11,-1
 23 634 l 1,12,-1
 23 691 l 1,13,-1
 28 691 l 2,14,15
 64 688 64 688 198 688 c 128,-1,16
 332 688 332 688 368 691 c 2,17,-1
 373 691 l 1,18,-1
 373 634 l 1,19,-1
 274 634 l 1,0,-1
EndSplineSet
Validated: 19457
EndChar

StartChar: Kappa
Encoding: 922 922 101
Width: 783
VWidth: 1000
Flags: W
HStem: -5 57<29 123 275 369 443 506.709 669.096 746> 634 57<29 123 275 369 500 560.279 656.479 732>
VStem: 123 152<52 264 344 634>
LayerCount: 2
Fore
SplineSet
435 422 m 1,0,-1
 661 69 l 2,1,2
 666 62 666 62 669 58 c 0,3,4
 672 55 672 55 683 54 c 0,5,6
 695 52 695 52 718 52 c 2,7,-1
 746 52 l 1,8,-1
 746 -5 l 1,9,-1
 741 -5 l 2,10,11
 698 -2 698 -2 607 -2 c 0,12,13
 483 -2 483 -2 448 -5 c 2,14,-1
 443 -5 l 1,15,-1
 443 52 l 1,16,-1
 448 52 l 2,17,18
 498 52 498 52 507 58 c 1,19,20
 506 61 506 61 502 66 c 0,21,-1
 337 325 l 1,22,-1
 275 264 l 1,23,-1
 275 52 l 1,24,-1
 369 52 l 1,25,-1
 369 -5 l 1,26,-1
 364 -5 l 2,27,28
 329 -2 329 -2 199 -2 c 128,-1,29
 69 -2 69 -2 34 -5 c 2,30,-1
 29 -5 l 1,31,-1
 29 52 l 1,32,-1
 123 52 l 1,33,-1
 123 634 l 1,34,-1
 29 634 l 1,35,-1
 29 691 l 1,36,-1
 34 691 l 2,37,38
 69 688 69 688 199 688 c 128,-1,39
 329 688 329 688 364 691 c 2,40,-1
 369 691 l 1,41,-1
 369 634 l 1,42,-1
 275 634 l 1,43,-1
 275 344 l 1,44,-1
 556 622 l 2,45,46
 557 623 557 623 561 627 c 1,47,48
 538 634 538 634 505 634 c 2,49,-1
 500 634 l 1,50,-1
 500 691 l 1,51,-1
 505 691 l 2,52,53
 542 688 542 688 635 688 c 0,54,55
 682 688 682 688 727 691 c 2,56,-1
 732 691 l 1,57,-1
 732 634 l 1,58,-1
 727 634 l 2,59,60
 671 634 671 634 656 629 c 0,61,62
 642 624 642 624 620 604 c 2,63,-1
 435 422 l 1,0,-1
EndSplineSet
Validated: 19457
EndChar

StartChar: Lambda
Encoding: 923 923 102
Width: 700
VWidth: 1000
Flags: W
HStem: -5 57<30 97.6155 175.818 254 351 433 594 669> 683 20G<342 355>
LayerCount: 2
Fore
SplineSet
391 675 m 2,0,-1
 594 52 l 1,1,-1
 669 52 l 1,2,-1
 669 -5 l 1,3,-1
 664 -5 l 2,4,5
 627 -2 627 -2 520 -2 c 0,6,7
 392 -2 392 -2 356 -5 c 2,8,-1
 351 -5 l 1,9,-1
 351 52 l 1,10,-1
 433 52 l 1,11,-1
 303 453 l 1,12,-1
 175 60 l 1,13,14
 201 52 201 52 249 52 c 2,15,-1
 254 52 l 1,16,-1
 254 -5 l 1,17,-1
 249 -5 l 2,18,19
 165 -2 165 -2 132 -2 c 0,20,21
 82 -2 82 -2 35 -5 c 2,22,-1
 30 -5 l 1,23,-1
 30 52 l 1,24,-1
 35 52 l 2,25,26
 86 52 86 52 98 56 c 0,27,28
 109 60 109 60 112 71 c 2,29,-1
 308 674 l 2,30,31
 314 693 314 693 324 699 c 0,32,33
 334 703 334 703 350 703 c 0,34,35
 360 703 360 703 366 702 c 128,-1,36
 372 701 372 701 379.5 694.5 c 128,-1,37
 387 688 387 688 391 675 c 2,0,-1
EndSplineSet
Validated: 19457
EndChar

StartChar: Mu
Encoding: 924 924 103
Width: 950
VWidth: 1000
Flags: W
HStem: -5 57<29 120.873 188.097 280 597 691 826 920> 634 57<29 123 826 920>
VStem: 123 63<59.1272 588> 691 135<52 604>
LayerCount: 2
Fore
SplineSet
475 172 m 1,0,-1
 661 663 l 2,1,2
 668 682 668 682 678 686 c 0,3,4
 687 691 687 691 707 691 c 2,5,-1
 920 691 l 1,6,-1
 920 634 l 1,7,-1
 826 634 l 1,8,-1
 826 52 l 1,9,-1
 920 52 l 1,10,-1
 920 -5 l 1,11,-1
 915 -5 l 2,12,13
 880 -2 880 -2 758 -2 c 0,14,15
 637 -2 637 -2 602 -5 c 2,16,-1
 597 -5 l 1,17,-1
 597 52 l 1,18,-1
 691 52 l 1,19,-1
 691 604 l 1,20,-1
 470 23 l 2,21,22
 466 14 466 14 464 11 c 0,23,24
 462 6 462 6 454.5 0.5 c 128,-1,25
 447 -5 447 -5 436 -5 c 0,26,27
 424 -5 424 -5 417 -0 c 128,-1,28
 410 5 410 5 407 9 c 0,29,30
 404 14 404 14 401 23 c 2,31,-1
 186 588 l 1,32,-1
 186 76 l 2,33,34
 186 62 186 62 188 59 c 1,35,36
 191 57 191 57 207 55 c 0,37,38
 228 52 228 52 255 52 c 2,39,-1
 280 52 l 1,40,-1
 280 -5 l 1,41,-1
 275 -5 l 2,42,43
 167 -2 167 -2 154 -2 c 0,44,45
 145 -2 145 -2 34 -5 c 2,46,-1
 29 -5 l 1,47,-1
 29 52 l 1,48,-1
 54 52 l 2,49,50
 82 52 82 52 103 55 c 0,51,52
 117 57 117 57 121 59 c 1,53,54
 123 63 123 63 123 76 c 2,55,-1
 123 634 l 1,56,-1
 29 634 l 1,57,-1
 29 691 l 1,58,-1
 243 691 l 2,59,60
 264 691 264 691 272.5 685.5 c 128,-1,61
 281 680 281 680 289 662 c 2,62,-1
 475 172 l 1,0,-1
EndSplineSet
Validated: 19457
EndChar

StartChar: Nu
Encoding: 925 925 104
Width: 783
VWidth: 1000
Flags: W
HStem: -5 57<29 120.873 188.097 280> 634 57<29 123 502 593.903 661.127 753>
VStem: 123 63<59.1272 574> 596 63<240 626.873>
LayerCount: 2
Fore
SplineSet
281 674 m 2,0,-1
 596 240 l 1,1,-1
 596 610 l 2,2,3
 596 624 596 624 594 627 c 1,4,5
 591 629 591 629 575 631 c 0,6,7
 554 634 554 634 527 634 c 2,8,-1
 502 634 l 1,9,-1
 502 691 l 1,10,-1
 507 691 l 2,11,12
 615 688 615 688 628 688 c 0,13,14
 637 688 637 688 748 691 c 2,15,-1
 753 691 l 1,16,-1
 753 634 l 1,17,-1
 728 634 l 2,18,19
 700 634 700 634 679 631 c 0,20,21
 665 629 665 629 661 627 c 1,22,23
 659 623 659 623 659 610 c 2,24,-1
 659 32 l 2,25,26
 659 10 659 10 654 3 c 0,27,28
 649 -5 649 -5 627 -5 c 0,29,30
 606 -5 606 -5 596 10 c 2,31,-1
 186 574 l 1,32,-1
 186 76 l 2,33,34
 186 62 186 62 188 59 c 1,35,36
 191 57 191 57 207 55 c 0,37,38
 228 52 228 52 255 52 c 2,39,-1
 280 52 l 1,40,-1
 280 -5 l 1,41,-1
 275 -5 l 2,42,43
 167 -2 167 -2 154 -2 c 0,44,45
 145 -2 145 -2 34 -5 c 2,46,-1
 29 -5 l 1,47,-1
 29 52 l 1,48,-1
 54 52 l 2,49,50
 82 52 82 52 103 55 c 0,51,52
 117 57 117 57 121 59 c 1,53,54
 123 63 123 63 123 76 c 2,55,-1
 123 634 l 1,56,-1
 29 634 l 1,57,-1
 29 691 l 1,58,-1
 242 691 l 2,59,60
 259 691 259 691 265 689 c 0,61,62
 272 686 272 686 281 674 c 2,0,-1
EndSplineSet
Validated: 19457
EndChar

StartChar: Xi
Encoding: 926 926 105
Width: 666
VWidth: 1000
Flags: W
HStem: -5 132<98.8057 406.125> -5 122<105.033 561.767> 290 122<191 475> 558 122<108.171 555.768>
VStem: 37 57<127.481 214 472 548.521> 134 57<243 290 412 459> 475 57<243 290 412 459> 572 57<126.482 214 472 550.644>
LayerCount: 2
Fore
SplineSet
615 680 m 1,0,-1
 624 472 l 1,1,-1
 567 472 l 1,2,-1
 567 477 l 2,3,4
 563 540 563 540 556 551 c 1,5,6
 549 558 549 558 488 558 c 2,7,-1
 178 558 l 2,8,9
 113 558 113 558 108 549 c 0,10,11
 100 534 100 534 99 477 c 2,12,-1
 99 472 l 1,13,-1
 42 472 l 1,14,-1
 51 680 l 1,15,-1
 615 680 l 1,0,-1
46 -5 m 1,16,-1
 37 214 l 1,17,-1
 94 214 l 1,18,-1
 94 209 l 2,19,20
 97 142 97 142 104 127 c 2,21,-1
 105 127 l 2,22,23
 106 125 106 125 113 123 c 128,-1,24
 120 121 120 121 137 119 c 128,-1,25
 154 117 154 117 177 117 c 2,26,-1
 489 117 l 2,27,28
 555 117 555 117 562 126 c 1,29,30
 569 141 569 141 572 209 c 2,31,-1
 572 214 l 1,32,-1
 629 214 l 1,33,-1
 620 -5 l 1,34,-1
 46 -5 l 1,16,-1
532 459 m 1,35,-1
 532 243 l 1,36,-1
 475 243 l 1,37,-1
 475 290 l 1,38,-1
 191 290 l 1,39,-1
 191 243 l 1,40,-1
 134 243 l 1,41,-1
 134 459 l 1,42,-1
 191 459 l 1,43,-1
 191 412 l 1,44,-1
 475 412 l 1,45,-1
 475 459 l 1,46,-1
 532 459 l 1,35,-1
EndSplineSet
Validated: 19457
EndChar

StartChar: Omicron
Encoding: 927 927 106
Width: 750
VWidth: 1000
Flags: W
HStem: -16 52<305.899 443.217> 652 50<302.143 445.933>
VStem: 51 163<193.482 487.136> 535 163<193.231 488.998>
LayerCount: 2
Fore
SplineSet
698 339 m 0,0,1
 698 173 698 173 607.5 78.5 c 128,-1,2
 517 -16 517 -16 374 -16 c 0,3,4
 235 -16 235 -16 143 77.5 c 128,-1,5
 51 171 51 171 51 339 c 0,6,7
 51 509 51 509 142 605.5 c 128,-1,8
 233 702 233 702 375 702 c 0,9,10
 514 702 514 702 606 606.5 c 128,-1,11
 698 511 698 511 698 339 c 0,0,1
375 36 m 0,12,13
 415 36 415 36 451 63 c 128,-1,14
 487 90 487 90 505 136 c 0,15,16
 525 184 525 184 530 232 c 128,-1,17
 535 280 535 280 535 353 c 0,18,19
 535 487 535 487 508 551 c 0,20,21
 488 600 488 600 452 626 c 128,-1,22
 416 652 416 652 374 652 c 0,23,24
 336 652 336 652 300 629 c 128,-1,25
 264 606 264 606 242 555 c 0,26,27
 214 491 214 491 214 353 c 0,28,29
 214 203 214 203 246 132 c 0,30,31
 265 88 265 88 299 62 c 128,-1,32
 333 36 333 36 375 36 c 0,12,13
EndSplineSet
Validated: 19457
EndChar

StartChar: Pi
Encoding: 928 928 107
Width: 783
VWidth: 1000
Flags: W
HStem: -5 57<29 123 275 369 413 507 659 753> 628 57<29 123 275 507 659 753>
VStem: 123 152<52 628> 507 152<52 628>
LayerCount: 2
Fore
SplineSet
659 628 m 1,0,-1
 659 52 l 1,1,-1
 753 52 l 1,2,-1
 753 -5 l 1,3,-1
 748 -5 l 2,4,5
 713 -2 713 -2 583 -2 c 128,-1,6
 453 -2 453 -2 418 -5 c 2,7,-1
 413 -5 l 1,8,-1
 413 52 l 1,9,-1
 507 52 l 1,10,-1
 507 628 l 1,11,-1
 275 628 l 1,12,-1
 275 52 l 1,13,-1
 369 52 l 1,14,-1
 369 -5 l 1,15,-1
 364 -5 l 2,16,17
 329 -2 329 -2 199 -2 c 128,-1,18
 69 -2 69 -2 34 -5 c 2,19,-1
 29 -5 l 1,20,-1
 29 52 l 1,21,-1
 123 52 l 1,22,-1
 123 628 l 1,23,-1
 29 628 l 1,24,-1
 29 685 l 1,25,-1
 753 685 l 1,26,-1
 753 628 l 1,27,-1
 659 628 l 1,0,-1
EndSplineSet
Validated: 19457
EndChar

StartChar: Rho
Encoding: 929 929 108
Width: 683
VWidth: 1000
Flags: W
HStem: -5 57<29 123 275 369> 297 51<275 440.407> 634 57<29 123 269 438.924>
VStem: 123 146<52 297 348 634> 468 163<400.126 582.055>
LayerCount: 2
Fore
SplineSet
275 297 m 1,0,-1
 275 52 l 1,1,-1
 369 52 l 1,2,-1
 369 -5 l 1,3,-1
 364 -5 l 2,4,5
 329 -2 329 -2 199 -2 c 128,-1,6
 69 -2 69 -2 34 -5 c 2,7,-1
 29 -5 l 1,8,-1
 29 52 l 1,9,-1
 123 52 l 1,10,-1
 123 634 l 1,11,-1
 29 634 l 1,12,-1
 29 691 l 1,13,-1
 393 691 l 2,14,15
 503 691 503 691 567 635 c 128,-1,16
 631 579 631 579 631 491 c 0,17,18
 631 402 631 402 565 349 c 0,19,20
 500 297 500 297 402 297 c 2,21,-1
 275 297 l 1,0,-1
269 634 m 1,22,-1
 269 348 l 1,23,-1
 352 348 l 2,24,25
 386 348 386 348 409 355.5 c 128,-1,26
 432 363 432 363 444 373 c 0,27,28
 455 382 455 382 460 404 c 0,29,30
 466 427 466 427 467 442 c 0,31,32
 468 458 468 458 468 491 c 0,33,34
 468 525 468 525 467 541 c 128,-1,35
 466 557 466 557 460 579 c 0,36,37
 454 600 454 600 444 609 c 0,38,39
 433 618 433 618 409.5 626 c 128,-1,40
 386 634 386 634 352 634 c 2,41,-1
 269 634 l 1,22,-1
EndSplineSet
Validated: 19457
EndChar

StartChar: Sigma
Encoding: 931 931 109
Width: 722
VWidth: 1000
Flags: W
HStem: -5 76<184 524.594> 634 57<249 523.906>
VStem: 613 58<206.353 265 440 494.52>
LayerCount: 2
Fore
SplineSet
432 318 m 2,0,-1
 184 71 l 1,1,-1
 391 71 l 2,2,3
 505 71 505 71 552.5 111 c 128,-1,4
 600 151 600 151 613 261 c 2,5,-1
 614 265 l 1,6,-1
 671 265 l 1,7,-1
 638 -5 l 1,8,-1
 88 -5 l 2,9,10
 51 -5 51 -5 51 18 c 0,11,12
 51 27 51 27 64 41 c 2,13,-1
 309 284 l 1,14,-1
 61 635 l 2,15,16
 51 649 51 649 51 662 c 128,-1,17
 51 675 51 675 56.5 682 c 128,-1,18
 62 689 62 689 70 690 c 0,19,20
 76 691 76 691 88 691 c 2,21,-1
 638 691 l 1,22,-1
 671 440 l 1,23,-1
 614 440 l 1,24,-1
 613 444 l 2,25,26
 599 552 599 552 553 593 c 128,-1,27
 507 634 507 634 395 634 c 2,28,-1
 249 634 l 1,29,-1
 439 364 l 1,30,31
 448 350 448 350 448 343 c 0,32,33
 448 332 448 332 432 318 c 2,0,-1
EndSplineSet
Validated: 19457
EndChar

StartChar: Tau
Encoding: 932 932 110
Width: 694
VWidth: 1000
Flags: W
HStem: -5 57<137 271 423 557> 623 57<139.376 271 423 551.328>
VStem: 31 57<429 514.675> 271 152<52 623> 605 57<429 514.675>
LayerCount: 2
Fore
SplineSet
641 680 m 1,0,-1
 662 429 l 1,1,-1
 605 429 l 1,2,-1
 605 434 l 2,3,4
 602 477 602 477 599 497 c 0,5,6
 596 518 596 518 587 548 c 0,7,8
 578 577 578 577 565 590 c 128,-1,9
 552 603 552 603 527 613 c 128,-1,10
 502 623 502 623 466 623 c 2,11,-1
 423 623 l 1,12,-1
 423 52 l 1,13,-1
 557 52 l 1,14,-1
 557 -5 l 1,15,-1
 552 -5 l 2,16,17
 504 -2 504 -2 347 -2 c 128,-1,18
 190 -2 190 -2 142 -5 c 2,19,-1
 137 -5 l 1,20,-1
 137 52 l 1,21,-1
 271 52 l 1,22,-1
 271 623 l 1,23,-1
 227 623 l 2,24,25
 201 623 201 623 180.5 617.5 c 128,-1,26
 160 612 160 612 146 605 c 0,27,28
 133 598 133 598 124 583 c 0,29,30
 114 567 114 567 107 555 c 0,31,32
 101 544 101 544 98 519 c 0,33,34
 94 494 94 494 92.5 479.5 c 128,-1,35
 91 465 91 465 88 434 c 2,36,-1
 88 429 l 1,37,-1
 31 429 l 1,38,-1
 52 680 l 1,39,-1
 641 680 l 1,0,-1
EndSplineSet
Validated: 19457
EndChar

StartChar: YUpsilon
Encoding: 933 933 111
Width: 755
VWidth: 1000
Flags: W
HStem: -5 57<210 304 450 545> 634 57<11 98 267 338 513 579.277 654.644 744>
VStem: 304 146<52 273>
LayerCount: 2
Fore
SplineSet
646 616 m 2,0,-1
 450 273 l 1,1,-1
 450 52 l 1,2,-1
 545 52 l 1,3,-1
 545 -5 l 1,4,-1
 540 -5 l 2,5,6
 505 -2 505 -2 377 -2 c 0,7,8
 250 -2 250 -2 215 -5 c 2,9,-1
 210 -5 l 1,10,-1
 210 52 l 1,11,-1
 304 52 l 1,12,-1
 304 273 l 1,13,-1
 98 634 l 1,14,-1
 11 634 l 1,15,-1
 11 691 l 1,16,-1
 16 691 l 2,17,18
 52 688 52 688 166 688 c 0,19,20
 297 688 297 688 333 691 c 2,21,-1
 338 691 l 1,22,-1
 338 634 l 1,23,-1
 267 634 l 1,24,-1
 425 356 l 1,25,-1
 580 626 l 1,26,27
 557 634 557 634 518 634 c 2,28,-1
 513 634 l 1,29,-1
 513 691 l 1,30,-1
 518 691 l 2,31,32
 569 688 569 688 637 688 c 0,33,34
 670 688 670 688 739 691 c 2,35,-1
 744 691 l 1,36,-1
 744 634 l 1,37,-1
 739 634 l 2,38,39
 698 634 698 634 678 632 c 0,40,41
 659 630 659 630 654.5 627 c 128,-1,42
 650 624 650 624 646 616 c 2,0,-1
EndSplineSet
Validated: 19457
EndChar

StartChar: Phi
Encoding: 934 934 112
Width: 722
VWidth: 1000
Flags: W
HStem: -5 57<167 285 426 544> 634 57<167 285 426 544>
VStem: 51 157<263.211 422.123> 285 141<52 150.628 201 485 535.34 634> 513 157<263.688 422.16>
LayerCount: 2
Fore
SplineSet
544 634 m 1,0,-1
 426 634 l 1,1,-1
 426 538 l 1,2,3
 487 532 487 532 534 514 c 0,4,5
 583 495 583 495 612 467 c 128,-1,6
 641 439 641 439 655.5 407.5 c 128,-1,7
 670 376 670 376 670 343 c 0,8,9
 670 272 670 272 607 215 c 0,10,11
 546 160 546 160 426 148 c 1,12,-1
 426 52 l 1,13,-1
 544 52 l 1,14,-1
 544 -5 l 1,15,-1
 539 -5 l 2,16,17
 501 -2 501 -2 355 -2 c 0,18,19
 210 -2 210 -2 172 -5 c 2,20,-1
 167 -5 l 1,21,-1
 167 52 l 1,22,-1
 285 52 l 1,23,-1
 285 149 l 1,24,25
 178 161 178 161 115 214 c 0,26,27
 51 268 51 268 51 342.5 c 128,-1,28
 51 417 51 417 115 472 c 0,29,30
 177 525 177 525 285 537 c 1,31,-1
 285 634 l 1,32,-1
 167 634 l 1,33,-1
 167 691 l 1,34,-1
 172 691 l 2,35,36
 210 688 210 688 356 688 c 0,37,38
 501 688 501 688 539 691 c 2,39,-1
 544 691 l 1,40,-1
 544 634 l 1,0,-1
285 201 m 1,41,-1
 285 485 l 1,42,43
 265 478 265 478 250 468 c 0,44,45
 233 456 233 456 225.5 444.5 c 128,-1,46
 218 433 218 433 213 413 c 0,47,48
 209 392 209 392 208 380 c 0,49,50
 208 368 208 368 208 343 c 128,-1,51
 208 318 208 318 208 306 c 128,-1,52
 208 294 208 294 213 273 c 0,53,54
 217 253 217 253 225.5 241.5 c 128,-1,55
 234 230 234 230 250 218 c 0,56,57
 265 208 265 208 285 201 c 1,41,-1
426 488 m 1,58,-1
 426 198 l 1,59,60
 455 205 455 205 474 218 c 0,61,62
 494 232 494 232 501 255 c 0,63,64
 509 279 509 279 511 296 c 128,-1,65
 513 313 513 313 513 343.5 c 128,-1,66
 513 374 513 374 511 390 c 0,67,68
 509 407 509 407 501 431 c 0,69,70
 494 454 494 454 474 468 c 0,71,72
 455 481 455 481 426 488 c 1,58,-1
EndSplineSet
Validated: 19457
EndChar

StartChar: Chi
Encoding: 935 935 113
Width: 755
VWidth: 1000
Flags: W
HStem: -5 57<24 137.21 213.911 294 410 479 645 732> 634 57<37 124 290 359 419 500.089 581.16 689>
LayerCount: 2
Fore
SplineSet
569 614 m 2,0,-1
 432 401 l 1,1,-1
 645 52 l 1,2,-1
 732 52 l 1,3,-1
 732 -5 l 1,4,-1
 727 -5 l 2,5,6
 690 -2 690 -2 579 -2 c 0,7,8
 451 -2 451 -2 415 -5 c 2,9,-1
 410 -5 l 1,10,-1
 410 52 l 1,11,-1
 479 52 l 1,12,-1
 347 270 l 1,13,-1
 213 61 l 1,14,15
 242 52 242 52 289 52 c 2,16,-1
 294 52 l 1,17,-1
 294 -5 l 1,18,-1
 289 -5 l 2,19,20
 252 -2 252 -2 151 -2 c 0,21,22
 146 -2 146 -2 29 -5 c 2,23,-1
 24 -5 l 1,24,-1
 24 52 l 1,25,-1
 53 52 l 2,26,27
 113 52 113 52 138 61 c 1,28,-1
 310 329 l 1,29,-1
 124 634 l 1,30,-1
 37 634 l 1,31,-1
 37 691 l 1,32,-1
 42 691 l 2,33,34
 78 688 78 688 190 688 c 0,35,36
 318 688 318 688 354 691 c 2,37,-1
 359 691 l 1,38,-1
 359 634 l 1,39,-1
 290 634 l 1,40,-1
 395 460 l 1,41,-1
 497 619 l 1,42,-1
 501 625 l 1,43,44
 472 634 472 634 424 634 c 2,45,-1
 419 634 l 1,46,-1
 419 691 l 1,47,-1
 424 691 l 2,48,49
 460 688 460 688 562 688 c 0,50,51
 567 688 567 688 684 691 c 2,52,-1
 689 691 l 1,53,-1
 689 634 l 1,54,-1
 660 634 l 2,55,56
 630 634 630 634 607 631 c 0,57,58
 586 629 586 629 581 626.5 c 128,-1,59
 576 624 576 624 569 614 c 2,0,-1
EndSplineSet
Validated: 19457
EndChar

StartChar: Psi
Encoding: 936 936 114
Width: 777
VWidth: 1000
Flags: W
HStem: -5 57<195 313 454 572> 508 44<51.0361 77 685.729 725.964> 634 57<195 313 454 572>
VStem: 96 141<290.621 505.566> 313 141<52 152.258 209 634> 540 141<295.173 505.253>
LayerCount: 2
Fore
SplineSet
454 634 m 1,0,-1
 454 207 l 1,1,2
 476 217 476 217 492 235 c 0,3,4
 511 256 511 256 520 277 c 128,-1,5
 529 298 529 298 534 330 c 128,-1,6
 539 362 539 362 540 379 c 0,7,8
 540 396 540 396 540 425 c 0,9,10
 540 497 540 497 557 524 c 0,11,12
 575 552 575 552 617 552 c 2,13,-1
 689 552 l 2,14,15
 726 552 726 552 726 529 c 0,16,17
 726 510 726 510 702 506 c 0,18,19
 695 505 695 505 691 499 c 0,20,21
 686 492 686 492 684 477 c 0,22,23
 682 461 682 461 681.5 450.5 c 128,-1,24
 681 440 681 440 681 420 c 0,25,26
 679 178 679 178 454 150 c 1,27,-1
 454 52 l 1,28,-1
 572 52 l 1,29,-1
 572 -5 l 1,30,-1
 567 -5 l 2,31,32
 529 -2 529 -2 383 -2 c 0,33,34
 238 -2 238 -2 200 -5 c 2,35,-1
 195 -5 l 1,36,-1
 195 52 l 1,37,-1
 313 52 l 1,38,-1
 313 150 l 1,39,40
 98 183 98 183 96 416 c 0,41,42
 96 502 96 502 77 505 c 0,43,44
 69 507 69 507 65 508 c 128,-1,45
 61 509 61 509 56 514 c 128,-1,46
 51 519 51 519 51 529 c 0,47,48
 51 552 51 552 88 552 c 2,49,-1
 160 552 l 2,50,51
 186 552 186 552 203 542 c 0,52,53
 220 531 220 531 227 507 c 0,54,55
 234 484 234 484 235 465 c 0,56,57
 237 446 237 446 237 409 c 0,58,59
 237 253 237 253 313 209 c 1,60,-1
 313 634 l 1,61,-1
 195 634 l 1,62,-1
 195 691 l 1,63,-1
 200 691 l 2,64,65
 238 688 238 688 384 688 c 0,66,67
 529 688 529 688 567 691 c 2,68,-1
 572 691 l 1,69,-1
 572 634 l 1,70,-1
 454 634 l 1,0,-1
EndSplineSet
Validated: 19457
EndChar

StartChar: Omega
Encoding: 937 937 115
Width: 722
VWidth: 1000
Flags: W
HStem: -5 113<116.065 212 509 602.935> 656 46<281.395 441.202>
VStem: 51 163<355.41 555.897> 507 163<352.227 555.823> 625 58<166.403 205>
LayerCount: 2
Fore
SplineSet
683 205 m 1,0,-1
 644 -5 l 1,1,-1
 480 -5 l 2,2,3
 457 -5 457 -5 450 1 c 128,-1,4
 443 7 443 7 443 29 c 0,5,6
 443 101 443 101 473 231 c 0,7,8
 507 382 507 382 507 458 c 0,9,10
 507 475 507 475 506 487 c 128,-1,11
 505 499 505 499 502 527 c 0,12,13
 499 554 499 554 489 573 c 0,14,15
 479 593 479 593 463 614 c 0,16,17
 448 634 448 634 422 645 c 0,18,19
 395 656 395 656 360 656 c 0,20,21
 283 656 283 656 244 595 c 0,22,23
 214 548 214 548 214 458 c 0,24,25
 214 385 214 385 249 229 c 0,26,27
 278 96 278 96 278 29 c 0,28,29
 278 6 278 6 270 0 c 0,30,31
 263 -6 263 -6 241 -5 c 2,32,-1
 77 -5 l 1,33,-1
 38 205 l 1,34,-1
 95 205 l 1,35,-1
 96 201 l 2,36,37
 108 141 108 141 111 130 c 0,38,39
 114 121 114 121 116 118 c 128,-1,40
 118 115 118 115 130 111 c 0,41,42
 142 108 142 108 168 108 c 2,43,-1
 212 108 l 1,44,45
 191 154 191 154 147 222 c 0,46,47
 114 273 114 273 99 298 c 128,-1,48
 84 323 84 323 68 369 c 0,49,50
 51 415 51 415 51 457 c 0,51,52
 51 558 51 558 129.5 630 c 128,-1,53
 208 702 208 702 361 702 c 0,54,55
 511 702 511 702 590 631 c 0,56,57
 670 560 670 560 670 457 c 0,58,59
 670 403 670 403 648 352 c 128,-1,60
 626 301 626 301 582 235 c 1,61,62
 528 151 528 151 509 108 c 1,63,-1
 553 108 l 2,64,65
 577 108 577 108 590 111 c 0,66,67
 601 114 601 114 603 117 c 0,68,69
 606 120 606 120 608 128 c 0,70,71
 617 152 617 152 625 201 c 2,72,-1
 626 205 l 1,73,-1
 683 205 l 1,0,-1
EndSplineSet
Validated: 19457
EndChar

StartChar: Upsilon
Encoding: 978 978 116
Width: 777
VWidth: 1000
Flags: W
HStem: -5 57<195 313 465 583> 577 125<122.659 250.275 525.561 661.992>
VStem: 313 152<52 492.641>
LayerCount: 2
Fore
SplineSet
465 351 m 2,0,-1
 465 52 l 1,1,-1
 583 52 l 1,2,-1
 583 -5 l 1,3,-1
 578 -5 l 2,4,5
 537 -2 537 -2 389 -2 c 128,-1,6
 241 -2 241 -2 200 -5 c 2,7,-1
 195 -5 l 1,8,-1
 195 52 l 1,9,-1
 313 52 l 1,10,-1
 313 351 l 2,11,12
 313 451 313 451 282 513 c 0,13,14
 268 543 268 543 246.5 558 c 128,-1,15
 225 573 225 573 213 575 c 0,16,17
 200 577 200 577 181 577 c 0,18,19
 144 577 144 577 129 570 c 0,20,21
 115 564 115 564 114 550 c 0,22,23
 112 533 112 533 104 530 c 0,24,25
 97 526 97 526 83 526 c 0,26,27
 73 526 73 526 68 527 c 0,28,29
 62 528 62 528 57 535 c 0,30,31
 51 541 51 541 51 554 c 0,32,33
 51 606 51 606 88 654 c 0,34,35
 126 702 126 702 191 702 c 0,36,37
 268 702 268 702 320 643 c 0,38,39
 366 591 366 591 388 505 c 1,40,41
 392 520 392 520 397 534 c 0,42,43
 405 557 405 557 421 588.5 c 128,-1,44
 437 620 437 620 458 644 c 128,-1,45
 479 668 479 668 512 685 c 0,46,47
 546 702 546 702 586 702 c 0,48,49
 652 702 652 702 689 654 c 128,-1,50
 726 606 726 606 726 554 c 0,51,52
 726 541 726 541 720 535 c 128,-1,53
 714 529 714 529 709 527 c 0,54,55
 704 526 704 526 694 526 c 0,56,57
 676 526 676 526 670 532 c 0,58,59
 665 538 665 538 663 552 c 0,60,61
 660 577 660 577 596 577 c 0,62,63
 581 577 581 577 572 575.5 c 128,-1,64
 563 574 563 574 547 568 c 0,65,66
 532 562 532 562 518 548 c 0,67,68
 504 533 504 533 493 508 c 0,69,70
 465 449 465 449 465 351 c 2,0,-1
EndSplineSet
Validated: 19457
EndChar

StartChar: ae
Encoding: 230 230 117
Width: 722
VWidth: 1000
Flags: W
HStem: -11 46<166.539 279.022 477.418 595.931> 213 43<226.833 299 423 593> 293 144<72.6572 164.373> 412 46<168 273.055 462.609 560.913>
VStem: 23 127<53.2412 160.783> 51 135<311.566 407.312> 299 124<256 366.108> 593 105<256 359.86>
LayerCount: 2
Fore
SplineSet
661 213 m 2,0,-1
 423 213 l 1,1,2
 424 133 424 133 445 94 c 0,3,4
 476 39 476 39 537 39 c 0,5,6
 566 39 566 39 596 57 c 128,-1,7
 626 75 626 75 640 118 c 0,8,9
 642 124 642 124 643 126 c 0,10,11
 644 129 644 129 648 133 c 128,-1,12
 652 137 652 137 657 139 c 0,13,14
 662 140 662 140 669 140 c 0,15,16
 698 140 698 140 698 117 c 0,17,18
 698 106 698 106 688 86 c 0,19,20
 679 67 679 67 661 45 c 0,21,22
 642 22 642 22 607 5.5 c 128,-1,23
 572 -11 572 -11 529 -11 c 0,24,25
 435 -11 435 -11 369 47 c 1,26,27
 306 -11 306 -11 200 -11 c 0,28,29
 126 -11 126 -11 75 18 c 0,30,31
 23 47 23 47 23 103 c 0,32,33
 23 238 23 238 299 253 c 1,34,-1
 299 301 l 2,35,36
 299 412 299 412 217 412 c 0,37,38
 195 412 195 412 168 408 c 1,39,40
 186 386 186 386 186 361 c 0,41,42
 186 329 186 329 165 311 c 0,43,44
 145 293 145 293 118 293 c 0,45,46
 93 293 93 293 72 311 c 128,-1,47
 51 329 51 329 51 361 c 0,48,49
 51 388 51 388 67 408 c 0,50,51
 82 428 82 428 101 437 c 128,-1,52
 120 446 120 446 148 451 c 0,53,54
 175 456 175 456 190 457 c 128,-1,55
 205 458 205 458 221 458 c 0,56,57
 321 458 321 458 376 410 c 1,58,59
 434 458 434 458 517 458 c 0,60,61
 605 458 605 458 652 400 c 0,62,63
 698 343 698 343 698 247 c 0,64,65
 698 224 698 224 690 218 c 0,66,67
 683 212 683 212 661 213 c 2,0,-1
423 256 m 1,68,-1
 593 256 l 1,69,70
 588 412 588 412 517 412 c 0,71,72
 466 412 466 412 441 358 c 0,73,74
 425 325 425 325 423 256 c 1,68,-1
299 209 m 1,75,76
 282 208 282 208 267 204 c 0,77,78
 248 200 248 200 217 190 c 0,79,80
 187 180 187 180 168 157 c 0,81,82
 150 135 150 135 150 103 c 0,83,84
 150 77 150 77 166 56 c 128,-1,85
 182 35 182 35 210 35 c 0,86,87
 256 35 256 35 287 63.5 c 128,-1,88
 318 92 318 92 318 121 c 0,89,90
 318 124 318 124 316 127 c 2,91,-1
 315 128 l 1,92,93
 302 166 302 166 299 209 c 1,75,76
EndSplineSet
Validated: 19457
EndChar

StartChar: AE
Encoding: 198 198 118
Width: 905
VWidth: 1000
Flags: W
HStem: -5 57<30 116.903 187.233 265 343 414 556 738.253> 301 57<295 414 556 656.493> 634 57<264 329 396 414 556 732.218>
VStem: 414 142<52 301 358 634> 674 57<184 284.541 375.28 475>
LayerCount: 2
Fore
SplineSet
883 279 m 1,0,-1
 835 -5 l 1,1,-1
 343 -5 l 1,2,-1
 343 52 l 1,3,-1
 414 52 l 1,4,-1
 414 301 l 1,5,-1
 275 301 l 1,6,-1
 191 70 l 1,7,-1
 190 70 l 2,8,9
 187 64 187 64 187 60 c 1,10,11
 194 52 194 52 260 52 c 2,12,-1
 265 52 l 1,13,-1
 265 -5 l 1,14,-1
 260 -5 l 2,15,16
 209 -2 209 -2 141 -2 c 0,17,18
 131 -2 131 -2 35 -5 c 2,19,-1
 30 -5 l 1,20,-1
 30 52 l 1,21,-1
 35 52 l 2,22,23
 77 52 77 52 96 54 c 0,24,25
 114 56 114 56 117 60 c 0,26,27
 121 63 121 63 124 72 c 2,28,-1
 329 634 l 1,29,-1
 264 634 l 1,30,-1
 264 691 l 1,31,-1
 822 691 l 1,32,-1
 855 440 l 1,33,-1
 798 440 l 1,34,-1
 797 444 l 2,35,36
 793 475 793 475 790.5 490 c 128,-1,37
 788 505 788 505 783 530 c 0,38,39
 778 554 778 554 771 566 c 128,-1,40
 764 578 764 578 752 594 c 0,41,42
 740 609 740 609 724 616 c 128,-1,43
 708 623 708 623 684.5 628.5 c 128,-1,44
 661 634 661 634 632 634 c 2,45,-1
 556 634 l 1,46,-1
 556 358 l 1,47,-1
 582 358 l 2,48,49
 615 358 615 358 634 365 c 0,50,51
 652 371 652 371 661 387 c 0,52,53
 670 404 670 404 672 420 c 0,54,55
 674 437 674 437 674 470 c 2,56,-1
 674 475 l 1,57,-1
 731 475 l 1,58,-1
 731 184 l 1,59,-1
 674 184 l 1,60,-1
 674 189 l 2,61,62
 674 253 674 253 658 277 c 0,63,64
 643 301 643 301 582 301 c 2,65,-1
 556 301 l 1,66,-1
 556 52 l 1,67,-1
 637 52 l 2,68,69
 662 52 662 52 683 56 c 128,-1,70
 704 60 704 60 719 65 c 128,-1,71
 734 70 734 70 747 81 c 128,-1,72
 760 92 760 92 770 102 c 0,73,74
 779 111 779 111 787 129 c 128,-1,75
 795 147 795 147 799.5 158.5 c 128,-1,76
 804 170 804 170 809.5 194 c 128,-1,77
 815 218 815 218 817.5 232.5 c 128,-1,78
 820 247 820 247 825 275 c 2,79,-1
 826 279 l 1,80,-1
 883 279 l 1,0,-1
396 634 m 1,81,-1
 295 358 l 1,82,-1
 414 358 l 1,83,-1
 414 634 l 1,84,-1
 396 634 l 1,81,-1
EndSplineSet
Validated: 19457
EndChar

StartChar: OE
Encoding: 338 338 119
Width: 1016
VWidth: 1000
Flags: W
HStem: -16 46<335.74 482.649> -5 57<645 847.788> 328 57<645 778.574> 634 57<645 838.563> 656 46<333.444 482.795>
VStem: 68 157<195.855 483.01> 508 137<55.7769 328 385 630.229> 799 57<211 308.17 404.83 502>
LayerCount: 2
Fore
SplineSet
994 279 m 1,0,-1
 946 -5 l 1,1,-1
 574 -5 l 2,2,3
 548 -5 548 -5 476 -12 c 2,4,-1
 465 -13 l 2,5,6
 454 -14 454 -14 437 -15 c 128,-1,7
 420 -16 420 -16 407 -16 c 0,8,9
 255 -16 255 -16 161.5 79.5 c 128,-1,10
 68 175 68 175 68 340 c 0,11,12
 68 503 68 503 160.5 602.5 c 128,-1,13
 253 702 253 702 407 702 c 0,14,15
 448 702 448 702 498 696 c 0,16,17
 540 691 540 691 574 691 c 2,18,-1
 933 691 l 1,19,-1
 966 440 l 1,20,-1
 909 440 l 1,21,-1
 908 444 l 2,22,23
 903 480 903 480 900 498 c 128,-1,24
 897 516 897 516 889 543 c 0,25,26
 881 569 881 569 871 581 c 0,27,28
 860 594 860 594 842 609 c 0,29,30
 824 623 824 623 799 628 c 0,31,32
 773 634 773 634 736 634 c 2,33,-1
 645 634 l 1,34,-1
 645 385 l 1,35,-1
 700 385 l 2,36,37
 763 385 763 385 781 410 c 0,38,39
 799 436 799 436 799 497 c 2,40,-1
 799 502 l 1,41,-1
 856 502 l 1,42,-1
 856 211 l 1,43,-1
 799 211 l 1,44,-1
 799 216 l 2,45,46
 799 277 799 277 781 303 c 0,47,48
 763 328 763 328 700 328 c 2,49,-1
 645 328 l 1,50,-1
 645 52 l 1,51,-1
 741 52 l 2,52,53
 774 52 774 52 800.5 58.5 c 128,-1,54
 827 65 827 65 845 73 c 0,55,56
 863 82 863 82 877 100 c 0,57,58
 892 118 892 118 900 132 c 128,-1,59
 908 146 908 146 916 175 c 0,60,61
 923 203 923 203 926.5 221.5 c 128,-1,62
 930 240 930 240 936 275 c 2,63,-1
 937 279 l 1,64,-1
 994 279 l 1,0,-1
408 30 m 0,65,66
 465 30 465 30 483 52 c 0,67,68
 502 75 502 75 508 128 c 0,69,70
 512 163 512 163 512 344 c 0,71,72
 512 523 512 523 508 559 c 0,73,74
 502 611 502 611 483 634 c 0,75,76
 464 656 464 656 408 656 c 0,77,78
 334 656 334 656 280 584 c 0,79,80
 225 511 225 511 225 355 c 0,81,82
 225 194 225 194 279 112 c 0,83,84
 332 30 332 30 408 30 c 0,65,66
EndSplineSet
Validated: 19457
EndChar

StartChar: oe
Encoding: 339 339 120
Width: 777
VWidth: 1000
Flags: W
HStem: -11 46<193.897 310.201 530.917 651.842> 213 43<478 649> 412 46<191.626 313.17 519.758 615.633>
VStem: 23 127<112.48 334.257> 354 124<96.2017 213 256 366.297> 649 105<256 359.86>
LayerCount: 2
Fore
SplineSet
717 213 m 2,0,-1
 478 213 l 1,1,2
 478 200 478 200 478 193 c 0,3,4
 478 184 478 184 481 163 c 0,5,6
 483 141 483 141 488 128 c 0,7,8
 492 114 492 114 501 94 c 0,9,10
 509 75 509 75 520.5 65 c 128,-1,11
 532 55 532 55 550.5 47 c 128,-1,12
 569 39 569 39 592 39 c 0,13,14
 624 39 624 39 653 58 c 0,15,16
 683 77 683 77 696 118 c 0,17,18
 698 124 698 124 699 126 c 0,19,20
 700 129 700 129 704 133 c 128,-1,21
 708 137 708 137 713 139 c 0,22,23
 718 140 718 140 725 140 c 0,24,25
 754 140 754 140 754 117 c 0,26,27
 754 85 754 85 709 37 c 128,-1,28
 664 -11 664 -11 585 -11 c 0,29,30
 485 -11 485 -11 417 54 c 1,31,32
 350 -11 350 -11 251 -11 c 0,33,34
 150 -11 150 -11 86.5 53 c 128,-1,35
 23 117 23 117 23 224 c 0,36,37
 23 332 23 332 87 395 c 128,-1,38
 151 458 151 458 251 458 c 0,39,40
 299 458 299 458 340.5 441.5 c 128,-1,41
 382 425 382 425 396 413 c 0,42,43
 407 404 407 404 415 395 c 1,44,45
 476 458 476 458 572 458 c 0,46,47
 663 458 663 458 709 399 c 0,48,49
 754 341 754 341 754 247 c 0,50,51
 754 224 754 224 746 218 c 0,52,53
 739 212 739 212 717 213 c 2,0,-1
478 256 m 1,54,-1
 649 256 l 1,55,56
 644 412 644 412 572 412 c 0,57,58
 551 412 551 412 529.5 398 c 128,-1,59
 508 384 508 384 496 358 c 0,60,61
 480 325 480 325 478 256 c 1,54,-1
251 35 m 0,62,63
 310 35 310 35 336 95 c 0,64,65
 354 133 354 133 354 229 c 0,66,67
 354 323 354 323 336 360 c 0,68,69
 309 412 309 412 251 412 c 0,70,71
 224 412 224 412 201 397 c 0,72,73
 179 382 179 382 167 360 c 0,74,75
 150 323 150 323 150 229 c 0,76,77
 150 136 150 136 167 96 c 0,78,79
 178 67 178 67 202 51 c 128,-1,80
 226 35 226 35 251 35 c 0,62,63
EndSplineSet
Validated: 19457
EndChar

StartChar: germandbls
Encoding: 223 223 121
Width: 559
VWidth: 1000
Flags: W
HStem: -11 46<306.392 376.153> -5 57<11 80> 392 57<11 80> 403 2<257.218 258> 659 46<225.1 355.282>
VStem: 11 187<-2 52 392 449> 80 118<52 392 449 631.972> 217 110<37.5029 120.014> 380 128<490.063 630.453> 408 128<86.0786 293.306>
LayerCount: 2
Fore
SplineSet
267 403 m 0,0,1
 264 403 264 403 257 405 c 2,2,-1
 258 405 l 2,3,4
 254 406 254 406 251 407 c 0,5,6
 249 409 249 409 248 410 c 0,7,8
 245 413 245 413 245 418 c 0,9,10
 244 421 244 421 244 426 c 0,11,12
 244 436 244 436 248.5 441.5 c 128,-1,13
 253 447 253 447 258 447 c 0,14,15
 261 448 261 448 270 449 c 2,16,-1
 271 449 l 1,17,18
 380 456 380 456 380 563 c 0,19,20
 380 659 380 659 291 659 c 0,21,22
 198 659 198 659 198 559 c 2,23,-1
 198 -5 l 1,24,-1
 193 -5 l 2,25,26
 152 -2 152 -2 128 -2 c 0,27,28
 88 -2 88 -2 16 -5 c 2,29,-1
 11 -5 l 1,30,-1
 11 52 l 1,31,-1
 80 52 l 1,32,-1
 80 392 l 1,33,-1
 11 392 l 1,34,-1
 11 449 l 1,35,-1
 80 449 l 1,36,-1
 80 556 l 2,37,38
 80 629 80 629 139 667 c 0,39,40
 197 705 197 705 292 705 c 0,41,42
 400 705 400 705 454 663 c 128,-1,43
 508 621 508 621 508 562 c 0,44,45
 508 511 508 511 473 474 c 0,46,47
 442 442 442 442 393 422 c 1,48,49
 456 394 456 394 494 333 c 0,50,51
 536 267 536 267 536 180 c 0,52,53
 536 89 536 89 475 39 c 128,-1,54
 414 -11 414 -11 326 -11 c 0,55,56
 276 -11 276 -11 246.5 16.5 c 128,-1,57
 217 44 217 44 217 80 c 0,58,59
 217 110 217 110 236 123 c 0,60,61
 254 136 254 136 272 136 c 0,62,63
 294 136 294 136 310.5 120.5 c 128,-1,64
 327 105 327 105 327 81 c 0,65,66
 327 53 327 53 306 37 c 1,67,68
 314 35 314 35 323 35 c 0,69,70
 408 35 408 35 408 179 c 0,71,72
 408 392 408 392 267 403 c 0,0,1
EndSplineSet
Validated: 19457
EndChar

StartChar: Oslash
Encoding: 216 216 122
Width: 777
VWidth: 1000
Flags: W
HStem: -16 46<302.494 475.351> 656 46<303.21 474.621>
VStem: 51 152<194.431 484.242> 574 152<194.612 482.592>
LayerCount: 2
Fore
SplineSet
638 727 m 1,0,-1
 590 642 l 1,1,2
 658 593 658 593 692 514 c 0,3,4
 726 434 726 434 726 340 c 0,5,6
 726 172 726 172 631 78 c 128,-1,7
 536 -16 536 -16 389 -16 c 0,8,9
 302 -16 302 -16 230 18 c 1,10,-1
 182 -66 l 1,11,-1
 139 -41 l 1,12,-1
 187 43 l 1,13,14
 134 77 134 77 94 149 c 0,15,16
 51 224 51 224 51 340 c 0,17,18
 51 505 51 505 144.5 603.5 c 128,-1,19
 238 702 238 702 389 702 c 0,20,21
 471 702 471 702 547 667 c 1,22,-1
 595 752 l 1,23,-1
 638 727 l 1,0,-1
233 124 m 1,24,-1
 511 606 l 1,25,26
 463 656 463 656 388 656 c 0,27,28
 346 656 346 656 302 634 c 128,-1,29
 258 612 258 612 232 556 c 1,30,31
 203 495 203 495 203 340 c 0,32,33
 203 288 203 288 204 259 c 128,-1,34
 205 230 205 230 213 187 c 0,35,36
 220 150 220 150 233 124 c 1,24,-1
543 561 m 1,37,-1
 265 79 l 1,38,39
 318 30 318 30 389 30 c 0,40,41
 429 30 429 30 471 50 c 128,-1,42
 513 70 513 70 540 115 c 0,43,44
 556 143 556 143 564 186 c 128,-1,45
 572 229 572 229 573 259 c 0,46,47
 574 288 574 288 574 340 c 128,-1,48
 574 392 574 392 573 422 c 128,-1,49
 572 452 572 452 564 496 c 0,50,51
 557 534 557 534 543 561 c 1,37,-1
EndSplineSet
Validated: 19457
EndChar

StartChar: dotlessi
Encoding: 305 305 123
Width: 277
VWidth: 1000
Flags: W
HStem: -5 57<21 90 208 270> 390 57<24 82.71>
VStem: 90 118<52 384.87>
LayerCount: 2
Fore
SplineSet
208 455 m 1,0,-1
 208 52 l 1,1,-1
 270 52 l 1,2,-1
 270 -5 l 1,3,-1
 265 -5 l 2,4,5
 157 -2 157 -2 148 -2 c 0,6,7
 119 -2 119 -2 26 -5 c 2,8,-1
 21 -5 l 1,9,-1
 21 52 l 1,10,-1
 90 52 l 1,11,-1
 90 356 l 2,12,13
 90 381 90 381 83 385 c 0,14,15
 74 390 74 390 29 390 c 2,16,-1
 24 390 l 1,17,-1
 24 447 l 1,18,-1
 208 455 l 1,0,-1
EndSplineSet
Validated: 19457
EndChar

StartChar: dotlessj
Encoding: 567 567 124
Width: 305
VWidth: 1000
Flags: W
HStem: -205 46<48.429 104.311> 390 57<53 128.647>
VStem: -67 135<-156.404 -61.1117> 129 118<-125.371 388.469>
LayerCount: 2
Fore
SplineSet
53 447 m 1,0,-1
 247 455 l 1,1,-1
 247 -42 l 2,2,3
 247 -117 247 -117 194 -161 c 128,-1,4
 141 -205 141 -205 71 -205 c 0,5,6
 14 -205 14 -205 -26 -180 c 0,7,8
 -67 -154 -67 -154 -67 -109 c 0,9,10
 -67 -80 -67 -80 -48 -60.5 c 128,-1,11
 -29 -41 -29 -41 1 -41 c 0,12,13
 30 -41 30 -41 49 -60.5 c 128,-1,14
 68 -80 68 -80 68 -108 c 0,15,16
 68 -138 68 -138 48 -157 c 1,17,18
 58 -159 58 -159 69 -159 c 0,19,20
 87 -159 87 -159 100 -148 c 0,21,22
 113 -136 113 -136 118 -117 c 0,23,24
 124 -97 124 -97 126.5 -80 c 128,-1,25
 129 -63 129 -63 129 -44 c 2,26,-1
 129 355 l 2,27,28
 129 368 129 368 128 373 c 128,-1,29
 127 378 127 378 123 382 c 128,-1,30
 119 386 119 386 111 388 c 0,31,32
 96 390 96 390 58 390 c 2,33,-1
 53 390 l 1,34,-1
 53 447 l 1,0,-1
EndSplineSet
Validated: 19457
EndChar

StartChar: hat
Encoding: 94 94 126
Width: 500
VWidth: 1000
Flags: W
HStem: 524 177
VStem: 103 293
LayerCount: 2
Fore
SplineSet
250 701 m 1,0,-1
 396 566 l 1,1,-1
 360 524 l 1,2,-1
 249 606 l 1,3,-1
 139 523 l 1,4,-1
 103 568 l 1,5,-1
 250 701 l 1,0,-1
EndSplineSet
Validated: 19457
EndChar

StartChar: accenthat
Encoding: 710 710 127
Width: 500
VWidth: 1000
Flags: W
HStem: 524 177
VStem: 103 293
LayerCount: 2
Fore
SplineSet
250 701 m 1,0,-1
 396 566 l 1,1,-1
 360 524 l 1,2,-1
 249 606 l 1,3,-1
 139 523 l 1,4,-1
 103 568 l 1,5,-1
 250 701 l 1,0,-1
EndSplineSet
Validated: 19457
EndChar

StartChar: combininghat
Encoding: 770 770 128
Width: 500
VWidth: 1000
Flags: W
HStem: 524 177
VStem: 103 293
LayerCount: 2
Fore
SplineSet
250 701 m 1,0,-1
 396 566 l 1,1,-1
 360 524 l 1,2,-1
 249 606 l 1,3,-1
 139 523 l 1,4,-1
 103 568 l 1,5,-1
 250 701 l 1,0,-1
EndSplineSet
Validated: 19457
EndChar

StartChar: accentcheck
Encoding: 711 711 129
Width: 500
VWidth: 1000
Flags: W
HStem: 512 146
VStem: 106 287
LayerCount: 2
Fore
SplineSet
250 605 m 1,0,-1
 364 658 l 1,1,-1
 393 611 l 1,2,-1
 249 512 l 1,3,-1
 106 611 l 1,4,-1
 135 658 l 1,5,-1
 250 605 l 1,0,-1
EndSplineSet
Validated: 19457
EndChar

StartChar: combiningcheck
Encoding: 780 780 130
Width: 500
VWidth: 1000
Flags: W
HStem: 512 146
VStem: 106 287
LayerCount: 2
Fore
SplineSet
250 605 m 1,0,-1
 364 658 l 1,1,-1
 393 611 l 1,2,-1
 249 512 l 1,3,-1
 106 611 l 1,4,-1
 135 658 l 1,5,-1
 250 605 l 1,0,-1
EndSplineSet
Validated: 19457
EndChar

StartChar: accentbar
Encoding: 713 713 131
Width: 500
VWidth: 1000
Flags: W
HStem: 550 62<64 435>
LayerCount: 2
Fore
SplineSet
435 550 m 1,0,-1
 64 550 l 1,1,-1
 64 612 l 1,2,-1
 435 612 l 1,3,-1
 435 550 l 1,0,-1
EndSplineSet
Validated: 19457
EndChar

StartChar: accentacute
Encoding: 714 714 132
Width: 500
VWidth: 1000
Flags: W
HStem: 505 206
VStem: 200 205
LayerCount: 2
Fore
SplineSet
371 591 m 2,0,-1
 238 505 l 1,1,-1
 200 543 l 1,2,-1
 286 679 l 2,3,4
 306 711 306 711 338 711 c 0,5,6
 364 711 364 711 384.5 690.5 c 128,-1,7
 405 670 405 670 405 644 c 0,8,9
 405 613 405 613 371 591 c 2,0,-1
EndSplineSet
Validated: 19457
EndChar

StartChar: accentgrave
Encoding: 715 715 133
Width: 500
VWidth: 1000
Flags: W
HStem: 505 206
VStem: 94 205
LayerCount: 2
Fore
SplineSet
215 676 m 2,0,-1
 299 543 l 1,1,-1
 261 505 l 1,2,-1
 128 591 l 2,3,4
 94 613 94 613 94 644 c 0,5,6
 94 670 94 670 114.5 690.5 c 128,-1,7
 135 711 135 711 161 711 c 0,8,9
 191 711 191 711 215 676 c 2,0,-1
EndSplineSet
Validated: 19457
EndChar

StartChar: accentbreve
Encoding: 728 728 134
Width: 500
VWidth: 1000
Flags: W
HStem: 502 72<181.73 317.066> 679 20G<88 134 365 411>
VStem: 88 46<622.838 699> 365 46<622.343 699>
LayerCount: 2
Fore
SplineSet
365 699 m 1,0,-1
 411 699 l 1,1,-1
 411 694 l 2,2,3
 409 607 409 607 362 555 c 0,4,5
 315 502 315 502 250 502 c 0,6,7
 184 502 184 502 137 555 c 128,-1,8
 90 608 90 608 88 694 c 2,9,-1
 88 699 l 1,10,-1
 134 699 l 1,11,-1
 134 694 l 2,12,13
 135 639 135 639 169.5 606.5 c 128,-1,14
 204 574 204 574 250 574 c 0,15,16
 294 574 294 574 329 606 c 128,-1,17
 364 638 364 638 365 694 c 2,18,-1
 365 699 l 1,0,-1
EndSplineSet
Validated: 19457
EndChar

StartChar: accentdot
Encoding: 729 729 135
Width: 277
VWidth: 1000
Flags: W
HStem: 534 166<82.0469 194.953>
VStem: 55 167<560.818 673.182>
LayerCount: 2
Fore
SplineSet
222 617 m 0,0,1
 222 584 222 584 198 559 c 128,-1,2
 174 534 174 534 138 534 c 0,3,4
 104 534 104 534 79.5 558.5 c 128,-1,5
 55 583 55 583 55 617 c 0,6,7
 55 650 55 650 79 675 c 128,-1,8
 103 700 103 700 139 700 c 0,9,10
 173 700 173 700 197.5 675.5 c 128,-1,11
 222 651 222 651 222 617 c 0,0,1
EndSplineSet
Validated: 19457
EndChar

StartChar: accentring
Encoding: 730 730 136
Width: 755
VWidth: 1000
Flags: W
HStem: 530 46<329.579 425.745> 661 46<329.237 425.469>
VStem: 266 57<581.905 655.156> 432 57<581.597 655.014>
LayerCount: 2
Fore
SplineSet
489 619 m 0,0,1
 489 582 489 582 460 556 c 128,-1,2
 431 530 431 530 377 530 c 0,3,4
 325 530 325 530 296 555 c 0,5,6
 266 580 266 580 266 619 c 0,7,8
 266 654 266 654 294 680.5 c 128,-1,9
 322 707 322 707 378 707 c 0,10,11
 432 707 432 707 460 681 c 0,12,13
 489 655 489 655 489 619 c 0,0,1
378 576 m 128,-1,15
 411 576 411 576 422 584 c 0,16,17
 432 592 432 592 432 618.5 c 128,-1,18
 432 645 432 645 422 653 c 0,19,20
 411 661 411 661 377.5 661 c 128,-1,21
 344 661 344 661 333 653 c 0,22,23
 323 645 323 645 323 618.5 c 128,-1,24
 323 592 323 592 333 584 c 0,25,14
 345 576 345 576 378 576 c 128,-1,15
EndSplineSet
Validated: 19457
EndChar

StartChar: accenttilde
Encoding: 732 732 137
Width: 500
VWidth: 1000
Flags: W
HStem: 583 85<234.399 369.474> 614 85<129.526 264.601>
LayerCount: 2
Fore
SplineSet
423 673 m 1,0,-1
 379 616 l 2,1,2
 355 583 355 583 312 583 c 0,3,4
 293 583 293 583 245 597 c 1,5,6
 195 614 195 614 174 614 c 0,7,8
 137 614 137 614 115 585 c 2,9,-1
 112 581 l 1,10,-1
 76 609 l 1,11,-1
 120 666 l 2,12,13
 144 699 144 699 187 699 c 0,14,15
 206 699 206 699 254 685 c 1,16,17
 304 668 304 668 325 668 c 0,18,19
 362 668 362 668 384 697 c 2,20,-1
 387 701 l 1,21,-1
 423 673 l 1,0,-1
EndSplineSet
Validated: 19457
EndChar

StartChar: accentdacute
Encoding: 733 733 138
Width: 500
VWidth: 1000
Flags: W
HStem: 511 206
VStem: 112 321
LayerCount: 2
Fore
SplineSet
244 605 m 2,0,-1
 161 511 l 1,1,-1
 112 535 l 1,2,-1
 135 659 l 2,3,4
 146 717 146 717 194 717 c 0,5,6
 221 717 221 717 243 698 c 0,7,8
 266 679 266 679 266 653 c 0,9,10
 266 631 266 631 244 605 c 2,0,-1
279 535 m 1,11,-1
 302 659 l 2,12,13
 313 717 313 717 361 717 c 0,14,15
 388 717 388 717 410 698 c 0,16,17
 433 679 433 679 433 653 c 0,18,19
 433 631 433 631 411 605 c 2,20,-1
 328 511 l 1,21,-1
 279 535 l 1,11,-1
EndSplineSet
Validated: 19457
EndChar

StartChar: combininggrave
Encoding: 768 768 139
Width: 500
VWidth: 1000
Flags: W
HStem: 505 206
VStem: 94 205
LayerCount: 2
Fore
SplineSet
215 676 m 2,0,-1
 299 543 l 1,1,-1
 261 505 l 1,2,-1
 128 591 l 2,3,4
 94 613 94 613 94 644 c 0,5,6
 94 670 94 670 114.5 690.5 c 128,-1,7
 135 711 135 711 161 711 c 0,8,9
 191 711 191 711 215 676 c 2,0,-1
EndSplineSet
Validated: 19457
EndChar

StartChar: combiningacute
Encoding: 769 769 140
Width: 500
VWidth: 1000
Flags: W
HStem: 505 206
VStem: 200 205
LayerCount: 2
Fore
SplineSet
371 591 m 2,0,-1
 238 505 l 1,1,-1
 200 543 l 1,2,-1
 286 679 l 2,3,4
 306 711 306 711 338 711 c 0,5,6
 364 711 364 711 384.5 690.5 c 128,-1,7
 405 670 405 670 405 644 c 0,8,9
 405 613 405 613 371 591 c 2,0,-1
EndSplineSet
Validated: 19457
EndChar

StartChar: combiningtilde
Encoding: 771 771 141
Width: 500
VWidth: 1000
Flags: W
HStem: 583 85<234.399 369.474> 614 85<129.526 264.601>
LayerCount: 2
Fore
SplineSet
423 673 m 1,0,-1
 379 616 l 2,1,2
 355 583 355 583 312 583 c 0,3,4
 293 583 293 583 245 597 c 1,5,6
 195 614 195 614 174 614 c 0,7,8
 137 614 137 614 115 585 c 2,9,-1
 112 581 l 1,10,-1
 76 609 l 1,11,-1
 120 666 l 2,12,13
 144 699 144 699 187 699 c 0,14,15
 206 699 206 699 254 685 c 1,16,17
 304 668 304 668 325 668 c 0,18,19
 362 668 362 668 384 697 c 2,20,-1
 387 701 l 1,21,-1
 423 673 l 1,0,-1
EndSplineSet
Validated: 19457
EndChar

StartChar: combiningbar
Encoding: 772 772 142
Width: 500
VWidth: 1000
Flags: W
HStem: 550 62<64 435>
LayerCount: 2
Fore
SplineSet
435 550 m 1,0,-1
 64 550 l 1,1,-1
 64 612 l 1,2,-1
 435 612 l 1,3,-1
 435 550 l 1,0,-1
EndSplineSet
Validated: 19457
EndChar

StartChar: combiningbreve
Encoding: 774 774 143
Width: 500
VWidth: 1000
Flags: W
HStem: 502 72<181.73 317.066> 679 20G<88 134 365 411>
VStem: 88 46<622.838 699> 365 46<622.343 699>
LayerCount: 2
Fore
SplineSet
365 699 m 1,0,-1
 411 699 l 1,1,-1
 411 694 l 2,2,3
 409 607 409 607 362 555 c 0,4,5
 315 502 315 502 250 502 c 0,6,7
 184 502 184 502 137 555 c 128,-1,8
 90 608 90 608 88 694 c 2,9,-1
 88 699 l 1,10,-1
 134 699 l 1,11,-1
 134 694 l 2,12,13
 135 639 135 639 169.5 606.5 c 128,-1,14
 204 574 204 574 250 574 c 0,15,16
 294 574 294 574 329 606 c 128,-1,17
 364 638 364 638 365 694 c 2,18,-1
 365 699 l 1,0,-1
EndSplineSet
Validated: 19457
EndChar

StartChar: combiningdot
Encoding: 775 775 144
Width: 277
VWidth: 1000
Flags: W
HStem: 534 166<82.0469 194.953>
VStem: 55 167<560.818 673.182>
LayerCount: 2
Fore
SplineSet
222 617 m 0,0,1
 222 584 222 584 198 559 c 128,-1,2
 174 534 174 534 138 534 c 0,3,4
 104 534 104 534 79.5 558.5 c 128,-1,5
 55 583 55 583 55 617 c 0,6,7
 55 650 55 650 79 675 c 128,-1,8
 103 700 103 700 139 700 c 0,9,10
 173 700 173 700 197.5 675.5 c 128,-1,11
 222 651 222 651 222 617 c 0,0,1
EndSplineSet
Validated: 19457
EndChar

StartChar: combiningddot
Encoding: 776 776 145
Width: 500
VWidth: 1000
Flags: W
HStem: 545 155<98.9165 205.764 293.236 400.083>
VStem: 75 155<568.916 675.911> 269 155<569.089 676.279>
LayerCount: 2
Fore
SplineSet
230 622 m 0,0,1
 230 590 230 590 207 567.5 c 128,-1,2
 184 545 184 545 153 545 c 0,3,4
 120 545 120 545 97.5 568.5 c 128,-1,5
 75 592 75 592 75 622 c 0,6,7
 75 654 75 654 98 677 c 128,-1,8
 121 700 121 700 153 700 c 0,9,10
 183 700 183 700 206.5 678 c 128,-1,11
 230 656 230 656 230 622 c 0,0,1
424 622 m 0,12,13
 424 592 424 592 401.5 568.5 c 128,-1,14
 379 545 379 545 346 545 c 0,15,16
 316 545 316 545 292.5 567 c 128,-1,17
 269 589 269 589 269 623 c 0,18,19
 269 655 269 655 292 677.5 c 128,-1,20
 315 700 315 700 346 700 c 0,21,22
 379 700 379 700 401.5 677 c 128,-1,23
 424 654 424 654 424 622 c 0,12,13
EndSplineSet
Validated: 19457
EndChar

StartChar: combiningring
Encoding: 778 778 146
Width: 755
VWidth: 1000
Flags: W
HStem: 530 46<329.579 425.745> 661 46<329.237 425.469>
VStem: 266 57<581.905 655.156> 432 57<581.597 655.014>
LayerCount: 2
Fore
SplineSet
489 619 m 0,0,1
 489 582 489 582 460 556 c 128,-1,2
 431 530 431 530 377 530 c 0,3,4
 325 530 325 530 296 555 c 0,5,6
 266 580 266 580 266 619 c 0,7,8
 266 654 266 654 294 680.5 c 128,-1,9
 322 707 322 707 378 707 c 0,10,11
 432 707 432 707 460 681 c 0,12,13
 489 655 489 655 489 619 c 0,0,1
378 576 m 128,-1,15
 411 576 411 576 422 584 c 0,16,17
 432 592 432 592 432 618.5 c 128,-1,18
 432 645 432 645 422 653 c 0,19,20
 411 661 411 661 377.5 661 c 128,-1,21
 344 661 344 661 333 653 c 0,22,23
 323 645 323 645 323 618.5 c 128,-1,24
 323 592 323 592 333 584 c 0,25,14
 345 576 345 576 378 576 c 128,-1,15
EndSplineSet
Validated: 19457
EndChar

StartChar: combiningdacute
Encoding: 779 779 147
Width: 500
VWidth: 1000
Flags: W
HStem: 511 206
VStem: 112 321
LayerCount: 2
Fore
SplineSet
244 605 m 2,0,-1
 161 511 l 1,1,-1
 112 535 l 1,2,-1
 135 659 l 2,3,4
 146 717 146 717 194 717 c 0,5,6
 221 717 221 717 243 698 c 0,7,8
 266 679 266 679 266 653 c 0,9,10
 266 631 266 631 244 605 c 2,0,-1
279 535 m 1,11,-1
 302 659 l 2,12,13
 313 717 313 717 361 717 c 0,14,15
 388 717 388 717 410 698 c 0,16,17
 433 679 433 679 433 653 c 0,18,19
 433 631 433 631 411 605 c 2,20,-1
 328 511 l 1,21,-1
 279 535 l 1,11,-1
EndSplineSet
Validated: 19457
EndChar

StartChar: accentddot
Encoding: 168 168 148
Width: 500
VWidth: 1000
Flags: W
HStem: 545 155<98.9165 205.764 293.236 400.083>
VStem: 75 155<568.916 675.911> 269 155<569.089 676.279>
LayerCount: 2
Fore
SplineSet
230 622 m 0,0,1
 230 590 230 590 207 567.5 c 128,-1,2
 184 545 184 545 153 545 c 0,3,4
 120 545 120 545 97.5 568.5 c 128,-1,5
 75 592 75 592 75 622 c 0,6,7
 75 654 75 654 98 677 c 128,-1,8
 121 700 121 700 153 700 c 0,9,10
 183 700 183 700 206.5 678 c 128,-1,11
 230 656 230 656 230 622 c 0,0,1
424 622 m 0,12,13
 424 592 424 592 401.5 568.5 c 128,-1,14
 379 545 379 545 346 545 c 0,15,16
 316 545 316 545 292.5 567 c 128,-1,17
 269 589 269 589 269 623 c 0,18,19
 269 655 269 655 292 677.5 c 128,-1,20
 315 700 315 700 346 700 c 0,21,22
 379 700 379 700 401.5 677 c 128,-1,23
 424 654 424 654 424 622 c 0,12,13
EndSplineSet
Validated: 19457
EndChar

StartChar: accentcedilla
Encoding: 184 184 149
Width: 444
VWidth: 1000
Flags: W
HStem: -204 46<104 257.833> -65 59<187 252.431>
VStem: 271 124<-140.826 -79.3724>
LayerCount: 2
Fore
SplineSet
311 -6 m 1,0,-1
 311 -29 l 1,1,2
 395 -50 395 -50 395 -111 c 0,3,4
 395 -204 395 -204 161 -204 c 2,5,-1
 104 -204 l 1,6,-1
 104 -158 l 1,7,-1
 140 -158 l 2,8,9
 271 -158 271 -158 271 -111 c 0,10,11
 271 -94 271 -94 253 -80 c 128,-1,12
 235 -66 235 -66 192 -65 c 2,13,-1
 187 -65 l 1,14,-1
 187 -6 l 1,15,-1
 311 -6 l 1,0,-1
EndSplineSet
Validated: 19457
EndChar

StartChar: combiningcedilla
Encoding: 807 807 150
Width: 444
VWidth: 1000
Flags: W
HStem: -204 46<104 257.833> -65 59<187 252.431>
VStem: 271 124<-140.826 -79.3724>
LayerCount: 2
Fore
SplineSet
311 -6 m 1,0,-1
 311 -29 l 1,1,2
 395 -50 395 -50 395 -111 c 0,3,4
 395 -204 395 -204 161 -204 c 2,5,-1
 104 -204 l 1,6,-1
 104 -158 l 1,7,-1
 140 -158 l 2,8,9
 271 -158 271 -158 271 -111 c 0,10,11
 271 -94 271 -94 253 -80 c 128,-1,12
 235 -66 235 -66 192 -65 c 2,13,-1
 187 -65 l 1,14,-1
 187 -6 l 1,15,-1
 311 -6 l 1,0,-1
EndSplineSet
Validated: 19457
EndChar

StartChar: backslash
Encoding: 92 92 151
Width: 500
VWidth: 1000
Flags: W
LayerCount: 2
Fore
SplineSet
56 698 m 2,0,1
 51 712 51 712 51 719 c 0,2,3
 51 735 51 735 62 745 c 128,-1,4
 73 755 73 755 86 755 c 0,5,6
 112 755 112 755 123 724 c 2,7,-1
 443 -198 l 2,8,9
 448 -212 448 -212 448 -219 c 0,10,11
 448 -235 448 -235 437 -245 c 128,-1,12
 426 -255 426 -255 413 -255 c 0,13,14
 385 -255 385 -255 375 -222 c 1,15,-1
 56 698 l 2,0,1
EndSplineSet
Validated: 3073
EndChar
